<ttFont>
<head>
    <!-- Most of this table will be recalculated by the compiler -->
    <tableVersion value="1.0"/>
    <fontRevision value="2.004"/>
    <checkSumAdjustment value="0x703298c6"/>
    <magicNumber value="0x5f0f3cf5"/>
    <flags value="00000000 00000011"/>
    <unitsPerEm value="1000"/>
    <created value="Thu Oct  8 10:00:33 2009"/>
    <modified value="Thu Oct  8 10:00:33 2009"/>
    <xMin value="-460"/>
    <yMin value="-297"/>
    <xMax value="1761"/>
    <yMax value="1134"/>
    <macStyle value="00000000 00000001"/>
    <lowestRecPPEM value="3"/>
    <fontDirectionHint value="2"/>
    <indexToLocFormat value="0"/>
    <glyphDataFormat value="0"/>
  </head>
          <CharString index="0">
            690 27 rmoveto
            5 0 2 -5 13 vhcurveto
            -211 604 rlineto
            43 -15 -29 0 -20 hhcurveto
            -88 hlineto
            -20 -29 0 -43 -15 hvcurveto
            -211 -604 rlineto
            -5 -13 0 -2 -5 vvcurveto
            -27 25 0 14 vhcurveto
            36 hlineto
            18 31 0 40 14 hvcurveto
            39 111 rlineto
            277 hlineto
            34 -96 rlineto
            -35 12 7 -20 48 hhcurveto
            54 hlineto
            14 25 0 27 hvcurveto
            -224 210 rmoveto
            -217 hlineto
            72 212 15 44 13 38 8 36 rlinecurve
            1 hlineto
            5 -24 0 -2 8 -23 rrcurveto
            return
          </CharString>
          <CharString index="1">
            rmoveto
            -108 102 rlineto
            2 -2 -3 1 -3 hhcurveto
            -111 hlineto
            -3 -3 -1 -2 -2 hvcurveto
            -110 -104 rlineto
            -7 -8 5 -13 11 hhcurveto
            47 hlineto
            5 1 112 81 112 -81 5 -1 rlineto
            47 hlineto
            11 6 15 7 -8 hvcurveto
            return
          </CharString>
          <CharString index="2">
            107 callsubr
            -77 callsubr
            -19 vlineto
            -29 5 -19 43 vhcurveto
            51 hlineto
            42 6 18 30 hvcurveto
            return
          </CharString>
          <CharString index="3">
            rmoveto
            27 -21 11 -15 -6 -27 -2 -34 -3 vhcurveto
            -13 -26 -41 0 -49 hhcurveto
            -51 -40 0 13 -26 hvcurveto
            34 -3 -27 2 -6 hhcurveto
            -16 -20 -12 -26 -104 143 0 45 47 142 0 104 hvcurveto
            return
          </CharString>
          <CharString index="4">
            595 48 rmoveto
            14 vlineto
            48 -23 0 -33 vhcurveto
            -155 -2 -146 -2 rlineto
            205 263 vlineto
            31 17 7 40 37 -13 10 -35 hvcurveto
            -263 185 49 152 callgsubr
            -29 callsubr
            -393 -49 callgsubr
            408 -100 callsubr
            return
          </CharString>
          <CharString index="5">
            -20 -102 callgsubr
            hintmask 00110000
            return
          </CharString>
          <CharString index="6">
            93 callgsubr
            362 -59 callgsubr
            -77 callsubr
            -237 vlineto
            -66 -35 -57 -71 -56 -6 14 53 vhcurveto
            293 -59 callgsubr
            -36 -12 -11 -37 hvcurveto
            -284 vlineto
            -107 58 -30 104 27 71 0 85 47 vhcurveto
            -26 30 callgsubr
            return
          </CharString>
          <CharString index="7">
            hlineto
            38 10 13 35 hvcurveto
            return
          </CharString>
          <CharString index="8">
            112 -83 84 -100 23 vhcurveto
            -96 22 rlineto
            -22 5 -62 23 57 vvcurveto
            85 85 2 34 56 50 -13 -48 49 vhcurveto
            -15 16 1 -1 4 hhcurveto
            6 5 3 15 3 hvcurveto
            15 87 rlineto
            2 8 0 2 3 vvcurveto
            8 -1 1 -25 13 vhcurveto
            35 -71 -59 5 -51 hhcurveto
            -89 -155 -21 -187 -71 37 -46 19 -20 hvcurveto
            51 -52 47 -10 78 -18 56 -13 22 -5 22 -20 rrcurveto
            10 -10 21 -21 -38 vvcurveto
            -94 -86 -3 -33 -84 -73 34 45 -50 vhcurveto
            12 -12 -2 0 -4 hhcurveto
            -6 -5 -3 -15 -3 hvcurveto
            -15 -87 rlineto
            -2 -8 0 -2 -3 vvcurveto
            -21 104 -36 5 -2 vhcurveto
            -21 67 54 -2 26 hhcurveto
            150 94 67 155 hvcurveto
            return
          </CharString>
          <CharString index="9">
            rmoveto
            7 14 -5 16 -18 hhcurveto
            -161 hlineto
            -127 -109 rlineto
            -12 -14 12 -8 14 hhcurveto
            67 hlineto
            endchar
          </CharString>
          <CharString index="10">
            658 50 rmoveto
            262 vlineto
            7 -5 6 -7 vhcurveto
            -207 68 callgsubr
            -69 67 callsubr
            83 -130 hlineto
            -7 -31 -32 -4 -32 hhcurveto
            -62 -62 17 46 -40 hvcurveto
            -45 53 -10 72 70 vvcurveto
            70 10 72 45 53 vhcurveto
            47 40 62 17 62 hhcurveto
            34 34 -5 -13 31 hvcurveto
            32 -13 27 -22 24 -24 154 callgsubr
            -2 4 hhcurveto
            6 80 callsubr
            19 106 rlineto
            7 -3 5 -4 2 vhcurveto
            -33 16 -35 14 -37 8 rrcurveto
            9 -36 -37 3 -37 hhcurveto
            -100 -103 -21 -69 -71 hvcurveto
            -70 -69 -22 -101 -99 vvcurveto
            -98 22 -101 70 -69 vhcurveto
            -70 71 103 -20 100 hhcurveto
            77 77 17 33 70 hvcurveto
            4 2 3 4 5 vvcurveto
            return
          </CharString>
          <CharString index="11">
            -32 callsubr
            -20 -1 -1 -11 -9 hvcurveto
            -86 -117 rlineto
            -9 -11 0 -4 0 vvcurveto
            -13 56 callsubr
            37 hlineto
            159 129 rlineto
            5 4 6 5 6 vvcurveto
            endchar
          </CharString>
          <CharString index="12">
            rmoveto
            4 -5 24 -2 10 vhcurveto
            24 -4 0 2 -18 hhcurveto
            -31 -50 -12 -23 -38 hvcurveto
            31 -47 -52 4 -43 hhcurveto
            -42 -159 0 -165 -40 11 -50 38 -33 hvcurveto
            -27 -37 0 -39 -5 vvcurveto
            -19 6 -33 21 -27 vhcurveto
            -15 -6 -52 -18 -64 vvcurveto
            -31 15 -52 63 -29 vhcurveto
            -26 57 67 -1 47 hhcurveto
            59 191 0 142 156 -141 0 -135 hvcurveto
            -48 hlineto
            -36 -14 0 12 -14 hvcurveto
            -4 4 -17 15 26 vvcurveto
            7 1 2 1 6 vhcurveto
            hintmask 1101100110000000
            -26 47 59 0 21 hhcurveto
            42 159 0 165 58 -22 35 -9 11 hvcurveto
            17 35 0 -11 41 hvcurveto
            -2 4 7 -2 3 hhcurveto
            8 5 6 7 hvcurveto
            -217 -101 rmoveto
            -55 -3 -39 -70 -70 -3 38 55 55 3 39 70 70 3 -38 -55 vhcurveto
            104 -371 rmoveto
            -67 -114 0 -32 -40 -107 0 70 47 31 0 23 vhcurveto
            116 hlineto
            hintmask 0000000001000000
            81 42 -14 -36 hvcurveto
            return
          </CharString>
          <CharString index="13">
            -20 -97 callgsubr
            return
          </CharString>
          <CharString index="14">
            rmoveto
            7 8 -5 13 -11 hhcurveto
            -47 hlineto
            -5 -1 -112 -81 -112 81 -5 1 rlineto
            -47 hlineto
            -11 -6 -15 -7 8 hvcurveto
            108 -102 rlineto
            -2 2 3 -1 3 hhcurveto
            111 hlineto
            3 3 1 2 2 hvcurveto
            endchar
          </CharString>
          <CharString index="15">
            672 229 rmoveto
            417 -59 callgsubr
            -77 callsubr
            -419 vlineto
            -98 -29 -65 -122 -116 -31 59 103 vhcurveto
            420 -71 callsubr
            return
          </CharString>
          <CharString index="16">
            3 callgsubr
            hintmask 11100100
            -103 callsubr
            return
          </CharString>
          <CharString index="17">
            hstemhm
            110 callsubr
            hintmask 11001100
            -98 callgsubr
            return
          </CharString>
          <CharString index="18">
            -20 -91 callsubr
            hintmask 00011000
            return
          </CharString>
          <CharString index="19">
            -20 -90 callsubr
            hintmask 00110000
            return
          </CharString>
          <CharString index="20">
            -80 callsubr
            hintmask 00010000
            -39 -4 -24 -5 -10 hhcurveto
            -16 -16 11 11 -15 hvcurveto
            hintmask 00001000
            15 -22 -31 22 -45 hhcurveto
            -71 -39 -65 -49 hvcurveto
            hintmask 00010000
            -17 8 0 19 vhcurveto
            18 hlineto
            20 5 0 15 2 hvcurveto
            hintmask 00001000
            39 4 24 5 10 hhcurveto
            16 16 -11 -11 15 hvcurveto
            hintmask 00010000
            -15 22 31 -22 45 hhcurveto
            71 39 65 49 hvcurveto
            endchar
          </CharString>
          <CharString index="21">
            1014 665 rmoveto
            29 -27 0 -14 vhcurveto
            -21 hlineto
            -20 -28 0 -44 -12 hvcurveto
            -106 -394 -14 -51 -9 -33 -9 -44 rlinecurve
            -1 hlineto
            -5 27 0 2 -24 88 -108 405 rcurveline
            39 -11 -20 5 -29 hhcurveto
            -66 hlineto
            -21 -28 0 -44 -12 hvcurveto
            -88 -328 -25 -99 -11 -47 -8 -32 -2 -16 rlinecurve
            -1 hlineto
            -8 52 -24 88 -17 63 -86 320 rcurveline
            43 -12 -29 0 -19 hhcurveto
            -34 hlineto
            -14 -27 0 -29 0 0 -5 4 -14 hvcurveto
            164 -604 rlineto
            -42 11 28 0 21 hhcurveto
            66 hlineto
            21 28 0 46 12 hvcurveto
            105 391 15 54 7 28 10 48 rlinecurve
            1 hlineto
            12 -58 6 -25 18 -65 102 -377 rcurveline
            -42 11 28 0 20 hhcurveto
            72 hlineto
            21 28 0 42 11 hvcurveto
            164 604 rlineto
            4 14 0 5 0 vvcurveto
            return
          </CharString>
          <CharString index="22">
            708 671 rmoveto
            23 -22 0 -14 vhcurveto
            -49 hlineto
            -21 -31 0 -38 -27 hvcurveto
            -98 -140 -35 -50 -19 -27 -17 -36 rlinecurve
            -15 31 -20 29 -20 28 -113 162 rcurveline
            33 -23 -22 8 -36 hhcurveto
            -66 hlineto
            -14 -22 0 -23 -7 3 -5 6 -8 hvcurveto
            261 -373 rlineto
            -230 -76 callsubr
            48 hlineto
            35 13 10 37 hvcurveto
            230 vlineto
            261 373 rlineto
            4 5 5 9 7 vvcurveto
            return
          </CharString>
          <CharString index="23">
            102 callsubr
            -36 11 -12 37 vhcurveto
            return
          </CharString>
          <CharString index="24">
            -94 callsubr
            hintmask 00011000
            return
          </CharString>
          <CharString index="25">
            646 58 rmoveto
            -8 86 rlineto
            6 -6 5 -6 -3 -2 -1 -1 -3 vhcurveto
            -27 -21 -29 -20 -33 -11 rrcurveto
            -11 -33 -35 -1 -34 hhcurveto
            -62 -62 17 46 -40 hvcurveto
            -45 53 -10 72 70 vvcurveto
            70 10 72 45 53 vhcurveto
            47 40 62 17 62 hhcurveto
            30 31 -4 -11 29 hvcurveto
            29 -11 25 -17 23 -21 154 callgsubr
            -1 3 hhcurveto
            7 5 5 5 1 hvcurveto
            19 107 rlineto
            8 -4 4 -4 2 vhcurveto
            -32 12 -33 10 -33 6 rrcurveto
            6 -34 -34 2 -33 hhcurveto
            -100 -103 -21 -69 -71 hvcurveto
            -70 -69 -22 -101 -99 vvcurveto
            -98 22 -101 70 -69 vhcurveto
            -70 71 103 -20 100 hhcurveto
            37 38 1 10 36 hvcurveto
            36 10 33 17 33 19 rrcurveto
            3 2 3 4 6 vvcurveto
            return
          </CharString>
          <CharString index="26">
            hlineto
            -86 callgsubr
            return
          </CharString>
          <CharString index="27">
            rmoveto
            17 -7 0 -20 vhcurveto
            -18 hlineto
            -20 -5 0 -15 -2 hvcurveto
            return
          </CharString>
          <CharString index="28">
            -80 callsubr
            hintmask 10000000
            -39 -4 -24 -5 -10 hhcurveto
            -16 -16 11 11 -15 hvcurveto
            hintmask 01000000
            15 -22 -31 22 -45 hhcurveto
            -71 -39 -65 -49 hvcurveto
            hintmask 10000000
            -17 8 0 19 vhcurveto
            18 hlineto
            20 5 0 15 2 hvcurveto
            hintmask 01000000
            39 4 24 5 10 hhcurveto
            16 16 -11 -11 15 hvcurveto
            hintmask 10000000
            -15 22 31 -22 45 hhcurveto
            71 39 65 49 hvcurveto
            endchar
          </CharString>
          <CharString index="29">
            -21 callgsubr
            -32 7 -16 41 vhcurveto
            40 hlineto
            38 10 13 35 hvcurveto
            return
          </CharString>
          <CharString index="30">
            -38 -10 -13 -35 hvcurveto
            return
          </CharString>
          <CharString index="31">
            vlineto
            -81 callgsubr
            return
          </CharString>
          <CharString index="32">
            194 48 rmoveto
            88 callsubr
            -36 11 -12 37 vhcurveto
            37 hlineto
            38 10 13 35 hvcurveto
            return
          </CharString>
          <CharString index="33">
            -25 callsubr
            -51 hlineto
            -77 callsubr
            -238 -317 238 -84 callsubr
            51 -100 callsubr
            266 317 -266 2 callsubr
            return
          </CharString>
          <CharString index="34">
            rmoveto
            -31 -20 -3 -35 -32 -23 3 31 31 20 3 35 32 23 -3 -31 vhcurveto
            68 -1 rmoveto
            80 -95 0 -28 -27 -96 0 -78 -80 95 0 28 27 96 0 78 vhcurveto
            return
          </CharString>
          <CharString index="35">
            -65 callgsubr
            -187 65 -177 270 return
          </CharString>
          <CharString index="36">
            -99 callgsubr
            -51 hlineto
            return
          </CharString>
          <CharString index="37">
            1 callgsubr
            -211 166 -41 127 114 174 34 217 vhcurveto
            return
          </CharString>
          <CharString index="38">
            534 48 rmoveto
            9 vlineto
            23 -1 25 -46 vhcurveto
            -249 -4 rlineto
            545 -84 callsubr
            347 -100 callsubr
            return
          </CharString>
          <CharString index="39">
            719 430 rmoveto
            28 -3 -18 0 -31 hhcurveto
            -47 -12 -3 -52 -14 hvcurveto
            -81 -290 -85 300 rlineto
            22 -6 -7 23 -46 hhcurveto
            -15 -23 0 -23 -14 hvcurveto
            -9 -15 -44 -173 -35 -117 -80 283 rcurveline
            34 -10 -11 11 -41 hhcurveto
            -20 hlineto
            -19 -21 0 -28 -3 hvcurveto
            106 -384 rlineto
            -46 13 26 0 25 hhcurveto
            28 hlineto
            47 8 15 40 11 hvcurveto
            23 83 36 126 4 52 1 1 rcurveline
            6 -57 44 -158 13 -47 rrcurveto
            -36 11 5 -19 50 hhcurveto
            68 hlineto
            43 10 12 34 10 hvcurveto
            return
          </CharString>
          <CharString index="40">
            -100 callgsubr
            168 return
          </CharString>
          <CharString index="41">
            590 471 118 callgsubr
            -6 6 -7 vhcurveto
            -105 hlineto
            -7 -6 -6 -7 hvcurveto
            -105 vlineto
            -7 6 -6 7 vhcurveto
            8 hlineto
            -37 -34 rlineto
            39 -46 -62 12 -61 hhcurveto
            -67 -69 -15 -48 -47 hvcurveto
            -47 -49 -14 -71 -68 vvcurveto
            -65 15 -67 46 -44 vhcurveto
            -46 48 68 -13 67 hhcurveto
            66 69 13 46 48 hvcurveto
            return
          </CharString>
          <CharString index="42">
            -113 -12 89 64 -3 hvcurveto
            272 hlineto
            23 25 1 45 hvcurveto
            -111 7 rmoveto
            return
          </CharString>
          <CharString index="43">
            -20 hstemhm
            61 142 387 141 -107 131 hintmask 11010101
            -66 callgsubr
            hintmask 00000010
            66 72 17 102 99 vvcurveto
            99 -15 103 -65 75 vhcurveto
            99 78 rlineto
            hintmask 11000101
            -55 callsubr
            hintmask 00000010
            42 -60 4 -77 -73 vvcurveto
            hintmask 00101000
            return
          </CharString>
          <CharString index="44">
            vlineto
            -60 callsubr
            return
          </CharString>
          <CharString index="45">
            -20 3 callgsubr
            -65 132 -67 147 74 132 -55 136 hintmask 1100000101000000
            -92 callsubr
            hintmask 1000010001000000
            -70 callsubr
            hintmask 0011101010000000
            -19 callsubr
            return
          </CharString>
          <CharString index="46">
            rmoveto
            104 -143 0 -45 -47 -142 0 -104 -27 21 -11 15 6 27 2 34 3 vhcurveto
            13 26 41 0 49 hhcurveto
            51 40 0 -13 26 hvcurveto
            -34 3 27 -2 6 hhcurveto
            16 20 12 26 hvcurveto
            endchar
          </CharString>
          <CharString index="47">
            32 -7 16 -41 -40 callgsubr
            return
          </CharString>
          <CharString index="48">
            441 37 rmoveto
            38 -31 0 -29 vhcurveto
            -153 -2 rlineto
            -46 hlineto
            244 309 rlineto
            10 13 2 5 16 vvcurveto
            42 -31 0 -17 vhcurveto
            -296 hlineto
            -13 -35 0 -38 -37 32 0 27 hvcurveto
            145 2 rlineto
            37 hlineto
            -244 -309 rlineto
            -10 -13 -2 -5 -16 vvcurveto
            -42 31 0 17 vhcurveto
            314 hlineto
            13 35 0 37 hvcurveto
            return
          </CharString>
          <CharString index="49">
            rmoveto
            0 0 9 -10 13 vhcurveto
            -174 228 154 143 rlineto
            12 11 3 3 8 vvcurveto
            21 -20 0 -14 vhcurveto
            -58 hlineto
            -18 -19 0 -21 -23 hvcurveto
            -144 -134 rlineto
            343 -99 callgsubr
            -21 -81 callsubr
            18 -100 callsubr
            104 vlineto
            16 14 15 15 16 14 130 -170 rcurveline
            -22 17 7 -3 29 hhcurveto
            48 hlineto
            14 22 0 22 hvcurveto
            return
          </CharString>
          <CharString index="50">
            701 29 rmoveto
            -280 376 263 247 rlineto
            12 11 0 6 4 vvcurveto
            21 -20 0 -14 vhcurveto
            -61 hlineto
            -17 -20 0 -20 -21 hvcurveto
            -322 -304 rlineto
            276 -99 callgsubr
            -34 -81 callsubr
            34 -100 callsubr
            168 vlineto
            111 105 224 -300 rlineto
            -21 16 15 0 19 hhcurveto
            60 hlineto
            21 14 0 29 hvcurveto
            return
          </CharString>
          <CharString index="51">
            794 -11 72 -17 53 -44 66 95 83 callgsubr
            -66 66 hstemhm
            31 130 71 114 -17 137 -1 114 69 114 hintmask 0000100000000000
            762 261 rmoveto
            130 -59 84 -138 -30 -66 -3 -38 -53 vhcurveto
            34 -42 -52 7 -60 hhcurveto
            -54 -48 -6 -27 -63 hvcurveto
            -20 -8 -5 -3 -11 vvcurveto
            -7 6 -58 1 -8 vhcurveto
            -6 1 5 -5 7 hhcurveto
            5 3 3 3 3 hvcurveto
            hintmask 1000011010000000
            45 43 50 22 63 hhcurveto
            57 13 -37 -55 hvcurveto
            -64 vlineto
            -88 -3 -210 -8 -119 vvcurveto
            -44 32 -90 115 vhcurveto
            hintmask 0100000000000000
            23 129 0 55 70 hvcurveto
            hintmask 1000000001000000
            -55 67 90 0 22 hhcurveto
            60 48 15 22 40 hvcurveto
            hintmask 0010000000000000
            28 16 1 1 10 vvcurveto
            hintmask 0100000000000000
            7 -3 29 -1 8 vhcurveto
            31 -4 -1 1 -9 hhcurveto
            hintmask 0010000000000000
            -6 -2 -2 -8 -8 hvcurveto
            hintmask 1001000001100000
            -46 -46 -57 -12 -36 hhcurveto
            -91 -24 68 85 -3 hvcurveto
            249 97 callgsubr
            hintmask 0001100010100000
            -182 hlineto
            49 3 13 87 84 hhcurveto
            76 4 -80 -56 2 hvcurveto
            -302 -145 rmoveto
            hintmask 1000001100000000
            -20 -40 -41 -74 -50 -21 37 26 67 133 6 36 2 vhcurveto
            3 -27 1 -9 9 -29 rrcurveto
            2 -5 1 -7 0 vvcurveto
            endchar
          </CharString>
          <CharString index="52">
            3 2 2 4 4 vvcurveto
            -165 -346 rmoveto
            -79 -3 -83 -43 -67 vhcurveto
            -49 -31 -58 -25 -59 hhcurveto
            -59 -57 25 49 -32 hvcurveto
            -43 67 -2 83 79 vvcurveto
            73 3 77 42 60 vhcurveto
            47 33 57 21 58 hhcurveto
            58 57 -21 -47 33 hvcurveto
            return
          </CharString>
          <CharString index="53">
            220 -53 callsubr
            return
          </CharString>
          <CharString index="54">
            607 rmoveto
            -105 callgsubr
            242 hmoveto
            -105 callgsubr
            return
          </CharString>
          <CharString index="55">
            -71 callgsubr
            33 vhcurveto
            return
          </CharString>
          <CharString index="56">
            hlineto
            -88 callgsubr
            return
          </CharString>
          <CharString index="57">
            -73 callsubr
            endchar
          </CharString>
          <CharString index="58">
            40 -100 callsubr
            return
          </CharString>
          <CharString index="59">
            -77 callsubr
            -491 vlineto
            -21 0 -56 -88 -58 -32 32 18 -14 vhcurveto
            10 -8 -2 2 -6 118 callsubr
            -10 -2 hvcurveto
            -5 -31 -10 -53 -4 vvcurveto
            -9 6 -3 19 -8 vhcurveto
            -26 59 60 -9 45 hhcurveto
            107 85 54 117 hvcurveto
            return
          </CharString>
          <CharString index="60">
            63 callsubr
            -598 vlineto
            -36 11 -12 37 vhcurveto
            264 hlineto
            244 85 146 196 hvcurveto
            -144 hmoveto
            -113 -11 -143 -213 vhcurveto
            -129 522 128 hlineto
            216 9 -154 -112 hvcurveto
            return
          </CharString>
          <CharString index="61">
            -86 callgsubr
            48 -100 callsubr
            263 111 vlineto
            return
          </CharString>
          <CharString index="62">
            26 callsubr
            hintmask 01010000
            -12 155 callgsubr
            -12 -8 hvcurveto
            hintmask 11101000
            -63 -102 rlineto
            -95 -40 callsubr
            77 -43 callgsubr
            223 hmoveto
            -27 callsubr
            -12 155 callgsubr
            -12 -8 hvcurveto
            -63 -102 rlineto
            -95 -40 callsubr
            77 -33 callgsubr
          </CharString>
          <CharString index="63">
            653 30 rmoveto
            -170 290 rlineto
            63 15 95 38 124 vvcurveto
            197 -217 0 -45 vhcurveto
            -240 hlineto
            return
          </CharString>
          <CharString index="64">
            479 260 rmoveto
            129 -60 86 -149 vhcurveto
            return
          </CharString>
          <CharString index="65">
            636 471 118 callgsubr
            -5 6 -7 vhcurveto
            -106 68 callgsubr
            -105 67 callsubr
            6 hlineto
            -27 -22 rlineto
            13 -6 -12 9 -15 hhcurveto
            -64 hlineto
            return
          </CharString>
          <CharString index="66">
            559 rmoveto
            -105 callgsubr
            242 hmoveto
            -105 callgsubr
            return
          </CharString>
          <CharString index="67">
            vlineto
            -26 1 -1 26 vhcurveto
            return
          </CharString>
          <CharString index="68">
            642 0 108 203 94 182 104 return
          </CharString>
          <CharString index="69">
            42 callsubr
            151 86 457 return
          </CharString>
          <CharString index="70">
            565 -11 72 325 72 175 72 hstemhm
            61 133 -48 135 -16 133 -30 135 -105 135 hintmask 00110010
            533 186 rmoveto
            79 -18 100 -87 55 vhcurveto
            66 40 9 69 33 vvcurveto
            143 -172 0 -49 -56 -165 0 -147 vhcurveto
            -510 -76 callsubr
            hintmask 00001000
            37 hlineto
            hintmask 00010000
            38 10 13 35 hvcurveto
            509 vlineto
            hintmask 01101010
            47 9 29 78 72 15 -23 -50 -93 -50 -7 -50 -2 vhcurveto
            -13 -1 0 -10 -16 vvcurveto
            -18 vlineto
            -21 0 -5 17 -1 vhcurveto
            hintmask 10000100
            108 -8 18 -82 -110 vvcurveto
            -52 0 -73 -77 -5 -24 0 13 -27 vhcurveto
            1 -3 -4 2 -3 hhcurveto
            -9 -2 -4 -20 -7 hvcurveto
            -4 -12 -7 -17 -4 vvcurveto
            -19 61 -12 39 vhcurveto
            hintmask 00000001
            130 77 62 135 hvcurveto
            endchar
          </CharString>
          <CharString index="71">
            978 111 callgsubr
            91 123 -48 123 474 123 hintmask 01011000
            886 -23 callsubr
            -84 hlineto
            -25 -25 -2 -41 -17 hvcurveto
            -132 -324 -21 -51 -37 -92 -8 -35 rlinecurve
            -1 hlineto
            -9 36 -41 99 -21 53 -128 316 rcurveline
            41 -17 -32 0 -18 hhcurveto
            -83 hlineto
            hintmask 10100000
            -86 callgsubr
            hintmask 10010000
            27 hlineto
            hintmask 10101000
            38 10 13 35 hvcurveto
            517 1 vlineto
            11 -45 45 -111 24 -59 116 -285 rcurveline
            -43 18 24 0 34 hhcurveto
            34 24 0 43 18 hvcurveto
            128 314 10 24 54 136 7 26 rlinecurve
            1 -517 hlineto
            -57 callgsubr
            27 -100 callsubr
            endchar
          </CharString>
          <CharString index="72">
            77 -71 callgsubr
            return
          </CharString>
          <CharString index="73">
            rmoveto
            36 -36 0 -12 vhcurveto
            -197 hlineto
            -12 -36 0 -36 -36 36 0 12 hvcurveto
            197 hlineto
            48 callgsubr
          </CharString>
          <CharString index="74">
            -20 hstemhm
            66 54 callsubr
            hintmask 10011000
            -19 callgsubr
            hintmask 01100000
            return
          </CharString>
          <CharString index="75">
            rmoveto
            -45 callgsubr
            return
          </CharString>
          <CharString index="76">
            -20 hstemhm
            -42 133 0 -8 callsubr
            hintmask 10001000
            3 callsubr
            return
          </CharString>
          <CharString index="77">
            7 2 4 7 5 hvcurveto
            73 51 71 0 13 hhcurveto
            64 9 -33 -49 -14 0 -48 -31 -38 hvcurveto
            -24 -28 -25 -2 -30 -2 -11 -1 -19 -1 -3 -2 rrcurveto
            -7 -3 0 -6 -16 vvcurveto
            -18 -40 callsubr
            44 hlineto
            return
          </CharString>
          <CharString index="78">
            8 -99 callgsubr
            return
          </CharString>
          <CharString index="79">
            rmoveto
            -108 102 rlineto
            2 -2 -3 1 -3 hhcurveto
            -111 hlineto
            -3 -3 -1 -2 -2 hvcurveto
            -110 -104 rlineto
            -7 -8 5 -13 11 hhcurveto
            47 hlineto
            5 1 112 81 112 -81 5 -1 rlineto
            47 hlineto
            11 6 15 7 -8 hvcurveto
            10 289 -67 callgsubr
          </CharString>
          <CharString index="80">
            128 callgsubr
            -33 vhcurveto
            30 80 rlineto
            1 3 2 6 4 vvcurveto
            13 -10 0 -16 vhcurveto
            return
          </CharString>
          <CharString index="81">
            -104 callsubr
            -6 222 -67 callgsubr
          </CharString>
          <CharString index="82">
            702 -23 callsubr
            return
          </CharString>
          <CharString index="83">
            18 callsubr
            -137 563 rmoveto
            22 -18 20 -24 -21 -11 -15 -6 -5 vhcurveto
            -537 -712 rlineto
            -7 -10 -6 -7 -14 vvcurveto
            -23 19 -19 23 21 11 14 7 5 vhcurveto
            538 712 rlineto
            12 16 0 12 3 vvcurveto
            -340 -160 -6 callsubr
            return
          </CharString>
          <CharString index="84">
            48 28 callgsubr
            return
          </CharString>
          <CharString index="85">
            794 0 86 211 100 211 86 hstem
            138 callgsubr
            cntrmask 11100000
            63 callsubr
            -249 -32 44 callgsubr
            32 -249 67 callgsubr
            264 hlineto
            244 85 146 196 hvcurveto
            -144 hmoveto
            -113 -11 -143 -213 vhcurveto
            -129 211 58 80 callgsubr
            28 vlineto
            20 -16 16 -20 vhcurveto
            -58 211 123 callgsubr
          </CharString>
          <CharString index="86">
            vlineto
            -21 -35 0 -36 -36 34 0 22 hvcurveto
            -338 4 callgsubr
            return
          </CharString>
          <CharString index="87">
            48 rmoveto
            12 vlineto
            16 0 19 -21 9 vhcurveto
            4 -7 -32 0 -20 hhcurveto
            -68 -1 rlineto
            -162 hlineto
            132 125 rlineto
            hintmask 00010000
            15 13 38 31 15 14 rrcurveto
            hintmask 01101000
            55 54 55 53 89 vvcurveto
            122 -88 108 -147 -35 -57 -5 -39 -48 vhcurveto
            -9 -7 -46 -36 -18 -67 50 -64 rcurveline
            -8 6 3 -4 7 hhcurveto
            9 2 7 12 3 hvcurveto
            hintmask 01010000
            69 20 34 42 64 hhcurveto
            hintmask 10001000
            78 32 -71 -61 -64 -38 -67 -60 -64 hvcurveto
            -191 -204 rlineto
            -10 -10 0 -2 -17 57 callgsubr
            343 -100 callsubr
            endchar
          </CharString>
          <CharString index="88">
            -367 560 rmoveto
            -105 callgsubr
            286 hmoveto
            -105 callgsubr
            return
          </CharString>
          <CharString index="89">
            511 -11 72 136 53 153 72 hstemhm
            31 111 98 111 -1 129 hintmask 11111000
            479 231 rmoveto
            164 -95 80 -157 -38 -57 -5 -33 -66 vhcurveto
            -22 -11 -7 -3 -12 vvcurveto
            -7 3 -29 1 -8 vhcurveto
            -31 4 1 -1 9 hhcurveto
            4 2 0 10 11 hvcurveto
            51 59 60 7 32 hhcurveto
            113 12 -89 -64 3 hvcurveto
            -272 hlineto
            -23 -25 -1 -45 -129 60 -86 149 hvcurveto
            hintmask 00000100
            160 79 90 152 hvcurveto
            -129 -34 rmoveto
            hintmask 11011000
            -61 -3 -20 -75 -87 hhcurveto
            -80 -15 58 78 -3 hvcurveto
            hintmask 01000100
            endchar
          </CharString>
          <CharString index="90">
            499 48 7 callgsubr
            -227 vlineto
            43 -45 -50 7 -31 hhcurveto
            -203 0 -192 -49 -46 0 -193 198 hvcurveto
            return
          </CharString>
          <CharString index="91">
            525 -11 72 348 66 return
          </CharString>
          <CharString index="92">
            236 rmoveto
            57 0 186 -195 vhcurveto
            hintmask 01010100
            -55 -40 -31 -58 -27 hvcurveto
            5 90 1 22 15 40 rrcurveto
            hintmask 00001000
            76 29 66 9 35 hhcurveto
            18 26 -3 -13 24 hvcurveto
            -5 7 3 -2 5 hhcurveto
            hintmask 00010000
            12 0 12 15 hvcurveto
            37 vlineto
            24 0 1 -35 13 vhcurveto
            hintmask 10101011
            10 -26 -27 0 -10 hhcurveto
            -288 0 -288 -88 -103 0 -259 233 77 48 19 46 41 hvcurveto
            52 58 6 57 78 vvcurveto
            -140 1 rmoveto
            -98 0 -67 -85 -79 -11 90 86 83 24 76 71 80 0 -71 -99 vhcurveto
            endchar
          </CharString>
          <CharString index="93">
            60 136 168 136 return
          </CharString>
          <CharString index="94">
            rmoveto
            -47 callgsubr
            return
          </CharString>
          <CharString index="95">
            1 -2 -4 3 -4 hhcurveto
            -8 -1 -1 -26 -9 hvcurveto
            -4 -10 -7 -19 -3 vvcurveto
            -19 83 -28 63 vhcurveto
            return
          </CharString>
          <CharString index="96">
            203 rmoveto
            91 -43 57 -80 23 vhcurveto
            96 32 12 70 45 vvcurveto
            147 -94 48 -119 -109 -105 -39 -156 -53 18 -64 90 -30 vhcurveto
            hintmask 11010010
            -103 -29 -20 -79 -63 vvcurveto
            -156 84 -69 144 151 78 75 150 vhcurveto
            -143 317 rmoveto
            -58 -1 -51 -84 vhcurveto
            hintmask 10101100
            -84 -2 49 60 69 6 38 79 79 7 -36 -71 hvcurveto
            4 -315 rmoveto
            -75 -2 -58 -87 vhcurveto
            hintmask 01010010
            -88 -2 56 77 65 0 69 89 90 0 -68 -66 hvcurveto
            endchar
          </CharString>
          <CharString index="97">
            250 rmoveto
            75 -5 78 -48 56 vhcurveto
            51 -43 -70 12 -66 hhcurveto
            -66 -70 -12 -51 -43 hvcurveto
            -48 -56 -5 -78 -75 vvcurveto
            -75 5 -78 48 -56 vhcurveto
            -51 43 70 -12 66 hhcurveto
            66 70 12 51 43 hvcurveto
            48 56 5 78 75 vvcurveto
            -137 hmoveto
            -53 0 -55 -22 -46 vhcurveto
            -28 -13 -29 -18 -31 hhcurveto
            -31 -29 18 28 -13 hvcurveto
            -22 46 0 55 53 vvcurveto
            53 0 55 22 46 vhcurveto
            28 13 29 18 31 hhcurveto
            31 29 -18 -28 13 hvcurveto
            22 -46 0 -55 -53 vvcurveto
            endchar
          </CharString>
          <CharString index="98">
            44 rmoveto
            11 vlineto
            27 -4 24 -41 vhcurveto
            -236 hlineto
            176 87 rlineto
            90 45 15 47 65 vvcurveto
            122 -126 50 -111 -70 -66 -20 -48 -55 vhcurveto
            -7 -6 -13 -8 -9 vvcurveto
            -18 76 -50 3 vhcurveto
            13 2 18 29 19 11 rrcurveto
            12 21 24 5 25 hhcurveto
            41 62 -12 -52 7 hvcurveto
            -8 vlineto
            -67 -48 -56 -85 -49 vhcurveto
            -148 -86 rlineto
            -9 -6 -16 -9 -19 vvcurveto
            -25 vlineto
            -31 34 -2 24 vhcurveto
            343 hlineto
            29 15 15 29 hvcurveto
            endchar
          </CharString>
          <CharString index="99">
            133 hintmask 11000100
            -32 callgsubr
            return
          </CharString>
          <CharString index="100">
            47 rmoveto
            37 -13 10 -35 vhcurveto
            hintmask 01110000
            -42 380 hlineto
            36 -11 12 -37 vhcurveto
            -73 hlineto
            -19 -15 0 -23 -12 hvcurveto
            -222 -390 rlineto
            -8 -15 0 -3 -18 vvcurveto
            -25 -5 callsubr
            225 -146 hlineto
            hintmask 10000100
            -57 callgsubr
            28 hlineto
            hintmask 01010000
            38 10 13 35 hvcurveto
            146 vlineto
            hintmask 01100100
            42 79 callsubr
            -208 47 rmoveto
            -175 hlineto
            160 294 9 12 5 17 rrcurveto
            hintmask 01101000
            1 hlineto
            endchar
          </CharString>
          <CharString index="101">
            rmoveto
            -46 callgsubr
            return
          </CharString>
          <CharString index="102">
            vlineto
            -57 callgsubr
            return
          </CharString>
          <CharString index="103">
            41 130 167 136 return
          </CharString>
          <CharString index="104">
            114 408 -104 callsubr
            return
          </CharString>
          <CharString index="105">
            -271 -21 95 118 return
          </CharString>
          <CharString index="106">
            687 -9 rmoveto
            30 30 -30 30 -7 7 -193 192 rcurveline
            192 192 7 7 30 30 -29 30 rlinecurve
            -30 30 -30 -31 -8 -7 -191 -191 rcurveline
            -192 192 -8 7 -30 31 -30 -30 rlinecurve
            -29 -30 30 -30 7 -7 192 -193 rcurveline
            -192 -192 -7 -7 -30 -30 29 -30 rlinecurve
            30 -30 30 31 8 7 192 192 rcurveline
            192 -192 7 -7 31 -31 29 30 rlinecurve
            return
          </CharString>
          <CharString index="107">
            -33 0 -97 -66 -61 0 68 62 61 0 68 61 66 0 -97 -32 vhcurveto
            return
          </CharString>
          <CharString index="108">
            343 rmoveto
            137 0 236 -231 -232 0 -234 -139 -137 0 -228 231 232 0 226 139 vhcurveto
            -136 14 rmoveto
            -57 0 -78 -7 -55 vhcurveto
            -26 -3 -11 -91 -75 hhcurveto
            -74 -11 92 27 -3 hvcurveto
            hintmask 01101000
            -7 53 0 94 41 vvcurveto
            59 0 64 6 49 vhcurveto
            27 3 10 88 76 hhcurveto
            74 12 -84 -20 3 hvcurveto
            hintmask 00000100
            7 -51 0 -79 -53 vvcurveto
            endchar
          </CharString>
          <CharString index="109">
            -5 callsubr
            51 -100 callsubr
            return
          </CharString>
          <CharString index="110">
            -12 callsubr
            hintmask 00000100
            110 39 74 99 hvcurveto
            return
          </CharString>
          <CharString index="111">
            644 rmoveto
            22 0 27 -42 1 vhcurveto
            hintmask 00100000
            -284 1 rlineto
            -63 hlineto
            -48 -20 0 -48 hvcurveto
            -13 vlineto
            -16 0 -19 21 -9 vhcurveto
            hintmask 01000000
            -4 7 33 0 21 hhcurveto
            hintmask 10110000
            70 1 rlineto
            169 -16 callgsubr
          </CharString>
          <CharString index="112">
            3 callgsubr
            0 147 151 136 return
          </CharString>
          <CharString index="113">
            -76 callsubr
            -49 callsubr
            185 vlineto
            -50 45 55 0 14 hhcurveto
            212 0 192 50 hvcurveto
            -136 -2 rmoveto
            -40 0 -128 -113 -23 -18 8 9 -12 vhcurveto
            -24 17 0 5 18 vvcurveto
            240 vlineto
            10 11 33 23 43 hhcurveto
            102 1 -118 -44 hvcurveto
            endchar
          </CharString>
          <CharString index="114" raw="1">
            f7fe281d 0b  
          </CharString>
          <CharString index="115">
            561 -11 61 408 -20 return
          </CharString>
          <CharString index="116">
            306 457 131 106 -20 62 callsubr
            26 callsubr
            -12 155 callgsubr
            -12 -8 hvcurveto
            -63 -102 rlineto
            -95 -40 callsubr
            77 -33 callgsubr
          </CharString>
          <CharString index="117">
            607 rmoveto
            40 -59 callgsubr
            -77 callsubr
            -40 120 callsubr
            -1 -559 rmoveto
            362 -35 callgsubr
            -362 30 callgsubr
            return
          </CharString>
          <CharString index="118">
            306 478 133 callsubr
            25 callsubr
            endchar
          </CharString>
          <CharString index="119">
            12 99 callsubr
            12 8 hvcurveto
            return
          </CharString>
          <CharString index="120">
            vvcurveto
            -13 10 0 16 vhcurveto
            return
          </CharString>
          <CharString index="121">
            hlineto
            -9 -8 1 -9 hhcurveto
            -6 -7 -1 -1 -6 hvcurveto
            -19 -3 -11 -17 -16 vvcurveto
            -22 20 -13 20 vhcurveto
            213 hlineto
            20 20 14 22 hvcurveto
            return
          </CharString>
          <CharString index="122">
            21 43 callgsubr
            return
          </CharString>
          <CharString index="123">
            196 vlineto
            25 -21 20 -25 vhcurveto
            -45 hlineto
            -25 -20 -20 -25 hvcurveto
            -196 vlineto
            -25 20 -20 25 vhcurveto
            45 hlineto
            25 21 20 25 hvcurveto
            return
          </CharString>
          <CharString index="124">
            561 21 54 callgsubr
            return
          </CharString>
          <CharString index="125">
            -46 callgsubr
            -431 hmoveto
            -46 callgsubr
            return
          </CharString>
          <CharString index="126">
            32 20 -9 -19 20 vhcurveto
            hintmask 00100000
            -8 7 3 -2 5 hhcurveto
            13 0 10 16 hvcurveto
            return
          </CharString>
          <CharString index="127">
            31 callgsubr
            123 139 return
          </CharString>
          <CharString index="128">
            -20 hstem
            22 callsubr
            return
          </CharString>
          <CharString index="129">
            464 649 -104 callsubr
            return
          </CharString>
          <CharString index="130">
            598 -99 callgsubr
            return
          </CharString>
          <CharString index="131">
            764 -22 86 630 return
          </CharString>
          <CharString index="132">
            572 -73 callgsubr
            12 callsubr
            return
          </CharString>
          <CharString index="133">
            484 rmoveto
            -27 callsubr
            return
          </CharString>
          <CharString index="134">
            hstemhm
            43 128 146 128 -24 102 return
          </CharString>
          <CharString index="135">
            132 110 132 return
          </CharString>
          <CharString index="136">
            -21 1 -19 9 1 30 1 32 15 34 33 20 23 5 24 9 26 13 rrcurveto
            22 11 7 3 12 vvcurveto
            7 -3 29 -1 8 vhcurveto
            31 -4 -1 1 -9 hhcurveto
            -4 -2 0 -10 -11 hvcurveto
            return
          </CharString>
          <CharString index="137">
            hstemhm
            -14 callsubr
            return
          </CharString>
          <CharString index="138">
            117 callsubr
            -1 111 return
          </CharString>
          <CharString index="139">
            -20 -10 -20 -11 -17 -14 -54 -44 rcurveline
            hintmask 10010000
            14 -17 rlineto
            41 49 53 30 51 hhcurveto
            40 29 -17 -20 35 hvcurveto
            -17 29 31 -17 40 hhcurveto
            hintmask 01000000
            25 26 8 10 22 hvcurveto
            return
          </CharString>
          <CharString index="140">
            78 11 72 236 72 131 -20 return
          </CharString>
          <CharString index="141">
            hlineto
            35 callsubr
            return
          </CharString>
          <CharString index="142">
            -20 -16 -16 -20 hvcurveto
            return
          </CharString>
          <CharString index="143">
            140 callsubr
            314 94 286 -20 return
          </CharString>
          <CharString index="144">
            vlineto
            -14 0 -30 30 31 0 29 15 vhcurveto
            return
          </CharString>
          <CharString index="145">
            0 callsubr
            -431 hmoveto
            0 callsubr
            return
          </CharString>
          <CharString index="146">
            824 261 rmoveto
            132 -61 82 -136 -47 -70 -8 -48 -52 vhcurveto
            46 -53 -70 10 -57 hhcurveto
            -165 -82 -83 -160 -165 88 -78 159 hvcurveto
            return
          </CharString>
          <CharString index="147">
            341 308 rmoveto
            22 -27 0 -8 vhcurveto
            -50 358 hlineto
            11 0 17 -32 -14 -3 -1 -7 -9 vhcurveto
            -13 -10 -27 -22 -72 -1 rrcurveto
            -13 -18 -4 -18 return
          </CharString>
          <CharString index="148">
            vvcurveto
            12 0 20 -1 3 vhcurveto
            8 -4 -6 0 -17 hhcurveto
            -49 hlineto
            -27 -1 -1 -26 hvcurveto
            -29 vlineto
            -59 -17 -71 -69 -58 vhcurveto
            -41 -35 -3 -55 -24 vvcurveto
            return
          </CharString>
          <CharString index="149">
            733 21 -21 return
          </CharString>
          <CharString index="150">
            -14 -10 0 -13 -9 hvcurveto
            -160 -246 rlineto
            -6 -9 0 -2 -10 vvcurveto
            -15 vlineto
            -20 5 -9 30 vhcurveto
            162 -63 hlineto
            -19 5 -10 29 vhcurveto
            return
          </CharString>
          <CharString index="151">
            131 62 callsubr
            return
          </CharString>
          <CharString index="152">
            -25 -32 -14 -32 -37 64 callsubr
            return
          </CharString>
          <CharString index="153">
            733 -11 60 callsubr
            return
          </CharString>
          <CharString index="154">
            733 15 callsubr
            return
          </CharString>
          <CharString index="155">
            -21 157 -20 hstem
            return
          </CharString>
          <CharString index="156">
            -33 39 55 -25 87 hhcurveto
            51 48 10 28 51 hvcurveto
            28 14 0 4 8 vvcurveto
            7 -3 29 -1 8 vhcurveto
            31 -4 -1 1 -9 hhcurveto
            return
          </CharString>
          <CharString index="157">
            108 callsubr
            -77 callsubr
            -35 vlineto
            -36 11 -12 37 124 callsubr
            endchar
          </CharString>
          <CharString index="158">
            17 callsubr
            225 -20 return
          </CharString>
          <CharString index="159">
            59 callsubr
            hstemhm
            return
          </CharString>
          <CharString index="160">
            hstemhm
            37 136 190 136 -133 133 return
          </CharString>
          <CharString index="161">
            132 154 132 return
          </CharString>
          <CharString index="162">
            660 153 rmoveto
            37 -30 31 -38 -38 -30 -31 -37 -22 -19 -17 -23 -26 -25 5 6 -25 vhcurveto
            -39 9 -39 8 -39 5 return
          </CharString>
          <CharString index="163">
            11 0 16 vhcurveto
            return
          </CharString>
          <CharString index="164">
            286 -205 84 579 -20 return
          </CharString>
          <CharString index="165">
            611 -22 109 526 103 return
          </CharString>
          <CharString index="166">
            23 callgsubr
            694 -20 return
          </CharString>
          <CharString index="167">
            100 141 95 281 100 return
          </CharString>
          <CharString index="168">
            31 136 215 136 return
          </CharString>
          <CharString index="169">
            hstem
            87 131 vstem
            218 return
          </CharString>
          <CharString index="170">
            732 342 rmoveto
            79 -13 97 -56 71 vhcurveto
            93 -75 -120 12 -65 hhcurveto
            -264 -51 callsubr
            return
          </CharString>
          <CharString index="171">
            -52 callgsubr
            -11 36 -1 7 -12 7 -7 -2 rlinecurve
            return
          </CharString>
          <CharString index="172">
            694 139 callgsubr
            hstem
            0 74 return
          </CharString>
          <CharString index="173">
            hstem
            244 68 110 68 vstem
            422 return
          </CharString>
          <CharString index="174">
            vlineto
            -7 5 -6 7 vhcurveto
            return
          </CharString>
          <CharString index="175">
            -71 callsubr
            -36 -12 -11 -37 hvcurveto
            return
          </CharString>
          <CharString index="176">
            hvcurveto
            -28 vlineto
            -20 16 -16 20 vhcurveto
            return
          </CharString>
          <CharString index="177">
            422 -11 78 337 71 return
          </CharString>
          <CharString index="178">
            794 -22 80 581 77 return
          </CharString>
          <CharString index="179">
            149 callgsubr
            127 130 134 147 hintmask 01111100
            538 return
          </CharString>
          <CharString index="180">
            -61 callgsubr
            rrcurveto
            return
          </CharString>
          <CharString index="181">
            647 49 rmoveto
            12 -5 52 -1 14 vhcurveto
            8 -1 -2 10 -10 hhcurveto
            -4 -2 0 -11 -13 hvcurveto
            return
          </CharString>
          <CharString index="182">
            vhcurveto
            -275 vlineto
            return
          </CharString>
          <CharString index="183">
            4 callgsubr
            56 vlineto
            82 callsubr
            return
          </CharString>
          <CharString index="184">
            38 -10 12 -40 vhcurveto
            -36 hlineto
            -38 -12 -10 -40 hvcurveto
            return
          </CharString>
          <CharString index="185">
            hstem
            91 147 317 147 vstem
            return
          </CharString>
          <CharString index="186">
            113 callgsubr
            hvcurveto
            return
          </CharString>
          <CharString index="187">
            5 5 6 1 hvcurveto
            return
          </CharString>
          <CharString index="188">
            vvcurveto
            -12 0 -20 1 -3 vhcurveto
            -8 4 6 0 17 hhcurveto
            49 hlineto
            27 1 1 26 hvcurveto
            return
          </CharString>
          <CharString index="189">
            12 36 0 36 return
          </CharString>
          <CharString index="190">
            103 -44 41 -102 return
          </CharString>
          <CharString index="191">
            376 151 rmoveto
            -126 hlineto
            115 177 7 18 4 10 rrcurveto
            endchar
          </CharString>
          <CharString index="192">
            476 0 73 312 73 return
          </CharString>
          <CharString index="193">
            598 102 callsubr
            return
          </CharString>
          <CharString index="194">
            rmoveto
            0 callsubr
            return
          </CharString>
          <CharString index="195">
            362 -63 callsubr
            -362 vlineto
            return
          </CharString>
          <CharString index="196">
            -100 callsubr
            -136 return
          </CharString>
          <CharString index="197">
            427 149 rmoveto
            497 vlineto
            return
          </CharString>
          <CharString index="198">
            hlineto
            97 callsubr
            return
          </CharString>
          <CharString index="199">
            83 -21 129 -20 hstemhm
            return
          </CharString>
          <CharString index="200">
            12 53 147 -133 140 68 140 -117 147 hintmask 00100110
            return
          </CharString>
          <CharString index="201">
            -10 -25 0 -22 -21 25 0 10 hvcurveto
            205 hlineto
            8 27 0 21 hvcurveto
            return
          </CharString>
          <CharString index="202">
            rmoveto
            22 -9 6 -26 vhcurveto
            -30 240 hlineto
            21 -8 7 -26 vhcurveto
            -53 hlineto
            return
          </CharString>
          <CharString index="203">
            hstemhm
            60 136 11 147 10 136 return
          </CharString>
          <CharString index="204">
            13 11 11 13 hvcurveto
            return
          </CharString>
          <CharString index="205">
            -13 11 -11 13 vhcurveto
            return
          </CharString>
          <CharString index="206">
            hlineto
            20 1 1 return
          </CharString>
          <CharString index="207">
            136 -136 143 177 143 -136 136 hintmask 11011000
            return
          </CharString>
          <CharString index="208">
            -37 -38 -27 -40 -44 -39 hvcurveto
            -137 -122 rlineto
            -7 -6 0 -1 return
          </CharString>
          <CharString index="209">
            68 callsubr
            -598 vlineto
            return
          </CharString>
          <CharString index="210">
            20 16 16 20 return
          </CharString>
          <CharString index="211">
            vlineto
            7 -27 27 -67 14 -35 70 -171 rcurveline
            -26 11 14 0 return
          </CharString>
          <CharString index="212">
            hvcurveto
            -80 122 callsubr
            return
          </CharString>
          <CharString index="213">
            hlineto
            -6 -5 -4 -7 -2 hvcurveto
            -10 -60 rlineto
            -9 6 -6 7 vhcurveto
            return
          </CharString>
          <CharString index="214">
            19 -71 callsubr
            return
          </CharString>
          <CharString index="215">
            35 -99 callgsubr
            -35 hlineto
            return
          </CharString>
          <CharString index="216">
            581 0 101 593 -20 return
          </CharString>
          <CharString index="217">
            61 147 377 147 return
          </CharString>
          <CharString index="218">
            73 -21 127 -20 hstemhm
            return
          </CharString>
          <CharString index="219">
            hstemhm
            141 callgsubr
            return
          </CharString>
          <CharString index="220">
            550 531 -21 return
          </CharString>
          <CharString index="221">
            rmoveto
            13 -10 0 -16 vhcurveto
            -18 hlineto
            -21 -1 -1 -20 -13 hvcurveto
            return
          </CharString>
          <CharString index="222">
            hlineto
            -18 -7 -6 -19 hvcurveto
            -308 vlineto
            -19 6 -6 19 vhcurveto
            return
          </CharString>
          <CharString index="223">
            733 -213 87 40 86 151 86 330 127 return
          </CharString>
          <CharString index="224">
            hstemhm
            31 129 return
          </CharString>
          <CharString index="225">
            hhcurveto
            -10 -2 -9 return
          </CharString>
          <CharString index="226">
            703 -22 100 490 100 -52 100 153 callsubr
            return
          </CharString>
          <CharString index="227">
            -5 callsubr
            -49 callsubr
            return
          </CharString>
          <CharString index="228">
            45 68 45 hstem
            -385 68 110 68 vstem
            -207 return
          </CharString>
          <CharString index="229">
            vlineto
            -21 -35 0 -36 -36 34 0 22 hvcurveto
            -338 vlineto
            return
          </CharString>
          <CharString index="230">
            12 13 30 23 46 hhcurveto
            101 0 -92 -75 hvcurveto
            endchar
          </CharString>
          <CharString index="231">
            vhcurveto
            35 -100 callsubr
            return
          </CharString>
          <CharString index="232">
            -6 1 -6 hhcurveto
            -4 -5 -1 -1 return
          </CharString>
          <CharString index="233">
            15 callsubr
            72 103 hstemhm
            return
          </CharString>
          <CharString index="234">
            13 -11 11 -13 vhcurveto
            return
          </CharString>
          <CharString index="235">
            hstemhm
            41 130 -31 68 110 68 -48 136 return
          </CharString>
          <CharString index="236">
            -27 -19 20 -38 34 hhcurveto
            15 12 7 12 8 hvcurveto
            return
          </CharString>
          <CharString index="237">
            45 68 45 179 -20 return
          </CharString>
          <CharString index="238">
            vvcurveto
            -12 7 -6 14 vhcurveto
            5 5 1 5 hhcurveto
            return
          </CharString>
          <CharString index="239">
            525 -213 87 115 72 348 66 return
          </CharString>
          <CharString index="240">
            -21 106 44 callsubr
            return
          </CharString>
          <CharString index="241">
            1 hvcurveto
            29 300 rlineto
            3 1 2 3 vvcurveto
            return
          </CharString>
          <CharString index="242">
            703 -11 100 517 100 return
          </CharString>
          <CharString index="243">
            256 15 callsubr
            return
          </CharString>
          <CharString index="244">
            -229 -21 1000 -20 hstem
            return
          </CharString>
          <CharString index="245">
            -13 -11 -11 -13 hvcurveto
            return
          </CharString>
          <CharString index="246">
            550 545 93 return
          </CharString>
          <CharString index="247">
            794 21 -21 return
          </CharString>
          <CharString index="248">
            24 0 48 hvcurveto
            return
          </CharString>
          <CharString index="249">
            -20 21 -20 hstemhm
            return
          </CharString>
          <CharString index="250">
            hlineto
            -35 -12 -17 -25 -25 12 -17 35 hvcurveto
            return
          </CharString>
          <CharString index="251">
            -8 62 -48 94 124 49 55 80 vhcurveto
            return
          </CharString>
          <CharString index="252">
            31 3 33 46 34 16 -17 -14 11 vhcurveto
            return
          </CharString>
          <CharString index="253">
            hstemhm
            31 136 34 147 34 136 return
          </CharString>
          <CharString index="254">
            hlineto
            -28 -22 -15 -20 -19 22 -16 28 hvcurveto
            return
          </CharString>
          <CharString index="255">
            hlineto
            10 0 43 -42 -42 0 -43 -10 vhcurveto
            return
          </CharString>
          <CharString index="256">
            29 -20 27 -37 -21 -24 -9 -10 -20 vhcurveto
            return
          </CharString>
          <CharString index="257">
            -216 94 267 74 214 89 hstemhm
            return
          </CharString>
          <CharString index="258">
            94 143 72 69 89 182 89 hstemhm
            return
          </CharString>
          <CharString index="259">
            0 72 503 72 -59 59 69 -20 hstemhm
            return
          </CharString>
          <CharString index="260">
            hstemhm
            61 147 return
          </CharString>
          <CharString index="261">
            rlineto
            5 13 0 return
          </CharString>
        <CharString name=".notdef">
          280 endchar
        </CharString>
        <CharString name="A">
          -34 callgsubr
          hstem
          -107 callsubr
          endchar
        </CharString>
        <CharString name="AE">
          85 callgsubr
          hstem
          461 146 vstem
          -53 callgsubr
          endchar
        </CharString>
        <CharString name="AE.dup">
          85 callgsubr
          hstem
          461 146 vstem
          -53 callgsubr
          endchar
        </CharString>
        <CharString name="AEacute">
          85 callgsubr
          92 callsubr
          461 146 hintmask 11110010
          -53 callgsubr
          hintmask 00001100
          212 268 -98 callsubr
        </CharString>
        <CharString name="Aacute">
          -34 callgsubr
          103 -21 129 -100 callgsubr
          195 344 -98 callsubr
        </CharString>
        <CharString name="Abreve">
          -34 callgsubr
          82 93 49 -100 callgsubr
          -2 callgsubr
          endchar
        </CharString>
        <CharString name="Abreveacute">
          -34 callgsubr
          82 93 228 -100 callgsubr
          -2 callgsubr
          -41 194 -98 callsubr
        </CharString>
        <CharString name="Abrevedotbelow">
          -34 callgsubr
          82 93 49 -20 112 callsubr
          hintmask 11111000
          -107 callsubr
          -2 callgsubr
          hintmask 00000100
          -116 -1012 rmoveto
          -105 callsubr
          endchar
        </CharString>
        <CharString name="Abrevegrave">
          -34 callgsubr
          82 93 49 -100 callgsubr
          -2 callgsubr
          -39 108 -51 callgsubr
        </CharString>
        <CharString name="Abrevehookabove">
          -34 callgsubr
          82 93 285 -100 callgsubr
          -2 callgsubr
          -81 200 rmoveto
          -107 callgsubr
        </CharString>
        <CharString name="Abrevetilde">
          -34 callgsubr
          82 93 119 72 -13 72 -104 callgsubr
          hintmask 00010100
          -2 callgsubr
          -6 222 -37 callgsubr
        </CharString>
        <CharString name="Acaron">
          17 callgsubr
          127 -67 callsubr
          335 -93 callsubr
        </CharString>
        <CharString name="Acircumflex">
          17 callgsubr
          127 -67 callsubr
          250 -106 callsubr
          endchar
        </CharString>
        <CharString name="Acircumflexacute">
          17 callgsubr
          306 -67 callsubr
          250 -106 callsubr
          -25 261 -98 callsubr
        </CharString>
        <CharString name="Acircumflexdotbelow">
          17 callgsubr
          127 -20 112 callsubr
          hintmask 11111000
          -107 callsubr
          168 250 -106 callsubr
          hintmask 00000100
          -99 -920 rmoveto
          -105 callsubr
          endchar
        </CharString>
        <CharString name="Acircumflexgrave">
          17 callgsubr
          127 -67 callsubr
          250 -106 callsubr
          -23 175 -51 callgsubr
        </CharString>
        <CharString name="Acircumflexhookabove">
          17 callgsubr
          363 -67 callsubr
          250 -106 callsubr
          42 267 rmoveto
          -107 callgsubr
        </CharString>
        <CharString name="Acircumflextilde">
          17 callgsubr
          197 72 -13 72 -104 callgsubr
          hintmask 00010100
          168 250 rmoveto
          -108 102 rlineto
          2 -2 -3 1 -3 hhcurveto
          -111 hlineto
          -3 -3 -1 -2 -2 hvcurveto
          -110 -104 rlineto
          -7 -8 5 -13 11 hhcurveto
          47 hlineto
          5 1 112 81 112 -81 5 -1 rlineto
          47 hlineto
          11 6 15 7 -8 hvcurveto
          10 289 -37 callgsubr
        </CharString>
        <CharString name="Adblgrave">
          -34 callgsubr
          103 -21 157 -100 callgsubr
          123 252 -101 callgsubr
        </CharString>
        <CharString name="Adieresis">
          -34 callgsubr
          72 103 hstemhm
          158 54 callsubr
          hintmask 11100000
          -107 callsubr
          hintmask 00011100
          -81 271 rmoveto
          -105 callgsubr
          286 hmoveto
          -105 callgsubr
          endchar
        </CharString>
        <CharString name="Adotbelow">
          -34 callgsubr
          112 callsubr
          hintmask 11100000
          -107 callsubr
          hintmask 00010000
          69 -670 rmoveto
          -105 callsubr
          endchar
        </CharString>
        <CharString name="Agrave">
          -34 callgsubr
          103 -21 129 -100 callgsubr
          94 258 -68 callgsubr
        </CharString>
        <CharString name="Ahookabove">
          17 callgsubr
          206 -100 callgsubr
          103 360 rmoveto
          -107 callgsubr
        </CharString>
        <CharString name="Alpha">
          -34 callgsubr
          hstem
          -107 callsubr
          endchar
        </CharString>
        <CharString name="Amacron">
          -34 callgsubr
          92 85 -104 callgsubr
          hintmask 00010000
          195 275 rmoveto
          -91 callgsubr
        </CharString>
        <CharString name="Aogonek">
          116 callsubr
          hstem
          81 99 78 99 146 99 vstem
          -31 callgsubr
          endchar
        </CharString>
        <CharString name="Aogonekacute">
          116 callsubr
          92 callsubr
          81 99 78 99 146 99 hintmask 1111001110000000
          -31 callgsubr
          hintmask 0000110000000000
          195 344 -98 callsubr
        </CharString>
        <CharString name="Aring">
          -38 callsubr
          45 68 45 hstemhm
          244 68 110 68 hintmask 11100000
          -107 callsubr
          hintmask 00111100
          51 255 -50 callsubr
        </CharString>
        <CharString name="Aringacute">
          -38 callsubr
          130 callsubr
          hstemhm
          244 68 110 68 hintmask 11100000
          -107 callsubr
          hintmask 00111110
          51 255 -73 callsubr
          25 236 -98 callsubr
        </CharString>
        <CharString name="Atilde">
          -34 callgsubr
          72 72 -13 72 -104 callgsubr
          hintmask 00001000
          179 342 -87 callsubr
        </CharString>
        <CharString name="B">
          -25 callgsubr
        </CharString>
        <CharString name="Beta">
          -25 callgsubr
        </CharString>
        <CharString name="C">
          135 callsubr
          hstem
          61 147 vstem
          -82 callsubr
          endchar
        </CharString>
        <CharString name="Cacute">
          135 callsubr
          71 -21 129 140 callgsubr
          hintmask 11001000
          -82 callsubr
          hintmask 00110000
          -60 804 -98 callsubr
        </CharString>
        <CharString name="Ccaron">
          135 callsubr
          61 -21 127 140 callgsubr
          hintmask 11001000
          -82 callsubr
          hintmask 00110000
          -87 795 -93 callsubr
        </CharString>
        <CharString name="Ccedilla">
          119 callsubr
          hintmask 10110000
          74 callsubr
          -40 -55 -35 -16 -87 hhcurveto
          -182 -42 125 144 94 14 175 206 76 43 -23 -36 43 hvcurveto
          55 callgsubr
          hintmask 10110000
          15 -42 -49 14 -86 hhcurveto
          -255 -113 -135 -234 -258 136 -111 233 83 41 10 35 65 hvcurveto
          27 15 1 1 10 vvcurveto
          -207 -108 rmoveto
          -48 callgsubr
        </CharString>
        <CharString name="Ccircumflex">
          135 callsubr
          61 -21 127 140 callgsubr
          hintmask 11001000
          -82 callsubr
          hintmask 00110000
          -87 710 -106 callsubr
          endchar
        </CharString>
        <CharString name="Cdotaccent">
          135 callsubr
          40 115 153 callsubr
          105 147 hintmask 11010000
          -82 callsubr
          hintmask 00101000
          -186 736 rmoveto
          -105 callsubr
          endchar
        </CharString>
        <CharString name="Chi">
          -22 callgsubr
        </CharString>
        <CharString name="D">
          794 0 86 522 86 hstem
          138 callgsubr
          vstem
          -47 callsubr
          endchar
        </CharString>
        <CharString name="Dcaron">
          794 0 86 522 86 111 callsubr
          138 callgsubr
          hintmask 11001100
          -47 callsubr
          hintmask 00110000
          -117 511 -93 callsubr
        </CharString>
        <CharString name="Dcroat">
          -22 callsubr
        </CharString>
        <CharString name="Ddotbelow">
          794 0 86 522 86 hstemhm
          91 144 -10 147 216 144 hintmask 11101000
          -47 callsubr
          hintmask 00010000
          -216 -494 rmoveto
          -105 callsubr
          endchar
        </CharString>
        <CharString name="Delta">
          917 0 132 562 -20 hstem
          60 796 vstem
          856 25 rmoveto
          4 0 2 -6 12 vhcurveto
          -279 612 rlineto
          39 -18 -31 0 -19 hhcurveto
          -90 hlineto
          -19 -31 0 -39 -18 hvcurveto
          -278 -610 rlineto
          -7 -14 0 -2 -4 vvcurveto
          -25 25 0 13 vhcurveto
          720 hlineto
          13 25 0 25 hvcurveto
          -208 107 rmoveto
          -402 hlineto
          201 440 rlineto
          endchar
        </CharString>
        <CharString name="Dlinebelow">
          794 -184 85 99 86 522 86 hstemhm
          138 callgsubr
          hintmask 01111000
          -47 callsubr
          hintmask 10000000
          -90 -499 rmoveto
          -91 callgsubr
        </CharString>
        <CharString name="E">
          -39 callsubr
          hstem
          91 147 vstem
          -103 callsubr
          endchar
        </CharString>
        <CharString name="Eacute">
          -39 callsubr
          86 -21 129 -89 callsubr
          -75 814 -98 callsubr
        </CharString>
        <CharString name="Ebreve">
          -39 callsubr
          65 93 49 -89 callsubr
          -85 812 -92 callgsubr
        </CharString>
        <CharString name="Ecaron">
          -39 callsubr
          76 -21 127 -56 callgsubr
          805 -93 callsubr
        </CharString>
        <CharString name="Ecircumflex">
          -39 callsubr
          76 -21 127 -56 callgsubr
          720 -106 callsubr
          endchar
        </CharString>
        <CharString name="Ecircumflexacute">
          -39 callsubr
          76 -21 306 -56 callgsubr
          720 -106 callsubr
          -25 261 -98 callsubr
        </CharString>
        <CharString name="Ecircumflexdotbelow">
          -39 callsubr
          76 -21 127 -20 3 callgsubr
          9 147 hintmask 11111100
          -103 callsubr
          -102 720 -106 callsubr
          hintmask 00000010
          -99 -920 rmoveto
          -105 callsubr
          endchar
        </CharString>
        <CharString name="Ecircumflexgrave">
          -39 callsubr
          76 -21 127 -56 callgsubr
          720 -106 callsubr
          -23 175 -51 callgsubr
        </CharString>
        <CharString name="Ecircumflexhookabove">
          -39 callsubr
          76 -21 363 -56 callgsubr
          720 -106 callsubr
          42 267 rmoveto
          -107 callgsubr
        </CharString>
        <CharString name="Ecircumflextilde">
          -39 callsubr
          76 -21 197 136 callgsubr
          hintmask 11100010
          -103 callsubr
          hintmask 00010100
          -102 720 rmoveto
          -108 102 rlineto
          2 -2 -3 1 -3 hhcurveto
          -111 hlineto
          -3 -3 -1 -2 -2 hvcurveto
          -110 -104 rlineto
          -7 -8 5 -13 11 hhcurveto
          47 hlineto
          5 1 112 81 112 -81 5 -1 rlineto
          47 hlineto
          11 6 15 7 -8 hvcurveto
          10 289 -37 callgsubr
        </CharString>
        <CharString name="Edblgrave">
          -39 callsubr
          86 -21 157 -89 callsubr
          -116 722 -101 callgsubr
        </CharString>
        <CharString name="Edieresis">
          -39 callsubr
          55 103 3 callgsubr
          -126 54 callsubr
          hintmask 11101000
          -103 callsubr
          hintmask 00010110
          -351 741 rmoveto
          -105 callgsubr
          286 hmoveto
          -105 callgsubr
          endchar
        </CharString>
        <CharString name="Edotaccent">
          -39 callsubr
          55 115 3 callgsubr
          9 147 hintmask 11101000
          -103 callsubr
          hintmask 00010100
          -201 746 rmoveto
          -105 callsubr
          endchar
        </CharString>
        <CharString name="Edotbelow">
          -39 callsubr
          3 callgsubr
          9 147 hintmask 11110000
          -103 callsubr
          hintmask 00001000
          -201 -200 rmoveto
          -105 callsubr
          endchar
        </CharString>
        <CharString name="Egrave">
          -39 callsubr
          86 -21 129 -89 callsubr
          -176 728 -68 callgsubr
        </CharString>
        <CharString name="Ehookabove">
          -39 callsubr
          76 -21 206 -89 callsubr
          -167 830 rmoveto
          -107 callgsubr
        </CharString>
        <CharString name="Emacron">
          -39 callsubr
          75 85 3 callgsubr
          hintmask 11101000
          -103 callsubr
          hintmask 00010000
          -75 745 rmoveto
          -91 callgsubr
        </CharString>
        <CharString name="Eng">
          140 callsubr
          580 136 hstemhm
          91 99 -51 99 317 148 hintmask 01100000
          703 347 rmoveto
          188 -97 181 -169 -73 -70 -20 -36 -57 vhcurveto
          23 -2 -10 11 -35 hhcurveto
          hintmask 00010000
          -51 hlineto
          hintmask 00100000
          -88 callgsubr
          -598 vlineto
          hintmask 10010000
          -81 callgsubr
          hintmask 10100000
          51 hlineto
          hintmask 01011000
          38 10 13 35 hvcurveto
          408 vlineto
          76 22 86 48 91 hhcurveto
          96 22 -121 -112 -92 -15 -99 -59 -31 hvcurveto
          -23 -13 -21 -18 -25 vvcurveto
          -46 vlineto
          -25 21 -20 24 5 vhcurveto
          141 29 80 165 170 vvcurveto
          endchar
        </CharString>
        <CharString name="Eogonek">
          103 callgsubr
          3 callgsubr
          -99 99 123 99 -52 99 hintmask 0011110000000000
          595 48 rmoveto
          14 vlineto
          48 -23 0 -33 vhcurveto
          -155 -2 -146 -2 rlineto
          205 263 vlineto
          31 17 7 40 37 -13 10 -35 hvcurveto
          -263 185 49 152 callgsubr
          -29 callsubr
          hintmask 0000101000000000
          -393 hlineto
          hintmask 0000010000000000
          -88 callgsubr
          -595 vlineto
          hintmask 0010001010000000
          -81 callgsubr
          269 hlineto
          hintmask 0100000100000000
          -35 -34 -12 -34 -44 -52 callgsubr
          hintmask 1000000100000000
          73 callsubr
          hintmask 0010000010000000
          1 32 13 34 33 20 rrcurveto
          -49 callsubr
          endchar
        </CharString>
        <CharString name="Eogonekacute">
          103 callgsubr
          86 -21 129 -20 3 callgsubr
          -99 99 123 99 -52 99 hintmask 0011100100000000
          595 48 rmoveto
          14 vlineto
          48 -23 0 -33 vhcurveto
          -155 -2 -146 -2 rlineto
          205 263 vlineto
          31 17 7 40 37 -13 10 -35 hvcurveto
          -263 185 49 152 callgsubr
          -29 callsubr
          hintmask 0000100010000000
          -393 hlineto
          hintmask 0000000100000000
          -88 callgsubr
          -595 vlineto
          hintmask 0010000010100000
          -81 callgsubr
          269 hlineto
          hintmask 0100000001000000
          -35 -34 -12 -34 -44 -52 callgsubr
          hintmask 1000000001000000
          73 callsubr
          hintmask 0010000000100000
          1 32 13 34 33 20 rrcurveto
          -49 callsubr
          hintmask 0000011000000000
          -75 814 -98 callsubr
        </CharString>
        <CharString name="Epsilon">
          -39 callsubr
          hstem
          91 147 vstem
          -103 callsubr
          endchar
        </CharString>
        <CharString name="Ereversed">
          -39 callsubr
          hstem
          448 147 vstem
          595 48 rmoveto
          595 vlineto
          37 -12 11 -36 vhcurveto
          -393 hlineto
          -41 -7 -16 -32 hvcurveto
          -8 vlineto
          -48 23 0 35 vhcurveto
          235 3 rlineto
          49 -185 -263 hlineto
          -35 -13 -10 -37 -40 17 -7 31 hvcurveto
          263 -205 hlineto
          -146 2 -155 2 rlineto
          -33 -23 0 -48 hvcurveto
          -14 vlineto
          -35 10 -13 38 vhcurveto
          408 hlineto
          37 11 12 36 hvcurveto
          endchar
        </CharString>
        <CharString name="Eta">
          36 callsubr
          78 callsubr
          -74 callsubr
          endchar
        </CharString>
        <CharString name="Eth">
          -22 callsubr
        </CharString>
        <CharString name="Etilde">
          -39 callsubr
          55 72 -13 72 -91 callsubr
          hintmask 00001000
          -91 812 -87 callsubr
        </CharString>
        <CharString name="Euro">
          658 222 86 -11 100 -11 86 hstem
          122 148 166 148 cntrmask 11100000
          603 48 rmoveto
          -8 86 rlineto
          6 -6 6 -6 -4 -4 -2 -3 -2 vhcurveto
          -40 -34 -50 -23 -53 hhcurveto
          -49 -48 23 42 -26 hvcurveto
          -16 24 -10 27 -6 28 rrcurveto
          208 hlineto
          6 80 callsubr
          11 60 rlineto
          9 -6 6 -7 vhcurveto
          -228 hlineto
          -1 39 1 39 rlineto
          246 hlineto
          7 80 callsubr
          11 60 rlineto
          9 -6 6 -7 vhcurveto
          -247 hlineto
          6 28 10 27 16 25 rrcurveto
          42 26 48 22 49 hhcurveto
          45 43 -23 -38 24 hvcurveto
          -3 3 4 -3 4 hhcurveto
          7 80 callsubr
          19 107 1 5 -3 6 -5 3 rlinecurve
          23 -46 -50 12 -52 hhcurveto
          -89 -90 -26 -67 -57 hvcurveto
          -36 -44 -21 -52 -10 -55 rrcurveto
          -54 106 callsubr
          54 hlineto
          -1 -39 1 -39 rlineto
          -44 106 callsubr
          64 hlineto
          10 -55 21 -52 36 -43 rrcurveto
          -68 57 90 -26 89 hhcurveto
          59 58 21 38 45 hvcurveto
          4 3 1 4 4 vvcurveto
          endchar
        </CharString>
        <CharString name="F">
          611 21 -21 299 94 194 104 hstem
          91 147 vstem
          564 635 rmoveto
          -29 callsubr
          -377 -49 callgsubr
          51 -100 callsubr
          251 232 vlineto
          31 17 7 40 37 -13 10 -35 hvcurveto
          -232 197 43 hlineto
          226 -3 rlineto
          34 23 0 48 hvcurveto
          endchar
        </CharString>
        <CharString name="G">
          46 callsubr
          hstem
          61 147 314 136 vstem
          -97 callsubr
          endchar
        </CharString>
        <CharString name="Gacute">
          46 callsubr
          71 -21 129 140 callgsubr
          314 136 hintmask 11100110
          -97 callsubr
          hintmask 00011000
          -92 812 -98 callsubr
        </CharString>
        <CharString name="Gamma">
          581 21 -21 587 104 hstem
          91 147 vstem
          534 635 rmoveto
          -29 callsubr
          -347 -49 callgsubr
          51 -100 callsubr
          542 32 vlineto
          209 -3 rlineto
          32 23 0 48 hvcurveto
          endchar
        </CharString>
        <CharString name="Gbreve">
          46 callsubr
          50 93 49 140 callgsubr
          314 136 hintmask 11100110
          -97 callsubr
          hintmask 00011000
          -102 810 -92 callgsubr
        </CharString>
        <CharString name="Gcaron">
          46 callsubr
          61 -21 127 140 callgsubr
          314 136 hintmask 11100110
          -97 callsubr
          hintmask 00011000
          -119 803 -93 callsubr
        </CharString>
        <CharString name="Gcedilla">
          733 -2 callsubr
          68 60 callsubr
          hstem
          61 147 314 136 vstem
          -97 callsubr
          -232 -223 -103 callgsubr
        </CharString>
        <CharString name="Gcircumflex">
          46 callsubr
          61 -21 127 140 callgsubr
          314 136 hintmask 11100110
          -97 callsubr
          hintmask 00011000
          -119 718 -106 callsubr
          endchar
        </CharString>
        <CharString name="Gcommaaccent">
          733 -2 callsubr
          68 60 callsubr
          153 callsubr
          314 136 hintmask 00111110
          -97 callsubr
          hintmask 11000000
          -232 -223 -103 callgsubr
        </CharString>
        <CharString name="Gdotaccent">
          46 callsubr
          40 115 153 callsubr
          85 147 82 136 hintmask 11101010
          -97 callsubr
          hintmask 00010100
          -218 744 rmoveto
          -105 callsubr
          endchar
        </CharString>
        <CharString name="H">
          36 callsubr
          78 callsubr
          -74 callsubr
          endchar
        </CharString>
        <CharString name="H_uni0303">
          36 callsubr
          72 136 callgsubr
          317 147 hintmask 11100110
          -74 callsubr
          hintmask 00001000
          -122 812 -87 callsubr
        </CharString>
        <CharString name="Hbar">
          140 callsubr
          314 94 63 100 123 -20 78 callsubr
          793 507 rmoveto
          28 vlineto
          20 -16 16 -20 vhcurveto
          -55 75 35 callgsubr
          -51 hlineto
          -77 callsubr
          -75 -317 75 68 callsubr
          -75 -55 44 callgsubr
          55 -423 67 callgsubr
          51 -100 callsubr
          266 317 -266 2 callsubr
          423 55 vlineto
          98 callgsubr
          -238 -99 rmoveto
          -317 63 317 hlineto
          endchar
        </CharString>
        <CharString name="Hbrevebelow">
          794 -213 93 49 -20 112 -21 314 94 286 -20 3 callgsubr
          317 147 hintmask 00111110
          -74 callsubr
          hintmask 11000000
          -116 -157 -92 callgsubr
        </CharString>
        <CharString name="Hcircumflex">
          36 callsubr
          93 -21 127 -20 3 callgsubr
          317 147 hintmask 11100110
          -74 callsubr
          hintmask 00011000
          -133 720 -106 callsubr
          endchar
        </CharString>
        <CharString name="Hdieresis">
          36 callsubr
          72 103 3 callgsubr
          -50 54 callsubr
          -51 147 hintmask 11101001
          -74 callsubr
          hintmask 00010110
          -382 741 rmoveto
          -105 callgsubr
          286 hmoveto
          -105 callgsubr
          endchar
        </CharString>
        <CharString name="Hdotbelow">
          36 callsubr
          3 callgsubr
          85 147 85 147 hintmask 11110100
          -74 callsubr
          hintmask 00001000
          -232 -200 rmoveto
          -105 callsubr
          endchar
        </CharString>
        <CharString name="I">
          41 callgsubr
          hstem
          92 147 vstem
          239 48 rmoveto
          598 -84 callsubr
          51 -100 callsubr
          endchar
        </CharString>
        <CharString name="I_J">
          817 -22 100 616 -20 142 callgsubr
          149 56 callgsubr
          -96 144 hintmask 01100100
          239 48 rmoveto
          598 -84 callsubr
          51 -100 callsubr
          485 101 rmoveto
          497 vlineto
          hintmask 01001000
          -95 callgsubr
          -48 hlineto
          hintmask 10010100
          -48 callsubr
          endchar
        </CharString>
        <CharString name="Iacute">
          41 callgsubr
          103 -21 129 -20 142 callgsubr
          hintmask 11001000
          239 48 rmoveto
          598 -84 callsubr
          51 -100 callsubr
          hintmask 00110000
          156 814 -98 callsubr
        </CharString>
        <CharString name="Ibreve">
          41 callgsubr
          82 93 49 -20 142 callgsubr
          hintmask 11001000
          239 48 rmoveto
          598 -84 callsubr
          51 -100 callsubr
          hintmask 00110000
          115 812 -92 callgsubr
        </CharString>
        <CharString name="Icaron">
          41 callgsubr
          93 -21 127 -20 142 callgsubr
          hintmask 11001000
          239 48 rmoveto
          598 -84 callsubr
          51 -100 callsubr
          hintmask 00110000
          98 805 -93 callsubr
        </CharString>
        <CharString name="Icircumflex">
          41 callgsubr
          93 -21 127 -20 142 callgsubr
          hintmask 11001000
          239 48 rmoveto
          598 -84 callsubr
          51 -100 callsubr
          hintmask 00110000
          98 720 -106 callsubr
          endchar
        </CharString>
        <CharString name="Idblgrave">
          41 callgsubr
          103 -21 157 -20 142 callgsubr
          hintmask 11001000
          239 48 rmoveto
          598 -84 callsubr
          51 -100 callsubr
          hintmask 00111000
          84 722 -101 callgsubr
        </CharString>
        <CharString name="Idieresis">
          331 126 callsubr
          -44 132 4 147 3 132 hintmask 11001000
          239 48 rmoveto
          598 -84 callsubr
          51 -100 callsubr
          hintmask 00110100
          -151 741 rmoveto
          -105 callgsubr
          286 hmoveto
          -105 callgsubr
          endchar
        </CharString>
        <CharString name="Idieresisacute">
          41 callgsubr
          72 103 92 callsubr
          -44 132 4 147 3 132 hintmask 11000010
          239 48 rmoveto
          598 -84 callsubr
          51 -100 callsubr
          hintmask 00111101
          -151 741 rmoveto
          -105 callgsubr
          286 hmoveto
          -105 callgsubr
          -10 228 -98 callsubr
        </CharString>
        <CharString name="Idotaccent">
          41 callgsubr
          72 115 142 callgsubr
          hintmask 11010000
          239 48 rmoveto
          598 -84 callsubr
          51 -100 callsubr
          hintmask 00110000
          746 vmoveto
          -105 callsubr
          endchar
        </CharString>
        <CharString name="Idotbelow">
          41 callgsubr
          142 callgsubr
          vstemhm
          239 48 rmoveto
          598 -84 callsubr
          51 -100 callsubr
          hintmask 00100000
          -200 vmoveto
          -105 callsubr
          endchar
        </CharString>
        <CharString name="Igrave">
          41 callgsubr
          103 -21 129 -20 142 callgsubr
          hintmask 11001000
          239 48 rmoveto
          598 -84 callsubr
          51 -100 callsubr
          hintmask 00110000
          -6 728 -68 callgsubr
        </CharString>
        <CharString name="Ihookabove">
          41 callgsubr
          93 -21 206 -20 142 callgsubr
          hintmask 11001000
          239 48 rmoveto
          598 -84 callsubr
          51 -100 callsubr
          hintmask 00111000
          33 830 rmoveto
          -107 callgsubr
        </CharString>
        <CharString name="Imacron">
          41 callgsubr
          92 85 142 callgsubr
          hintmask 11010000
          239 48 rmoveto
          598 -84 callsubr
          51 -100 callsubr
          hintmask 00100000
          125 745 rmoveto
          -91 callgsubr
        </CharString>
        <CharString name="Imacron.alt">
          41 callgsubr
          92 85 142 callgsubr
          hintmask 11010000
          239 48 rmoveto
          598 -84 callsubr
          51 -100 callsubr
          hintmask 00100000
          33 745 -1 callgsubr
        </CharString>
        <CharString name="Iogonek">
          331 -213 87 147 43 callgsubr
          hstem
          92 147 vstem
          282 -162 rmoveto
          -61 callgsubr
          1 32 13 31 23 23 rrcurveto
          6 -100 callsubr
          86 callsubr
          -22 4 -13 11 -7 vhcurveto
          -36 -28 -22 -43 -47 84 callgsubr
        </CharString>
        <CharString name="Iogonekacute">
          331 -213 87 147 43 callgsubr
          103 -21 129 -20 142 callgsubr
          hintmask 11100100
          282 -162 rmoveto
          -61 callgsubr
          1 32 13 31 23 23 rrcurveto
          6 -100 callsubr
          86 callsubr
          -22 4 -13 11 -7 vhcurveto
          -36 -28 -22 -43 -47 -52 callgsubr
          hintmask 00011000
          113 1024 -98 callsubr
        </CharString>
        <CharString name="Iota">
          41 callgsubr
          hstem
          92 147 vstem
          239 48 rmoveto
          598 -84 callsubr
          51 -100 callsubr
          endchar
        </CharString>
        <CharString name="Itilde">
          41 callgsubr
          72 72 -13 72 142 callgsubr
          hintmask 11001000
          239 48 rmoveto
          598 -84 callsubr
          51 -100 callsubr
          hintmask 00010000
          109 812 -96 callgsubr
        </CharString>
        <CharString name="J">
          519 -22 100 616 -20 31 callgsubr
          -96 144 hintmask 00001000
          90 callsubr
          hintmask 01010000
          -95 callgsubr
          -48 hlineto
          hintmask 10101000
          -48 callsubr
          endchar
        </CharString>
        <CharString name="J_uni030C.cap">
          519.44444 -22 100 424 -21 95 118 31 callgsubr
          -96 144 hintmask 00000100
          90 callsubr
          hintmask 00101000
          -95 callgsubr
          -48 hlineto
          hintmask 11110100
          -48 callsubr
          159 451 -103 callgsubr
        </CharString>
        <CharString name="Jacute">
          519 -22 100 616 -20 103 -21 129 -20 31 callgsubr
          -96 144 hintmask 00000010
          90 callsubr
          hintmask 01000100
          -95 callgsubr
          -48 hlineto
          hintmask 10001010
          -48 callsubr
          hintmask 00110000
          159 713 -98 callsubr
        </CharString>
        <CharString name="Jcircumflex">
          519 -22 100 616 -20 93 -21 127 -20 31 callgsubr
          -96 144 hintmask 00000010
          90 callsubr
          hintmask 01000100
          -95 callgsubr
          -48 hlineto
          hintmask 10001010
          -48 callsubr
          hintmask 00110000
          100 619 -106 callsubr
          endchar
        </CharString>
        <CharString name="K">
          764 15 callsubr
          hstem
          91 130 vstem
          -57 callsubr
          endchar
        </CharString>
        <CharString name="Kappa">
          764 15 callsubr
          hstem
          91 130 vstem
          -57 callsubr
          endchar
        </CharString>
        <CharString name="Kcedilla">
          764 59 callsubr
          hstem
          91 130 vstem
          -57 callsubr
          -260 -202 -103 callgsubr
        </CharString>
        <CharString name="Kcommaaccent">
          764 52 callsubr
          91 130 hintmask 00111000
          -57 callsubr
          hintmask 11000000
          -260 -202 -103 callgsubr
        </CharString>
        <CharString name="L">
          109 callsubr
          hstem
          91 147 vstem
          -69 callsubr
          endchar
        </CharString>
        <CharString name="L_uni0303">
          109 callsubr
          72 136 callgsubr
          hintmask 11001000
          -69 callsubr
          hintmask 00010000
          -186 812 -80 callsubr
          hintmask 00101000
          -39 -4 -24 -5 -10 hhcurveto
          -16 -16 11 11 -15 hvcurveto
          hintmask 00010000
          15 -22 -31 22 -45 hhcurveto
          -71 -39 -65 -49 hvcurveto
          hintmask 00100000
          -17 8 0 19 vhcurveto
          18 hlineto
          20 5 0 15 2 hvcurveto
          hintmask 00010000
          39 4 24 5 10 hhcurveto
          16 16 -11 -11 15 hvcurveto
          hintmask 00101000
          -15 22 31 -22 45 hhcurveto
          71 39 65 49 hvcurveto
          endchar
        </CharString>
        <CharString name="Lacute">
          109 callsubr
          103 -21 129 -20 3 callgsubr
          hintmask 11001000
          -69 callsubr
          hintmask 00110000
          -140 814 -98 callsubr
        </CharString>
        <CharString name="Lambda">
          672 15 callsubr
          hstem
          40 591 vstem
          631 28 rmoveto
          3 -1 2 -4 13 vhcurveto
          -186 605 rlineto
          39 -12 -21 4 -28 hhcurveto
          -87 hlineto
          -27 -22 -3 -40 -12 hvcurveto
          -186 -605 rlineto
          -4 -13 -1 -2 -3 vvcurveto
          -28 28 0 13 vhcurveto
          35 hlineto
          26 23 3 40 12 hvcurveto
          85 281 38 135 21 76 2 15 1 14 rlinecurve
          1 hlineto
          2 -16 11 -43 4 -14 7 -30 5 -17 8 -28 112 -373 rcurveline
          -40 12 23 -3 26 hhcurveto
          55 hlineto
          13 28 0 28 hvcurveto
          endchar
        </CharString>
        <CharString name="Lcaron">
          581 0 101 401 -21 95 118 hstem
          91 147 vstem
          -69 callsubr
          -117 552 -103 callgsubr
        </CharString>
        <CharString name="Lcedilla">
          581 -2 callsubr
          79 101 593 -20 hstem
          91 147 vstem
          -69 callsubr
          -185 -221 -103 callgsubr
        </CharString>
        <CharString name="Lcommaaccent">
          581 -2 callsubr
          79 101 593 -20 3 callgsubr
          hintmask 00111000
          -69 callsubr
          hintmask 11000000
          -185 -221 -103 callgsubr
        </CharString>
        <CharString name="Ldot">
          581 0 101 210 115 268 -20 hstem
          91 147 143 147 vstem
          -69 callsubr
          -6 311 rmoveto
          -105 callsubr
          endchar
        </CharString>
        <CharString name="Ldotbelow">
          109 callsubr
          3 callgsubr
          -21 147 hintmask 11100000
          -69 callsubr
          hintmask 00010000
          -170 -200 rmoveto
          -105 callsubr
          endchar
        </CharString>
        <CharString name="Ldotbelowmacron">
          109 callsubr
          92 85 3 callgsubr
          -21 147 hintmask 11010000
          -69 callsubr
          -170 -200 rmoveto
          hintmask 00001000
          -105 callsubr
          hintmask 00101000
          945 vmoveto
          -91 callgsubr
        </CharString>
        <CharString name="Lslash">
          672 0 103 591 -20 hstemhm
          135 147 -99 147 hintmask 00010000
          626 48 rmoveto
          9 vlineto
          23 -1 25 -46 vhcurveto
          -249 -4 rlineto
          258 vlineto
          178 141 12 10 2 16 -10 12 rlinecurve
          -26 33 -9 12 -16 2 -13 -10 rlinecurve
          -118 -93 rlineto
          164 vlineto
          hintmask 01100000
          -95 callgsubr
          -51 hlineto
          hintmask 00010000
          -88 callgsubr
          -280 vlineto
          -107 -85 -12 -10 -2 -15 10 -12 rlinecurve
          26 -34 rlineto
          hintmask 00100000
          10 -12 15 -3 12 10 rrcurveto
          hintmask 10010000
          48 38 rlineto
          -195 -76 callsubr
          347 -100 callsubr
          endchar
        </CharString>
        <CharString name="M">
          -36 callsubr
        </CharString>
        <CharString name="Mdotbelow">
          978 111 callgsubr
          91 123 -48 123 126 147 201 123 hintmask 01010100
          886 -23 callsubr
          -84 hlineto
          -25 -25 -2 -41 -17 hvcurveto
          -132 -324 -21 -51 -37 -92 -8 -35 rlinecurve
          -1 hlineto
          -9 36 -41 99 -21 53 -128 316 rcurveline
          41 -17 -32 0 -18 hhcurveto
          -83 hlineto
          hintmask 10100000
          -86 callgsubr
          hintmask 10010000
          27 hlineto
          hintmask 10100100
          38 10 13 35 hvcurveto
          517 1 vlineto
          11 -45 45 -111 24 -59 116 -285 rcurveline
          -43 18 24 0 34 hhcurveto
          34 24 0 43 18 hvcurveto
          128 314 10 24 54 136 7 26 rlinecurve
          1 -517 hlineto
          -57 callgsubr
          27 -100 callsubr
          hintmask 00001000
          -324 -200 rmoveto
          -105 callsubr
          endchar
        </CharString>
        <CharString name="Mu">
          -36 callsubr
        </CharString>
        <CharString name="N">
          135 callgsubr
          hstem
          60 callgsubr
          vstem
          -84 callgsubr
          endchar
        </CharString>
        <CharString name="Nacute">
          135 callgsubr
          103 -21 129 -20 124 callgsubr
          hintmask 11001100
          -84 callgsubr
          hintmask 00110000
          -106 814 -98 callsubr
        </CharString>
        <CharString name="Ncaron">
          135 callgsubr
          93 -21 127 -20 124 callgsubr
          hintmask 11001100
          -84 callgsubr
          hintmask 00110000
          -133 805 -93 callsubr
        </CharString>
        <CharString name="Ncedilla">
          794 59 callsubr
          hstem
          60 callgsubr
          vstem
          -84 callgsubr
          -246 -221 -103 callgsubr
        </CharString>
        <CharString name="Ncommaaccent">
          794 52 callsubr
          91 123 365 123 hintmask 00111100
          -84 callgsubr
          hintmask 11000000
          -246 -221 -103 callgsubr
        </CharString>
        <CharString name="Ndotaccent">
          135 callgsubr
          72 115 hstemhm
          91 123 109 147 109 123 hintmask 11010100
          -84 callgsubr
          hintmask 00101000
          -232 746 rmoveto
          -105 callsubr
          endchar
        </CharString>
        <CharString name="Ndotbelow">
          135 callgsubr
          hstemhm
          91 123 109 147 109 123 hintmask 11101000
          -84 callgsubr
          hintmask 00010000
          -232 -200 rmoveto
          -105 callsubr
          endchar
        </CharString>
        <CharString name="Ntilde">
          135 callgsubr
          72 72 -13 72 124 callgsubr
          hintmask 11001100
          -84 callgsubr
          hintmask 00010000
          -122 812 -96 callgsubr
        </CharString>
        <CharString name="Nu">
          135 callgsubr
          hstem
          60 callgsubr
          vstem
          -84 callgsubr
          endchar
        </CharString>
        <CharString name="O">
          -9 callgsubr
          hstem
          58 callgsubr
          -98 callgsubr
          endchar
        </CharString>
        <CharString name="OE">
          -41 callgsubr
        </CharString>
        <CharString name="OE.dup">
          -41 callgsubr
        </CharString>
        <CharString name="Oacute">
          -9 callgsubr
          61 -21 129 -88 callsubr
          11 504 -98 callsubr
        </CharString>
        <CharString name="Obreve">
          -9 callgsubr
          40 93 49 -88 callsubr
          1 502 -92 callgsubr
        </CharString>
        <CharString name="Ocaron">
          -9 callgsubr
          51 -21 127 -50 callgsubr
          495 -93 callsubr
        </CharString>
        <CharString name="Ocircumflex">
          -9 callgsubr
          51 -21 127 -50 callgsubr
          410 -106 callsubr
          endchar
        </CharString>
        <CharString name="Ocircumflexacute">
          -9 callgsubr
          51 -21 306 -50 callgsubr
          410 -106 callsubr
          -25 261 -98 callsubr
        </CharString>
        <CharString name="Ocircumflexdotbelow">
          -9 callgsubr
          51 -21 127 140 callgsubr
          115 147 115 147 hintmask 11111010
          -98 callgsubr
          -16 410 -106 callsubr
          hintmask 00000100
          -99 -920 rmoveto
          -105 callsubr
          endchar
        </CharString>
        <CharString name="Ocircumflexgrave">
          -9 callgsubr
          51 -21 127 -50 callgsubr
          410 -106 callsubr
          -23 175 -51 callgsubr
        </CharString>
        <CharString name="Ocircumflexhookabove">
          -9 callgsubr
          51 -21 363 -50 callgsubr
          410 -106 callsubr
          42 267 rmoveto
          -107 callgsubr
        </CharString>
        <CharString name="Ocircumflextilde">
          -9 callgsubr
          51 -21 197 72 -13 72 hstemhm
          110 callsubr
          hintmask 11000110
          -98 callgsubr
          hintmask 00101000
          -16 410 rmoveto
          -108 102 rlineto
          2 -2 -3 1 -3 hhcurveto
          -111 hlineto
          -3 -3 -1 -2 -2 hvcurveto
          -110 -104 rlineto
          -7 -8 5 -13 11 hhcurveto
          47 hlineto
          5 1 112 81 112 -81 5 -1 rlineto
          47 hlineto
          11 6 15 7 -8 hvcurveto
          10 289 -87 callsubr
        </CharString>
        <CharString name="Odblgrave">
          -9 callgsubr
          61 -21 157 -88 callsubr
          -30 412 -101 callgsubr
        </CharString>
        <CharString name="Odieresis">
          -9 callgsubr
          30 103 153 callsubr
          -20 54 callsubr
          -21 147 hintmask 11010010
          -98 callgsubr
          hintmask 00101100
          -265 431 rmoveto
          -105 callgsubr
          286 hmoveto
          -105 callgsubr
          endchar
        </CharString>
        <CharString name="Odotbelow">
          -9 callgsubr
          153 callsubr
          115 147 115 147 hintmask 11101000
          -98 callgsubr
          hintmask 00010000
          -115 -510 rmoveto
          -105 callsubr
          endchar
        </CharString>
        <CharString name="Ograve">
          -9 callgsubr
          61 -21 129 -88 callsubr
          -90 418 -68 callgsubr
        </CharString>
        <CharString name="Ohookabove">
          -9 callgsubr
          51 -21 206 -88 callsubr
          -81 520 rmoveto
          -107 callgsubr
        </CharString>
        <CharString name="Ohorn">
          71 callsubr
          109 -20 hstemhm
          61 142 387 141 -107 131 hintmask 11110100
          -66 callgsubr
          hintmask 00001000
          66 72 17 102 99 vvcurveto
          99 -15 103 -65 75 vhcurveto
          99 78 rlineto
          hintmask 11010100
          -55 callsubr
          hintmask 00001000
          42 -60 4 -77 -73 vvcurveto
          endchar
        </CharString>
        <CharString name="Ohornacute">
          71 callsubr
          61 -21 69 -20 80 -64 callsubr
          -24 501 -98 callsubr
        </CharString>
        <CharString name="Ohorndotbelow">
          71 callsubr
          109 -20 hstemhm
          61 142 120 147 120 141 -107 131 hintmask 11110010
          -66 callgsubr
          hintmask 00000100
          66 72 17 102 99 vvcurveto
          99 -15 103 -65 75 vhcurveto
          99 78 rlineto
          hintmask 11010010
          -55 callsubr
          hintmask 00000100
          42 -60 4 -77 -73 vvcurveto
          hintmask 00001000
          -120 -513 rmoveto
          -105 callsubr
          endchar
        </CharString>
        <CharString name="Ohorngrave">
          71 callsubr
          61 -21 69 -20 80 -64 callsubr
          -95 415 -68 callgsubr
        </CharString>
        <CharString name="Ohornhookabove">
          71 callsubr
          51 -21 79 -20 147 -64 callsubr
          -86 517 rmoveto
          -107 callgsubr
        </CharString>
        <CharString name="Ohorntilde">
          71 callsubr
          30 114 callgsubr
          61 142 387 141 -107 131 hintmask 11001010
          -66 callgsubr
          hintmask 00000100
          66 72 17 102 99 vvcurveto
          99 -15 103 -65 75 vhcurveto
          99 78 rlineto
          hintmask 11001010
          -55 callsubr
          hintmask 00000100
          42 -60 4 -77 -73 vvcurveto
          hintmask 00010000
          -10 499 -96 callgsubr
        </CharString>
        <CharString name="Ohungarumlaut">
          -9 callgsubr
          61 -21 157 -88 callsubr
          -189 542 -83 callgsubr
        </CharString>
        <CharString name="Omacron">
          -9 callgsubr
          50 85 hstemhm
          110 callsubr
          hintmask 11011000
          -98 callgsubr
          hintmask 00100000
          11 435 rmoveto
          -91 callgsubr
        </CharString>
        <CharString name="Omega">
          -39 callgsubr
        </CharString>
        <CharString name="Omicron">
          -9 callgsubr
          hstem
          58 callgsubr
          -98 callgsubr
          endchar
        </CharString>
        <CharString name="Oogonek">
          -9 callgsubr
          hstem
          58 callgsubr
          -15 callgsubr
          endchar
        </CharString>
        <CharString name="Oogonekacute">
          -9 callgsubr
          61 -21 129 -20 hstemhm
          110 callsubr
          hintmask 11001100
          -15 callgsubr
          hintmask 00110000
          11 504 -98 callsubr
        </CharString>
        <CharString name="Orogate">
          794 58 callgsubr
          732 342 rmoveto
          191 -66 167 -233 15 vhcurveto
          138 vlineto
          20 -16 16 -20 -20 -16 -16 -20 vhcurveto
          -138 vlineto
          -246 -16 -54 -182 -175 vvcurveto
          -179 59 -169 241 -15 vhcurveto
          -137 vlineto
          -20 16 -16 20 103 callsubr
          vhcurveto
          137 vlineto
          229 15 70 153 195 vvcurveto
          -147 16 rmoveto
          -89 0 -211 -188 -189 0 209 91 88 0 192 188 189 0 -190 -90 vhcurveto
          endchar
        </CharString>
        <CharString name="Oslash">
          856 -65 -21 64 72 594 72 64 -20 hstem
          61 130 473 130 vstem
          -63 callgsubr
          endchar
        </CharString>
        <CharString name="Oslash.dup">
          856 -65 -21 64 72 594 72 64 -20 hstem
          61 130 473 130 vstem
          -63 callgsubr
          endchar
        </CharString>
        <CharString name="Oslashacute">
          856 -65 -21 64 72 594 72 61 -21 24 -20 125 -20 hstemhm
          61 130 473 130 hintmask 11101011
          -63 callgsubr
          hintmask 00010100
          -37 519 -98 callsubr
        </CharString>
        <CharString name="Otilde">
          -9 callgsubr
          30 72 -13 72 -90 callsubr
          hintmask 00010000
          -5 502 -96 callgsubr
        </CharString>
        <CharString name="P">
          2 callgsubr
        </CharString>
        <CharString name="Phi">
          140 callsubr
          106 75 332 75 -74 75 105 -20 hstemhm
          61 144 118 141 124 144 hintmask 11101111
          732 347 rmoveto
          174 -134 57 -134 10 vhcurveto
          58 -99 callgsubr
          -45 -51 callsubr
          -59 vlineto
          -129 -11 -133 -55 -174 vvcurveto
          -173 132 -56 130 -11 vhcurveto
          -59 -76 callsubr
          45 -100 callsubr
          58 vlineto
          132 10 136 56 175 vvcurveto
          -409 -166 rmoveto
          -111 20 -7 84 62 vvcurveto
          62 8 84 110 20 vhcurveto
          265 -166 rmoveto
          -58 -6 -91 -118 -18 vhcurveto
          hintmask 00010011
          334 vlineto
          119 -18 5 -91 -58 vvcurveto
          endchar
        </CharString>
        <CharString name="Pi">
          140 callsubr
          597 94 78 callsubr
          702 48 rmoveto
          595 -99 callgsubr
          -515 -49 callgsubr
          51 -100 callsubr
          549 317 -549 2 callsubr
          endchar
        </CharString>
        <CharString name="Psi">
          856 21 -21 548 71 75 -20 hstem
          113 141 100 141 106 141 vstem
          794 583 rmoveto
          36 -36 0 -12 vhcurveto
          -48 hlineto
          -97 0 -100 -105 -86 -9 -112 -97 -29 hvcurveto
          459 -99 callgsubr
          -45 -51 callsubr
          -459 vlineto
          -100 35 0 123 93 vvcurveto
          122 -20 59 -77 vhcurveto
          -48 hlineto
          -11 -37 0 -36 -6 2 -27 35 -3 hvcurveto
          10 -18 5 -27 -69 vvcurveto
          -89 1 -206 240 -30 vhcurveto
          -60 -76 callsubr
          45 -100 callsubr
          60 vlineto
          247 27 0 215 72 vvcurveto
          50 0 48 15 27 vhcurveto
          35 3 2 27 6 vvcurveto
          endchar
        </CharString>
        <CharString name="Q">
          794 -85 -21 84 78 582 78 hstem
          61 144 383 144 vstem
          -72 callsubr
          17 23 0 5 32 vhcurveto
          37 -54 rlineto
          -32 21 3 -3 33 hhcurveto
          80 hlineto
          13 23 0 22 8 -2 2 -13 18 hvcurveto
          -65 84 rlineto
          127 77 7 165 72 vvcurveto
          -144 1 rmoveto
          -63 0 -104 -56 -64 vhcurveto
          -55 71 rlineto
          11 -10 -4 0 -20 hhcurveto
          -61 hlineto
          -14 -22 0 -23 -11 32 -45 18 -25 hvcurveto
          3 -5 17 -24 -3 vvcurveto
          0 -16 -2 -4 -191 0 198 89 88 0 207 191 192 0 -206 -89 vhcurveto
          endchar
        </CharString>
        <CharString name="R">
          703 21 88 callgsubr
          hintmask 00101100
          -44 callsubr
          hintmask 11110100
          -80 callgsubr
          endchar
        </CharString>
        <CharString name="Racute">
          37 callgsubr
          83 -21 129 -20 20 callsubr
          hintmask 00100011
          -44 callsubr
          hintmask 11100101
          -80 callgsubr
          hintmask 00011000
          48 366 -98 callsubr
        </CharString>
        <CharString name="Rcaron">
          37 callgsubr
          73 -21 127 -20 20 callsubr
          hintmask 00100011
          -44 callsubr
          hintmask 11100101
          -80 callgsubr
          hintmask 00011000
          21 357 -93 callsubr
        </CharString>
        <CharString name="Rcedilla">
          703 -271 -21 95 118 100 88 callgsubr
          hintmask 00001011
          -44 callsubr
          hintmask 11111101
          -80 callgsubr
          -92 -669 -103 callgsubr
        </CharString>
        <CharString name="Rcommaaccent">
          703 -271 -21 95 118 100 88 callgsubr
          hintmask 00001011
          -44 callsubr
          hintmask 00111101
          -80 callgsubr
          hintmask 11000000
          -92 -669 -103 callgsubr
        </CharString>
        <CharString name="Rdblgrave">
          37 callgsubr
          83 -21 157 -20 20 callsubr
          hintmask 00100011
          -44 callsubr
          hintmask 11100101
          -80 callgsubr
          hintmask 00011000
          -23 274 -101 callgsubr
        </CharString>
        <CharString name="Rdotaccent">
          37 callgsubr
          52 115 31 callgsubr
          -101 147 77 139 hintmask 00100101
          -44 callsubr
          hintmask 11101001
          -80 callgsubr
          hintmask 00010010
          -77 298 rmoveto
          -105 callsubr
          endchar
        </CharString>
        <CharString name="Rdotbelow">
          37 callgsubr
          31 callgsubr
          -101 147 77 139 hintmask 00101010
          -44 callsubr
          hintmask 11110010
          -80 callgsubr
          hintmask 00000100
          -77 -648 rmoveto
          -105 callsubr
          endchar
        </CharString>
        <CharString name="Rdotbelowmacron">
          37 callgsubr
          72 85 31 callgsubr
          -101 147 77 139 hintmask 00100101
          -44 callsubr
          hintmask 11101011
          -80 callgsubr
          -77 -648 rmoveto
          -105 callsubr
          hintmask 00010000
          125 945 rmoveto
          -91 callgsubr
        </CharString>
        <CharString name="Rho">
          2 callgsubr
        </CharString>
        <CharString name="S">
          58 callsubr
          hstem
          62 callgsubr
          vstem
          549 200 rmoveto
          -99 callsubr
          endchar
        </CharString>
        <CharString name="S_S">
          1222 -22 109 526 103 hstem
          62 callgsubr
          123 125 238 125 vstem
          549 200 rmoveto
          -99 callsubr
          611 hmoveto
          -99 callsubr
          endchar
        </CharString>
        <CharString name="Sacute">
          58 callsubr
          61 -21 129 -20 hstemhm
          62 callgsubr
          hintmask 11001100
          549 200 rmoveto
          -99 callsubr
          hintmask 00110000
          -44 662 -98 callsubr
        </CharString>
        <CharString name="Scaron">
          58 callsubr
          51 -21 127 -20 hstemhm
          62 callgsubr
          hintmask 11001100
          549 200 rmoveto
          -99 callsubr
          hintmask 00110000
          -71 653 -93 callsubr
        </CharString>
        <CharString name="Scedilla">
          58 callsubr
          hstem
          62 callgsubr
          vstem
          549 200 rmoveto
          -99 callsubr
          -190 -259 rmoveto
          -48 callgsubr
        </CharString>
        <CharString name="Scircumflex">
          58 callsubr
          51 -21 127 -20 hstemhm
          62 callgsubr
          hintmask 11001100
          549 200 rmoveto
          -99 callsubr
          hintmask 00110000
          -71 568 -106 callsubr
          endchar
        </CharString>
        <CharString name="Sdotbelow">
          58 callsubr
          hstemhm
          61 125 46 147 45 125 hintmask 11101000
          549 200 rmoveto
          -99 callsubr
          hintmask 00010000
          -170 -352 rmoveto
          -105 callsubr
          endchar
        </CharString>
        <CharString name="Sigma">
          794 0 109 484 101 hstem
          732 48 rmoveto
          16 vlineto
          48 -20 0 -47 vhcurveto
          -319 -3 rlineto
          -58 hlineto
          175 209 rlineto
          8 9 5 9 11 vvcurveto
          13 -6 7 -7 8 vhcurveto
          -188 218 rlineto
          57 hlineto
          331 -3 rlineto
          50 19 0 48 hvcurveto
          -29 callsubr
          -575 hlineto
          -46 -2 -22 -28 -24 0 -3 12 -14 hvcurveto
          229 -266 -228 -272 rlineto
          -10 -12 -3 -9 -8 vvcurveto
          -36 37 0 11 vhcurveto
          575 -100 callsubr
          endchar
        </CharString>
        <CharString name="T">
          42 callsubr
          584 104 hstem
          141 callgsubr
          vstem
          -75 callgsubr
          endchar
        </CharString>
        <CharString name="T_uni0303">
          42 callsubr
          584 104 58 72 -13 72 112 callsubr
          hintmask 11001000
          -75 callgsubr
          hintmask 00010000
          -142 228 -80 callsubr
          hintmask 00101000
          -39 -4 -24 -5 -10 hhcurveto
          -16 -16 11 11 -15 hvcurveto
          hintmask 00010000
          15 -22 -31 22 -45 hhcurveto
          -71 -39 -65 -49 hvcurveto
          hintmask 00100000
          -17 8 0 19 vhcurveto
          18 hlineto
          20 5 0 15 2 hvcurveto
          hintmask 00010000
          39 4 24 5 10 hhcurveto
          16 16 -11 -11 15 hvcurveto
          hintmask 00101000
          -15 22 31 -22 45 hhcurveto
          71 39 65 49 hvcurveto
          endchar
        </CharString>
        <CharString name="T_uni0308">
          42 callsubr
          584 104 58 103 hstemhm
          158 132 3 147 4 132 hintmask 11001000
          -75 callgsubr
          hintmask 00110100
          -402 157 rmoveto
          -105 callgsubr
          286 hmoveto
          -105 callgsubr
          endchar
        </CharString>
        <CharString name="Tau">
          42 callsubr
          584 104 hstem
          141 callgsubr
          vstem
          -75 callgsubr
          endchar
        </CharString>
        <CharString name="Tcaron">
          42 callsubr
          584 104 79 -21 127 -20 112 callsubr
          hintmask 11001000
          -75 callgsubr
          hintmask 00110000
          -153 221 -93 callsubr
        </CharString>
        <CharString name="Tcedilla">
          733 -171 -21 168 -20 65 -21 584 104 hstemhm
          239 163 -109 147 hintmask 01110100
          -75 callgsubr
          -290 -669 114 callsubr
          hintmask 10001000
          -11 -17 -73 -111 -6 13 callsubr
          50 hlineto
          22 1 0 18 8 hvcurveto
          51 121 154 callsubr
          3 0 vvcurveto
          endchar
        </CharString>
        <CharString name="Tdotbelow">
          42 callsubr
          584 104 112 callsubr
          vstemhm
          -75 callgsubr
          hintmask 00100000
          -252 -784 rmoveto
          -105 callsubr
          endchar
        </CharString>
        <CharString name="Theta">
          856 -22 75 229 133 -72 72 229 72 hstemhm
          61 141 451 141 hintmask 10111100
          794 342 rmoveto
          243 -116 131 -250 -246 -121 -126 -248 -237 116 -127 250 239 128 115 249 vhcurveto
          -141 1 rmoveto
          -91 -2 -199 -224 -225 0 203 87 86 0 215 225 226 0 -213 -88 vhcurveto
          -62 -13 rmoveto
          37 vlineto
          38 -13 10 -39 vhcurveto
          -223 hlineto
          -37 -15 -8 -40 hvcurveto
          -37 vlineto
          hintmask 01000000
          -38 13 -10 39 vhcurveto
          223 hlineto
          37 15 8 40 hvcurveto
          endchar
        </CharString>
        <CharString name="Thorn">
          642 21 -21 180 86 239 86 103 -20 hstem
          91 136 219 134 vstem
          580 386 rmoveto
          160 -105 45 -112 vhcurveto
          -136 53 hlineto
          77 callsubr
          -594 120 callgsubr
          130 115 vlineto
          74 164 5 201 hvcurveto
          -134 -1 rmoveto
          -119 -93 0 -44 vhcurveto
          -82 239 84 hlineto
          81 54 -32 -88 hvcurveto
          endchar
        </CharString>
        <CharString name="Tlinebelow">
          733 -184 85 120 -21 584 104 112 callsubr
          hintmask 01110000
          -75 callgsubr
          hintmask 10000000
          -126 -789 rmoveto
          -91 callgsubr
        </CharString>
        <CharString name="U">
          764 -22 59 callgsubr
          hintmask 11011000
          -92 callsubr
          hintmask 10101000
          -70 callsubr
          endchar
        </CharString>
        <CharString name="U_uni032F">
          764 -192 -21 49 93 49 59 callgsubr
          hintmask 00110110
          -92 callsubr
          hintmask 00101010
          -70 callsubr
          hintmask 11000000
          -101 -404 -61 callsubr
        </CharString>
        <CharString name="Uacute">
          25 callgsubr
          103 -21 129 -20 5 callsubr
          hintmask 11000110
          -92 callsubr
          hintmask 10001010
          -70 callsubr
          hintmask 00110000
          -91 633 -98 callsubr
        </CharString>
        <CharString name="Ubreve">
          25 callgsubr
          82 93 49 -20 5 callsubr
          hintmask 11000110
          -92 callsubr
          hintmask 10001010
          -70 callsubr
          hintmask 00110000
          -101 631 -92 callgsubr
        </CharString>
        <CharString name="Ucaron">
          25 callgsubr
          93 -21 127 -20 5 callsubr
          hintmask 11000110
          -92 callsubr
          hintmask 10001010
          -70 callsubr
          hintmask 00110000
          -118 624 -93 callsubr
        </CharString>
        <CharString name="Ucircumflex">
          25 callgsubr
          93 -21 127 -20 5 callsubr
          hintmask 11000110
          -92 callsubr
          hintmask 10001010
          -70 callsubr
          hintmask 00110000
          -118 539 -106 callsubr
          endchar
        </CharString>
        <CharString name="Udblgrave">
          25 callgsubr
          103 -21 157 -20 5 callsubr
          hintmask 11000110
          -92 callsubr
          hintmask 10001010
          -70 callsubr
          hintmask 00110000
          -132 541 -101 callgsubr
        </CharString>
        <CharString name="Udieresis">
          25 callgsubr
          72 103 3 callgsubr
          -65 132 -67 147 74 132 -55 136 hintmask 11000101
          -92 callsubr
          hintmask 10010001
          -70 callsubr
          hintmask 00101010
          -19 callsubr
          endchar
        </CharString>
        <CharString name="Udieresisacute">
          25 callgsubr
          72 103 83 -21 129 -62 callsubr
          -10 228 -98 callsubr
        </CharString>
        <CharString name="Udieresiscaron">
          25 callgsubr
          72 103 73 -21 127 -62 callsubr
          -37 219 -93 callsubr
        </CharString>
        <CharString name="Udieresisgrave">
          25 callgsubr
          72 103 83 -21 129 -62 callsubr
          -111 142 -68 callgsubr
        </CharString>
        <CharString name="Udotbelow">
          764 -22 134 callgsubr
          -77 147 81 136 hintmask 11010100
          -92 callsubr
          hintmask 10100100
          -70 callsubr
          hintmask 00001000
          -217 -381 rmoveto
          -105 callsubr
          endchar
        </CharString>
        <CharString name="Ugrave">
          25 callgsubr
          103 -21 129 -20 5 callsubr
          hintmask 11000110
          -92 callsubr
          hintmask 10001010
          -70 callsubr
          hintmask 00110000
          -192 547 -68 callgsubr
        </CharString>
        <CharString name="Uhookabove">
          25 callgsubr
          93 -21 206 -20 5 callsubr
          hintmask 11000110
          -92 callsubr
          hintmask 10001010
          -70 callsubr
          hintmask 00110000
          -183 649 rmoveto
          -107 callgsubr
        </CharString>
        <CharString name="Uhorn">
          825 -22 86 761 -20 20 callgsubr
          hintmask 11110100
          -82 callgsubr
          hintmask 00001000
          133 98 rlineto
          hintmask 00000100
          3 2 2 4 4 vvcurveto
          endchar
        </CharString>
        <CharString name="Uhornacute">
          825 -22 86 713 -21 69 -20 80 -20 20 callgsubr
          hintmask 10101101
          -82 callgsubr
          hintmask 00000010
          133 98 rlineto
          hintmask 00000001
          3 2 2 4 4 vvcurveto
          hintmask 01010000
          -258 155 -98 callsubr
        </CharString>
        <CharString name="Uhorndotbelow">
          825 -22 86 761 -20 hstemhm
          91 142 106 147 51 99 callgsubr
          -125 130 hintmask 11101010
          -82 callgsubr
          hintmask 00000100
          133 98 rlineto
          hintmask 00000010
          3 2 2 4 4 vvcurveto
          hintmask 00010000
          -322 -859 rmoveto
          -105 callsubr
          endchar
        </CharString>
        <CharString name="Uhorngrave">
          825 -22 86 713 -21 69 -20 80 -20 20 callgsubr
          hintmask 10101101
          -82 callgsubr
          hintmask 00000010
          133 98 rlineto
          hintmask 00000001
          3 2 2 4 4 vvcurveto
          hintmask 01010000
          -328 69 -68 callgsubr
        </CharString>
        <CharString name="Uhornhookabove">
          825 -22 86 703 -21 79 -20 147 -20 20 callgsubr
          hintmask 10101101
          -82 callgsubr
          hintmask 00000010
          133 98 rlineto
          hintmask 00000001
          3 2 2 4 4 vvcurveto
          hintmask 01010000
          -319 171 rmoveto
          -107 callgsubr
        </CharString>
        <CharString name="Uhorntilde">
          825 -22 86 682 72 -13 72 20 callgsubr
          hintmask 10011010
          -82 callgsubr
          hintmask 00000100
          133 98 rlineto
          hintmask 00000010
          3 2 2 4 4 vvcurveto
          hintmask 00100000
          -243 153 -67 callgsubr
        </CharString>
        <CharString name="Uhungarumlaut">
          25 callgsubr
          103 -21 157 -20 5 callsubr
          hintmask 11000110
          -92 callsubr
          hintmask 10001010
          -70 callsubr
          hintmask 00110000
          -291 671 -83 callgsubr
        </CharString>
        <CharString name="Umacron">
          25 callgsubr
          92 85 5 callsubr
          hintmask 11001100
          -92 callsubr
          hintmask 10010100
          -70 callsubr
          hintmask 00100000
          -91 564 rmoveto
          -91 callgsubr
        </CharString>
        <CharString name="Uogonek">
          764 -213 87 104 59 callgsubr
          hintmask 01101100
          -92 callsubr
          hintmask 11010100
          1 callgsubr
          -176 116 -58 112 -14 vhcurveto
          -21 -26 -13 -33 -35 -13 callgsubr
          1 23 7 22 12 19 rrcurveto
          113 5 155 41 205 vvcurveto
          endchar
        </CharString>
        <CharString name="Upsilon">
          856 21 -21 606 110 hstem
          255 147 -48 147 -48 147 cntrmask 00111000
          794 558 rmoveto
          89 -91 69 -103 -104 -48 -86 -104 -20 vhcurveto
          -1 hlineto
          120 -24 -53 70 -95 hhcurveto
          -103 -91 -69 -89 -39 34 0 15 hvcurveto
          38 hlineto
          20 26 0 39 3 hvcurveto
          33 3 32 15 26 hhcurveto
          68 28 -73 -141 hvcurveto
          -344 -76 callsubr
          51 -100 callsubr
          344 vlineto
          141 27 73 69 28 30 -17 -31 3 vhcurveto
          -39 3 27 0 19 hhcurveto
          38 hlineto
          15 34 0 39 hvcurveto
          endchar
        </CharString>
        <CharString name="Uring">
          24 callsubr
          45 68 45 3 callgsubr
          0 147 -126 68 110 68 31 136 hintmask 11001001
          -92 callsubr
          hintmask 10010001
          -70 callsubr
          hintmask 01100110
          -235 544 -50 callsubr
        </CharString>
        <CharString name="Utilde">
          25 callgsubr
          72 72 -13 72 5 callsubr
          hintmask 11000110
          -92 callsubr
          hintmask 10001010
          -70 callsubr
          hintmask 00010000
          -107 631 -96 callgsubr
        </CharString>
        <CharString name="V">
          127 callgsubr
          705 667 rmoveto
          27 -25 0 -14 vhcurveto
          -39 hlineto
          -21 -29 0 -44 -16 hvcurveto
          -135 -371 -52 -154 -1 3 -11 35 -15 41 rlinecurve
          -162 447 rlineto
          43 -16 -28 0 -21 hhcurveto
          -54 hlineto
          -14 -25 0 -27 -5 1 -1 4 -12 hvcurveto
          224 -607 rlineto
          -42 15 29 0 20 hhcurveto
          92 hlineto
          21 28 0 44 16 hvcurveto
          223 605 rlineto
          4 12 1 1 5 vvcurveto
          endchar
        </CharString>
        <CharString name="W">
          1039 15 callsubr
          hstem
          -86 callsubr
          endchar
        </CharString>
        <CharString name="Wacute">
          1039 15 callsubr
          103 -21 129 -20 hstemhm
          hintmask 11000000
          -86 callsubr
          hintmask 00110000
          -296 197 -98 callsubr
        </CharString>
        <CharString name="Wcircumflex">
          1039 15 callsubr
          93 -21 127 -20 hstemhm
          hintmask 11000000
          -86 callsubr
          hintmask 00110000
          -323 103 -106 callsubr
          endchar
        </CharString>
        <CharString name="Wdieresis">
          1039 126 callsubr
          310 54 callsubr
          hintmask 11000000
          -86 callsubr
          hintmask 00111000
          -572 124 rmoveto
          -105 callgsubr
          286 hmoveto
          -105 callgsubr
          endchar
        </CharString>
        <CharString name="Wgrave">
          1039 15 callsubr
          103 -21 129 -20 hstemhm
          hintmask 11000000
          -86 callsubr
          hintmask 00110000
          -397 111 -68 callgsubr
        </CharString>
        <CharString name="X">
          -22 callgsubr
        </CharString>
        <CharString name="Xi">
          733 0 120 -120 122 176 120 148 122 -120 120 hstemhm
          46 687 hintmask 00001000
          680 614 rmoveto
          26 -99 callgsubr
          -532 -51 callsubr
          -26 vlineto
          hintmask 00010000
          -48 20 0 49 vhcurveto
          hintmask 00001000
          245 2 rlineto
          hintmask 01010000
          245 -2 rlineto
          50 19 0 48 hvcurveto
          6 -566 rmoveto
          26 vlineto
          48 -19 0 -51 vhcurveto
          hintmask 10000000
          -250 -2 rlineto
          hintmask 01100100
          -250 2 rlineto
          -51 -19 0 -48 hvcurveto
          -26 -76 callsubr
          544 -100 callsubr
          -76 298 rmoveto
          24 -99 callgsubr
          -392 -51 callsubr
          -24 -5 callsubr
          392 -100 callsubr
          endchar
        </CharString>
        <CharString name="Y">
          127 callgsubr
          294 144 vstem
          -85 callsubr
          endchar
        </CharString>
        <CharString name="Yacute">
          47 callsubr
          103 -21 129 -20 hstemhm
          294 144 hintmask 11001000
          -85 callsubr
          hintmask 00110000
          -142 191 -98 callsubr
        </CharString>
        <CharString name="Ycircumflex">
          47 callsubr
          93 -21 127 -20 hstemhm
          294 144 hintmask 11001000
          -85 callsubr
          hintmask 00110000
          -169 97 -106 callsubr
          endchar
        </CharString>
        <CharString name="Ydieresis">
          733 126 callsubr
          158 132 4 144 6 132 hintmask 11001000
          -85 callsubr
          hintmask 00110100
          -418 118 rmoveto
          -105 callgsubr
          286 hmoveto
          -105 callgsubr
          endchar
        </CharString>
        <CharString name="Ydotbelow">
          47 callsubr
          112 callsubr
          -146 144 hintmask 11010000
          -85 callsubr
          hintmask 00100000
          -268 -823 rmoveto
          -105 callsubr
          endchar
        </CharString>
        <CharString name="Ygrave">
          47 callsubr
          103 -21 129 -20 hstemhm
          294 144 hintmask 11001000
          -85 callsubr
          hintmask 00110000
          -243 105 -68 callgsubr
        </CharString>
        <CharString name="Yhookabove">
          47 callsubr
          93 -21 206 -20 hstemhm
          294 144 hintmask 11001000
          -85 callsubr
          hintmask 00111000
          -234 207 rmoveto
          -107 callgsubr
        </CharString>
        <CharString name="Ytilde">
          47 callsubr
          72 114 callgsubr
          294 144 hintmask 11001000
          -85 callsubr
          hintmask 00010000
          -158 189 -96 callgsubr
        </CharString>
        <CharString name="Z">
          71 callgsubr
          hstem
          61 555 vstem
          -70 callgsubr
          endchar
        </CharString>
        <CharString name="Zacute">
          71 callgsubr
          92 callsubr
          61 555 hintmask 11001000
          -70 callgsubr
          hintmask 00110000
          -81 814 -98 callsubr
        </CharString>
        <CharString name="Zcaron">
          71 callgsubr
          111 callsubr
          61 555 hintmask 11001000
          -70 callgsubr
          hintmask 00110000
          -108 805 -93 callsubr
        </CharString>
        <CharString name="Zdotaccent">
          71 callgsubr
          52 115 hstemhm
          61 555 -354 147 hintmask 11010000
          -70 callgsubr
          hintmask 00101000
          -207 746 rmoveto
          -105 callsubr
          endchar
        </CharString>
        <CharString name="Zdotbelow">
          71 callgsubr
          hstemhm
          61 555 -354 147 hintmask 11100000
          -70 callgsubr
          hintmask 00010000
          -207 -200 rmoveto
          -105 callsubr
          endchar
        </CharString>
        <CharString name="Zeta">
          71 callgsubr
          hstem
          61 555 vstem
          -70 callgsubr
          endchar
        </CharString>
        <CharString name="a">
          -16 callsubr
          hstem
          -4 callsubr
          vstem
          -106 callgsubr
          endchar
        </CharString>
        <CharString name="aacute">
          -16 callsubr
          83 -21 157 -102 callsubr
          81 440 -96 callsubr
        </CharString>
        <CharString name="abreve">
          -16 callsubr
          70 93 49 -102 callsubr
          -3 callsubr
          endchar
        </CharString>
        <CharString name="abreveacute">
          -16 callsubr
          70 93 228 -102 callsubr
          -3 callsubr
          -41 194 -98 callsubr
        </CharString>
        <CharString name="abrevedotbelow">
          -16 callsubr
          70 93 49 -20 hstemhm
          41 130 18 147 2 136 hintmask 11111010
          -106 callgsubr
          -3 callsubr
          hintmask 00000100
          -116 -801 rmoveto
          -105 callsubr
          endchar
        </CharString>
        <CharString name="abrevegrave">
          -16 callsubr
          70 93 49 -102 callsubr
          -3 callsubr
          -39 108 -51 callgsubr
        </CharString>
        <CharString name="abrevehookabove">
          -16 callsubr
          70 93 285 -102 callsubr
          -3 callsubr
          -81 200 rmoveto
          -107 callgsubr
        </CharString>
        <CharString name="abrevetilde">
          -16 callsubr
          70 93 119 132 callgsubr
          hintmask 11000110
          -106 callgsubr
          hintmask 00101000
          -3 callsubr
          -6 222 -87 callsubr
        </CharString>
        <CharString name="acaron">
          -16 callsubr
          81 -21 162 -102 callsubr
          87 437 -90 callgsubr
        </CharString>
        <CharString name="acircumflex">
          -16 callsubr
          81 -21 162 -102 callsubr
          87 315 -94 callgsubr
          endchar
        </CharString>
        <CharString name="acircumflexacute">
          -16 callsubr
          81 -21 306 -102 callsubr
          97 316 -106 callsubr
          -25 261 -98 callsubr
        </CharString>
        <CharString name="acircumflexdotbelow">
          -16 callsubr
          81 -21 162 -20 hstemhm
          41 130 18 147 2 136 hintmask 11111010
          -106 callgsubr
          87 315 -94 callgsubr
          hintmask 00000100
          -89 -708 rmoveto
          -105 callsubr
          endchar
        </CharString>
        <CharString name="acircumflexgrave">
          -16 callsubr
          81 -21 127 -102 callsubr
          97 316 -106 callsubr
          -23 175 -51 callgsubr
        </CharString>
        <CharString name="acircumflexhookabove">
          -16 callsubr
          81 -21 363 -102 callsubr
          97 316 -106 callsubr
          42 267 rmoveto
          -107 callgsubr
        </CharString>
        <CharString name="acircumflextilde">
          -16 callsubr
          81 -21 197 132 callgsubr
          hintmask 11000110
          -106 callgsubr
          hintmask 00101000
          97 316 rmoveto
          -108 102 rlineto
          2 -2 -3 1 -3 hhcurveto
          -111 hlineto
          -3 -3 -1 -2 -2 hvcurveto
          -110 -104 rlineto
          -7 -8 5 -13 11 hhcurveto
          47 hlineto
          5 1 112 81 112 -81 5 -1 rlineto
          47 hlineto
          11 6 15 7 -8 hvcurveto
          10 289 -87 callsubr
        </CharString>
        <CharString name="acute">
          550 558 48 callsubr
          431 681 -96 callsubr
        </CharString>
        <CharString name="acute.cap">
          550 541 -21 129 -20 hstem
          474 626 -98 callsubr
        </CharString>
        <CharString name="acute.dup">
          550 558 48 callsubr
          431 681 -96 callsubr
        </CharString>
        <CharString name="acute.ts1">
          550 568 -21 176 142 callsubr
          hintmask 01000000
          457 711 rmoveto
          11 -1 -11 1 -9 hhcurveto
          -74 hlineto
          hintmask 10100000
          -6 66 callgsubr
          -6 -2 -3 -6 -4 -5 -21 -33 rcurveline
          -51 -79 -14 -21 rlineto
          -3 -5 -4 -4 -6 vvcurveto
          -2 vlineto
          -12 14 0 8 vhcurveto
          31 hlineto
          18 17 22 13 13 hvcurveto
          122 113 rlineto
          4 4 6 5 7 vvcurveto
          endchar
        </CharString>
        <CharString name="adblgrave">
          -16 callsubr
          83 -21 157 -102 callsubr
          83 310 -101 callgsubr
        </CharString>
        <CharString name="adieresis">
          -16 callsubr
          89 103 hstemhm
          41 130 -95 28 callsubr
          -112 136 hintmask 11010010
          -106 callgsubr
          hintmask 00101100
          -130 366 -69 callgsubr
        </CharString>
        <CharString name="adotbelow">
          -16 callsubr
          hstemhm
          41 130 18 147 2 136 hintmask 11101000
          -106 callgsubr
          hintmask 00010000
          -2 -393 rmoveto
          -105 callsubr
          endchar
        </CharString>
        <CharString name="ae">
          -56 callsubr
        </CharString>
        <CharString name="ae.dup">
          -56 callsubr
        </CharString>
        <CharString name="aeacute">
          794 -11 72 -17 53 -44 66 95 83 callgsubr
          -66 66 83 -21 157 -20 hstemhm
          31 130 71 114 -17 137 -1 114 69 114 hintmask 0000100000000000
          762 261 rmoveto
          130 -59 84 -138 -30 -66 -3 -38 -53 vhcurveto
          34 -42 -52 7 -60 hhcurveto
          -54 -48 -6 -27 -63 hvcurveto
          -20 -8 -5 -3 -11 vvcurveto
          -7 6 -58 1 -8 vhcurveto
          -6 1 5 -5 7 hhcurveto
          5 3 3 3 3 hvcurveto
          hintmask 1000010010100000
          45 43 50 22 63 hhcurveto
          57 13 -37 -55 hvcurveto
          -64 vlineto
          -88 -3 -210 -8 -119 vvcurveto
          -44 32 -90 115 vhcurveto
          hintmask 0100000000000000
          23 129 0 55 70 hvcurveto
          hintmask 1000000000010000
          -55 67 90 0 22 hhcurveto
          60 48 15 22 40 hvcurveto
          hintmask 0010000000000000
          28 16 1 1 10 vvcurveto
          hintmask 0100000000000000
          7 -3 29 -1 8 vhcurveto
          31 -4 -1 1 -9 hhcurveto
          hintmask 0010000000000000
          -6 -2 -2 -8 -8 hvcurveto
          hintmask 1001000000011000
          -46 -46 -57 -12 -36 hhcurveto
          -91 -24 68 85 -3 hvcurveto
          249 97 callgsubr
          hintmask 0001100000101000
          -182 hlineto
          49 3 13 87 84 hhcurveto
          76 4 -80 -56 2 hvcurveto
          -302 -145 rmoveto
          hintmask 1000000011000000
          -20 -40 -41 -74 -50 -21 37 26 67 133 6 36 2 vhcurveto
          3 -27 1 -9 9 -29 rrcurveto
          2 -5 1 -7 0 vvcurveto
          hintmask 0000001101000000
          207 559 -96 callsubr
        </CharString>
        <CharString name="agrave">
          -16 callsubr
          83 -21 157 -102 callsubr
          3 309 rmoveto
          -74 callgsubr
        </CharString>
        <CharString name="ahookabove">
          -16 callsubr
          59 -21 206 -102 callsubr
          32 404 rmoveto
          -107 callgsubr
        </CharString>
        <CharString name="amacron">
          -16 callsubr
          98 85 8 callgsubr
          hintmask 11011000
          -106 callgsubr
          hintmask 00100000
          124 359 rmoveto
          -91 callgsubr
        </CharString>
        <CharString name="ampersand">
          831 -22 100 24 72 161 72 237 72 hstemhm
          157 114 72 114 -60 114 131 114 -110 114 hintmask 1100000100000000
          769 25 rmoveto
          48 vlineto
          19 0 10 -13 -3 -1 -1 -3 -6 vhcurveto
          -19 -48 -42 -1 -13 hhcurveto
          -22 -31 3 21 -38 hvcurveto
          132 119 49 177 8 vvcurveto
          10 -8 2 -6 2 vhcurveto
          hintmask 0000001010000000
          3 -11 -55 16 -7 hhcurveto
          -10 -1 -5 -21 -6 hvcurveto
          -40 -128 -70 -82 -48 -38 -10 9 -88 91 -42 75 rrcurveto
          119 85 61 61 67 vvcurveto
          hintmask 1011110100000000
          83 -69 80 -99 -93 -93 -74 -119 -76 25 -73 17 -39 vhcurveto
          -28 -19 -59 -41 -16 -14 rrcurveto
          -16 -15 -34 -41 -58 vvcurveto
          -94 86 -75 115 116 90 53 2 4 vhcurveto
          -27 48 58 -28 79 hhcurveto
          hintmask 0011110010000000
          65 50 17 2 3 hvcurveto
          9 3 0 5 20 vvcurveto
          -372 527 rmoveto
          -63 -54 -51 -45 -31 vhcurveto
          -25 69 -2 44 26 vvcurveto
          74 45 24 27 vhcurveto
          hintmask 1100001000000000
          38 16 -53 -39 hvcurveto
          -29 -450 rmoveto
          -23 -56 -53 -1 -9 hhcurveto
          -64 -4 82 14 68 38 21 13 7 hvcurveto
          41 -72 57 -58 37 -38 rrcurveto
          endchar
        </CharString>
        <CharString name="anglearc">
          856 -96 -21 734 -20 hstem
          585 84 vstem
          794 42 rmoveto
          19 -12 16 -17 5 vhcurveto
          -112 36 rlineto
          11 43 5 44 45 vvcurveto
          45 -5 44 -11 43 vhcurveto
          112 36 rlineto
          17 5 12 16 19 vvcurveto
          23 -19 19 -23 -4 -5 -1 -1 -4 vhcurveto
          -111 -36 -20 50 -27 47 -34 42 rlinecurve
          10 -8 -12 6 -13 hhcurveto
          -23 -19 -19 -23 -10 3 -9 6 -7 hvcurveto
          27 -35 23 -37 16 -40 -457 -147 rcurveline
          -17 -5 -12 -16 -19 vvcurveto
          -19 12 -16 17 -5 vhcurveto
          457 -147 -16 -40 -23 -37 -27 -35 rlinecurve
          -6 -7 -3 -9 -10 vvcurveto
          -23 19 -19 23 13 12 6 10 8 vhcurveto
          34 42 27 47 20 50 111 -36 rcurveline
          -1 4 5 -1 4 hhcurveto
          23 19 19 23 hvcurveto
          -209 208 rmoveto
          -36 -4 -36 -8 -35 vhcurveto
          -332 107 332 107 rlineto
          8 -35 4 -36 -36 vvcurveto
          endchar
        </CharString>
        <CharString name="angleleft">
          119 callgsubr
          366 -208 rmoveto
          24 -15 26 -7 22 vhcurveto
          -127 360 rlineto
          -3 8 -5 10 9 vvcurveto
          9 7 13 3 10 vhcurveto
          43 131 51 129 43 130 rrcurveto
          4 12 6 12 13 vvcurveto
          22 -1 -18 19 -22 hhcurveto
          hintmask 11000000
          -3 -2 0 -1 -3 hvcurveto
          -25 -9 -30 -18 -6 hvcurveto
          -125 -356 -21 -60 rlineto
          -4 -11 -6 -12 -12 vvcurveto
          -12 6 -12 4 -11 vhcurveto
          84 -239 63 -181 rlineto
          -23 8 10 -22 28 hhcurveto
          23 19 19 22 hvcurveto
          endchar
        </CharString>
        <CharString name="angleright">
          119 callgsubr
          306 252 rmoveto
          12 -6 11 -4 11 vhcurveto
          -26 82 -32 81 -27 81 -62 176 rcurveline
          25 -8 -12 20 -26 hhcurveto
          hintmask 11000000
          -7 -1 rlineto
          -21 -3 -14 -18 -20 vvcurveto
          -18 12 -22 6 -18 vhcurveto
          131 -373 rlineto
          3 -8 5 -10 -9 vvcurveto
          -19 -23 -50 -12 -33 vhcurveto
          -111 -317 -4 -12 -6 -12 -1 -13 rlinecurve
          -2 vlineto
          -24 19 -18 24 vhcurveto
          2 hlineto
          27 2 8 23 8 21 147 419 rcurveline
          4 12 6 12 12 vvcurveto
          endchar
        </CharString>
        <CharString name="aogonek">
          132 callsubr
          hstem
          -4 callsubr
          vstem
          512 -162 rmoveto
          -61 callgsubr
          1 32 14 34 33 20 rrcurveto
          38 10 13 35 hvcurveto
          268 vlineto
          158 -152 1 -50 -47 -50 -4 -28 -67 vhcurveto
          -21 -9 -5 -3 -11 vvcurveto
          -7 6 -58 1 -8 vhcurveto
          -6 1 5 -5 7 hhcurveto
          5 3 3 3 3 hvcurveto
          45 43 50 22 62 hhcurveto
          54 16 -33 -59 hvcurveto
          -35 vlineto
          -35 -262 -2 -147 -70 56 -74 88 34 75 10 69 47 hvcurveto
          -20 vlineto
          -12 0 -10 4 -8 vhcurveto
          -34 -33 -32 -53 -44 -52 callgsubr
          -174 316 rmoveto
          -93 -95 0 -3 -42 -27 36 38 98 139 7 28 1 vhcurveto
          endchar
        </CharString>
        <CharString name="aogonekacute">
          132 callsubr
          83 -21 157 -20 8 callgsubr
          hintmask 11100110
          512 -162 rmoveto
          -61 callgsubr
          1 32 14 34 33 20 rrcurveto
          38 10 13 35 hvcurveto
          268 vlineto
          158 -152 1 -50 -47 -50 -4 -28 -67 vhcurveto
          -21 -9 -5 -3 -11 vvcurveto
          -7 6 -58 1 -8 vhcurveto
          -6 1 5 -5 7 hhcurveto
          5 3 3 3 3 hvcurveto
          45 43 50 22 62 hhcurveto
          54 16 -33 -59 hvcurveto
          -35 vlineto
          -35 -262 -2 -147 -70 56 -74 88 34 75 10 69 47 hvcurveto
          -20 vlineto
          -12 0 -10 4 -8 vhcurveto
          -34 -33 -32 -53 -44 -52 callgsubr
          -174 316 rmoveto
          -93 -95 0 -3 -42 -27 36 38 98 139 7 28 1 vhcurveto
          hintmask 00011000
          81 440 -96 callsubr
        </CharString>
        <CharString name="aring">
          -16 callsubr
          51 45 68 45 128 callsubr
          hintmask 11001001
          -106 callgsubr
          hintmask 00110110
          -20 364 -50 callsubr
        </CharString>
        <CharString name="aringacute">
          -16 callsubr
          51 130 callsubr
          128 callsubr
          hintmask 1100010010000000
          -106 callgsubr
          hintmask 0011101100000000
          -20 364 -73 callsubr
          25 236 -98 callsubr
        </CharString>
        <CharString name="asciicircum">
          556 583 -21 123 59 hstem
          -5 566 vstem
          561 584 rmoveto
          -283 160 -283 -160 11 -22 271 123 272 -123 rlineto
          endchar
        </CharString>
        <CharString name="asciitilde">
          556 193 43 -25 43 -8 43 -25 43 hstemhm
          hintmask 10010000
          555 290 49 callgsubr
          hintmask 01000000
          32 callsubr
          hintmask 00100000
          20 10 20 11 17 14 rrcurveto
          endchar
        </CharString>
        <CharString name="asciitilde.low">
          556 0 43 -25 43 -8 43 -25 43 hstemhm
          0 555 hintmask 10010000
          555 97 49 callgsubr
          hintmask 01001000
          32 callsubr
          hintmask 00101000
          20 10 20 11 17 14 rrcurveto
          endchar
        </CharString>
        <CharString name="asterisk">
          550 313 -21 458 -20 hstem
          121 105 -4 105 -4 105 cntrmask 00111000
          481 436 rmoveto
          16 -6 19 -26 8 vhcurveto
          -134 42 133 42 rlineto
          9 3 24 7 33 vvcurveto
          32 -27 26 -26 -15 -6 -6 -10 -11 vhcurveto
          -101 -92 28 131 rlineto
          1 2 3 17 0 vvcurveto
          25 -25 19 -27 -30 -23 -21 -23 0 3 -17 1 -2 vhcurveto
          28 -131 -100 92 rlineto
          16 -17 -9 0 -7 hhcurveto
          -26 -27 -26 -32 -16 6 -19 26 -8 hvcurveto
          134 -42 -133 -42 rlineto
          -9 -3 -24 -7 -33 vvcurveto
          -32 27 -26 26 15 6 6 10 11 vhcurveto
          101 92 -28 -131 rlineto
          -1 -2 -3 -17 0 vvcurveto
          -25 25 -19 27 30 23 21 23 0 -3 17 -1 2 vhcurveto
          -28 131 100 -92 rlineto
          -16 17 9 0 7 hhcurveto
          26 27 26 32 hvcurveto
          endchar
        </CharString>
        <CharString name="asterisk.math">
          550 44 -21 457 -20 hstem
          219 111 vstem
          481 168 rmoveto
          33 -25 10 -27 10 vhcurveto
          -26 10 -27 9 -26 11 26 11 27 9 26 10 rrcurveto
          27 10 25 10 33 vvcurveto
          30 -24 31 -32 vhcurveto
          -4 hlineto
          -18 -1 -12 -12 -13 -11 -22 -18 -23 -18 -21 -19 rrcurveto
          5 37 13 43 35 vvcurveto
          31 -28 18 -27 -27 -29 -17 -32 -35 13 -43 5 -37 vhcurveto
          -21 19 -23 18 -22 18 -13 11 -12 12 -18 1 rrcurveto
          -4 hlineto
          -32 -24 -31 -30 -33 25 -10 27 -10 hvcurveto
          26 -10 27 -9 26 -11 -26 -11 -27 -9 -26 -10 rrcurveto
          -27 -10 -25 -10 -33 vvcurveto
          -30 24 -31 32 vhcurveto
          4 hlineto
          18 1 12 12 13 11 22 18 23 18 21 19 rrcurveto
          -5 -37 -13 -43 -35 vvcurveto
          -32 29 -16 27 27 28 16 32 35 -13 43 -5 37 vhcurveto
          21 -19 23 -18 22 -18 13 -11 12 -12 18 -1 rrcurveto
          4 hlineto
          32 24 31 30 hvcurveto
          endchar
        </CharString>
        <CharString name="at">
          733 -11 72 57 72 314 72 57 72 hstemhm
          61 120 65 120 158 120 -93 120 hintmask 11111110
          671 88 rmoveto
          13 -11 0 -16 vhcurveto
          -38 hlineto
          -16 -2 0 -4 -7 hvcurveto
          -16 -34 -50 -20 -71 hhcurveto
          -89 -65 31 46 -35 hvcurveto
          -31 41 -25 55 113 vvcurveto
          80 12 68 39 55 vhcurveto
          80 58 105 3 27 hhcurveto
          47 38 -20 -44 17 hvcurveto
          7 -31 -23 0 -12 hhcurveto
          -153 -59 -93 -136 -144 65 -85 147 hvcurveto
          hintmask 11111101
          213 0 175 74 197 -34 141 -214 -235 -127 -118 -240 -244 131 -114 231 23 55 0 30 72 hvcurveto
          34 15 64 40 14 vvcurveto
          -120 259 rmoveto
          -38 0 -119 -92 -93 0 118 39 38 0 119 92 93 0 -118 -39 vhcurveto
          endchar
        </CharString>
        <CharString name="atilde">
          -16 callsubr
          75 72 -13 72 -102 callgsubr
          hintmask 00010000
          108 423 -96 callgsubr
        </CharString>
        <CharString name="b">
          147 callgsubr
          hstem
          61 136 190 136 vstem
          94 callgsubr
          233 vlineto
          32 -7 16 -41 vhcurveto
          -37 hlineto
          -36 -12 -11 -37 hvcurveto
          -598 26 callgsubr
          123 callsubr
        </CharString>
        <CharString name="backslash">
          575 750 -20 hstem
          510 -219 rmoveto
          6 -1 1 -5 13 vhcurveto
          -377 919 rlineto
          17 -7 -5 13 -21 hhcurveto
          -14 -16 -11 -20 -6 1 -1 5 -13 hvcurveto
          377 -919 rlineto
          -15 6 6 -15 21 hhcurveto
          14 16 11 20 hvcurveto
          endchar
        </CharString>
        <CharString name="baht">
          733 0 86 239 72 211 86 hstemhm
          91 141 77 100 95 136 -108 139 hintmask 10111100
          671 194 rmoveto
          141 -139 22 -37 6 vhcurveto
          92 21 53 52 78 vvcurveto
          157 -162 20 -69 3 vhcurveto
          76 125 callgsubr
          -14 -10 -10 -14 hvcurveto
          -76 -170 vlineto
          -86 callgsubr
          170 -76 hlineto
          -13 10 -11 14 vhcurveto
          52 91 callsubr
          76 4 vlineto
          hintmask 00001010
          74 184 13 181 hvcurveto
          -167 317 rmoveto
          -71 -51 -27 -44 -10 vhcurveto
          200 vlineto
          hintmask 01111100
          45 -8 50 -22 -62 vvcurveto
          -195 -114 rmoveto
          -77 211 77 hlineto
          223 -412 rmoveto
          -84 -71 -20 -52 -5 vhcurveto
          235 vlineto
          hintmask 11011010
          53 -8 70 -26 -92 vvcurveto
          -223 -110 rmoveto
          -77 239 77 hlineto
          endchar
        </CharString>
        <CharString name="bar">
          319 750 -20 hstem
          129 61 vstem
          190 -206 rmoveto
          27 callgsubr
          endchar
        </CharString>
        <CharString name="bigcircle">
          65 callsubr
          546 74 vstem
          -58 callgsubr
          endchar
        </CharString>
        <CharString name="blanksymbol">
          561 -11 72 301 72 -37 72 119 72 -38 72 hstemhm
          61 136 190 136 hintmask 00110000
          94 callgsubr
          121 vlineto
          70 54 rlineto
          hintmask 00001000
          11 8 2 15 -8 11 -32 41 rcurveline
          -8 11 -15 2 -11 -9 rrcurveto
          hintmask 00010000
          -10 -7 rlineto
          hintmask 11001110
          23 -2 -10 11 -35 hhcurveto
          -36 callgsubr
          -88 vlineto
          -52 -40 -10 -8 -2 -16 8 -10 rlinecurve
          32 -41 6 -8 9 -3 9 2 rlinecurve
          -386 26 callgsubr
          hintmask 00100010
          123 callsubr
        </CharString>
        <CharString name="braceleft">
          81 callgsubr
          -232 rmoveto
          13 -5 4 -12 1 vhcurveto
          -84 5 -37 35 -12 36 rrcurveto
          -3 10 0 8 17 vvcurveto
          237 vlineto
          -1 42 -32 51 -86 23 rrcurveto
          119 32 0 69 45 vvcurveto
          210 vlineto
          22 0 29 39 29 vhcurveto
          11 7 29 18 52 3 rrcurveto
          14 1 8 0 17 vvcurveto
          18 -9 0 -22 -142 -90 -50 -77 -1 vhcurveto
          -206 vlineto
          -62 0 -21 -33 -29 vhcurveto
          -23 -21 -35 -14 -41 -2 rrcurveto
          -14 -1 -8 0 -17 vvcurveto
          -13 5 -4 12 -1 vhcurveto
          90 -5 36 -45 9 -36 rrcurveto
          2 -8 0 -2 -37 vvcurveto
          -210 vlineto
          -128 166 -11 67 22 9 0 18 vhcurveto
          endchar
        </CharString>
        <CharString name="braceright">
          81 callgsubr
          250 rmoveto
          13 -5 4 -12 1 vhcurveto
          -64 3 -52 26 -17 55 rrcurveto
          -3 8 0 2 39 vvcurveto
          210 vlineto
          123 -152 16 -82 -21 -10 0 -18 -13 5 -4 12 -1 vhcurveto
          81 -4 41 -33 12 -39 rrcurveto
          3 -10 0 -8 -17 vvcurveto
          -237 vlineto
          1 -42 31 -50 87 -24 rrcurveto
          -119 -32 0 -68 -46 vvcurveto
          -210 vlineto
          -23 0 -26 -37 -29 vhcurveto
          -10 -7 -31 -20 -54 -3 rrcurveto
          -14 -1 -8 0 -17 vvcurveto
          -18 10 0 21 150 83 54 73 1 vhcurveto
          206 vlineto
          65 0 17 34 31 vhcurveto
          11 11 33 22 53 3 rrcurveto
          14 1 8 0 17 vvcurveto
          endchar
        </CharString>
        <CharString name="bracketleft">
          343 -250 72 856 72 hstem
          87 130 vstem
          318 -214 rmoveto
          36 -36 0 -12 vhcurveto
          -53 856 53 hlineto
          82 callsubr
          36 -36 0 -12 hvcurveto
          -135 hlineto
          -77 callsubr
          -904 -5 callsubr
          135 hlineto
          48 callgsubr
        </CharString>
        <CharString name="bracketright">
          343 -250 72 856 72 hstem
          125 130 vstem
          255 -202 rmoveto
          904 -99 callgsubr
          -135 hlineto
          -12 -36 0 -36 -36 36 0 12 hvcurveto
          53 -856 -53 hlineto
          -12 -36 0 -36 -36 36 0 12 hvcurveto
          135 -100 callsubr
          endchar
        </CharString>
        <CharString name="breve">
          139 callsubr
          49 21 callsubr
          endchar
        </CharString>
        <CharString name="breve.cap">
          550 520 93 49 -20 hstem
          464 624 -92 callgsubr
        </CharString>
        <CharString name="breve.ts1">
          672 553 93 76 142 callsubr
          hintmask 11000000
          585 683 rmoveto
          18 -8 21 -28 -14 -14 -8 -14 -6 vhcurveto
          -28 -9 8 -26 -159 hhcurveto
          -56 hlineto
          -44 -78 1 28 -15 hvcurveto
          -5 7 2 9 -3 8 rrcurveto
          hintmask 00100000
          14 -5 -14 10 -15 hhcurveto
          hintmask 11000000
          -6 -1 rlineto
          -21 -9 -24 -16 -119 163 -10 86 91 132 6 98 23 hvcurveto
          2 8 2 9 9 vvcurveto
          endchar
        </CharString>
        <CharString name="brokenbar">
          319 750 -20 hstem
          129 61 vstem
          190 341 rmoveto
          365 vlineto
          14 0 30 -30 -31 0 -29 -15 vhcurveto
          -365 vlineto
          -24 9 -26 22 21 9 26 24 vhcurveto
          -547 vmoveto
          365 vlineto
          24 -9 26 -21 -22 -9 -26 -24 vhcurveto
          -365 37 callsubr
          endchar
        </CharString>
        <CharString name="bullet">
          856 114 304 hstem
          276 304 36 callgsubr
          endchar
        </CharString>
        <CharString name="c">
          70 callgsubr
          hstem
          37 136 vstem
          -76 callgsubr
          endchar
        </CharString>
        <CharString name="cacute">
          70 callgsubr
          83 -21 157 -20 hstemhm
          37 136 hintmask 11001000
          -76 callgsubr
          hintmask 00110000
          -32 631 -96 callsubr
        </CharString>
        <CharString name="caron">
          550 86 callgsubr
          437 678 -90 callgsubr
        </CharString>
        <CharString name="caron.cap">
          113 callsubr
          127 -20 hstem
          447 617 -93 callsubr
        </CharString>
        <CharString name="caron.ts1">
          672 524 -21 242 -20 hstem
          501 733 rmoveto
          9 -8 3 -8 vhcurveto
          -39 hlineto
          -12 -5 -8 -8 -5 hvcurveto
          -88 -119 -85 114 rlineto
          12 -10 -2 9 -20 hhcurveto
          -29 hlineto
          -9 -9 -1 -9 -1 hvcurveto
          -8 2 -6 5 -7 vhcurveto
          96 -192 rlineto
          -9 4 3 -10 14 hhcurveto
          80 hlineto
          14 4 9 8 3 hvcurveto
          98 194 rlineto
          3 5 4 7 7 vvcurveto
          endchar
        </CharString>
        <CharString name="ccaron">
          70 callgsubr
          81 -21 162 -20 hstemhm
          37 136 hintmask 11001000
          -76 callgsubr
          hintmask 00110000
          -26 628 -90 callgsubr
        </CharString>
        <CharString name="ccedilla">
          70 callgsubr
          hstem
          37 136 vstem
          -76 callgsubr
          -125 -109 rmoveto
          -48 callgsubr
        </CharString>
        <CharString name="ccircumflex">
          70 callgsubr
          81 -21 162 -20 hstemhm
          37 136 hintmask 11001000
          -76 callgsubr
          hintmask 00110000
          -26 506 -94 callgsubr
          endchar
        </CharString>
        <CharString name="cdotaccent">
          70 callgsubr
          83 115 hstemhm
          37 136 22 147 hintmask 11010000
          -76 callgsubr
          hintmask 00101000
          -115 556 rmoveto
          -105 callsubr
          endchar
        </CharString>
        <CharString name="cedilla">
          489 -171 -21 168 -20 hstem
          147 163 vstem
          310 -37 rmoveto
          -48 callgsubr
        </CharString>
        <CharString name="cedilla.dup">
          489 -171 -21 168 -20 hstem
          147 163 vstem
          310 -37 rmoveto
          -48 callgsubr
        </CharString>
        <CharString name="cent">
          489 37 136 46 100 vstem
          457 50 rmoveto
          11 -4 46 -2 13 vhcurveto
          3 -2 10 -10 -4 -2 0 -10 -10 vhcurveto
          -14 -12 -34 -30 -56 -10 rrcurveto
          324 vlineto
          39 -6 22 -15 28 -23 rrcurveto
          -11 12 2 0 4 hhcurveto
          10 2 9 4 1 hvcurveto
          2 8 10 56 5 vvcurveto
          9 -7 4 -17 8 vhcurveto
          -38 17 -26 10 -44 4 rrcurveto
          60 125 callgsubr
          -13 -11 -10 -14 hvcurveto
          -63 vlineto
          -114 -18 -68 -73 -150 vvcurveto
          -145 65 -75 117 -17 vhcurveto
          -69 vlineto
          98 callsubr
          52 91 callsubr
          67 vlineto
          30 4 38 8 41 21 rrcurveto
          28 15 1 1 10 vvcurveto
          -238 32 rmoveto
          -46 31 0 70 49 vvcurveto
          60 3 62 43 28 vhcurveto
          endchar
        </CharString>
        <CharString name="cent.oldstyle">
          489 -11 78 -77 78 329 78 hstemhm
          37 136 hintmask 10000000
          457 50 rmoveto
          11 -4 46 -2 13 vhcurveto
          3 -2 10 -10 -4 -2 0 -10 -10 vhcurveto
          -15 -17 -47 -41 -82 hhcurveto
          hintmask 01110000
          -6 -5 0 1 -5 hvcurveto
          88 320 22 -8 17 -12 20 -17 rlinecurve
          -11 12 2 0 4 hhcurveto
          10 2 9 4 1 hvcurveto
          2 8 10 56 5 vvcurveto
          9 -7 4 -17 8 vhcurveto
          -21 10 -17 7 -19 5 19 70 rcurveline
          12 4 -9 11 -12 hhcurveto
          -56 hlineto
          -14 -13 -9 -14 -3 hvcurveto
          -17 -60 rlineto
          -143 -3 -89 -71 -171 vvcurveto
          -109 37 -70 69 -35 vhcurveto
          -26 -93 rlineto
          -12 -3 9 -11 12 hhcurveto
          56 hlineto
          14 12 9 14 4 hvcurveto
          19 67 rlineto
          hintmask 10010000
          -1 11 11 0 12 hhcurveto
          27 60 1 34 67 hvcurveto
          28 15 1 1 10 vvcurveto
          -210 343 rmoveto
          -68 -245 rlineto
          -6 28 0 31 25 vvcurveto
          71 4 73 70 17 vhcurveto
          endchar
        </CharString>
        <CharString name="centigrade">
          947 -21 100 371 85 47 85 -56 85 -79 100 hstemhm
          305 142 259 142 hintmask 10001110
          891 48 rmoveto
          17 -3 16 -1 17 vhcurveto
          19 -1 1 29 -16 hhcurveto
          -9 -8 -10 -5 -7 hvcurveto
          -38 -54 -49 -14 -71 hhcurveto
          -60 -62 15 45 -42 hvcurveto
          -54 56 -8 86 73 vvcurveto
          120 33 143 195 57 53 -17 -40 46 vhcurveto
          -4 5 6 -5 6 hhcurveto
          hintmask 00100010
          16 15 98 18 31 -119 15 -54 3 hvcurveto
          hintmask 10001100
          1 -14 -15 0 -15 hhcurveto
          -18 hlineto
          -82 -8 -78 -12 -66 -54 rrcurveto
          -86 -70 -27 -114 -108 vvcurveto
          -117 27 -124 105 -72 vhcurveto
          -47 69 87 -12 82 hhcurveto
          70 60 11 38 65 hvcurveto
          8 5 13 3 12 vvcurveto
          -647 525 rmoveto
          hintmask 01010000
          75 -50 48 -73 vhcurveto
          -5 -5 -1 -4 hhcurveto
          -67 -7 -40 -47 -68 vvcurveto
          -73 49 -50 74 64 57 38 85 vhcurveto
          -84 hmoveto
          -25 -11 -13 -26 -19 -17 4 25 -3 vhcurveto
          9 vlineto
          23 6 15 33 vhcurveto
          hintmask 00100000
          21 13 -8 -21 3 hvcurveto
          endchar
        </CharString>
        <CharString name="circumflex">
          550 86 callgsubr
          437 556 -94 callgsubr
          endchar
        </CharString>
        <CharString name="circumflex.cap">
          113 callsubr
          127 -20 hstem
          447 532 -106 callsubr
          endchar
        </CharString>
        <CharString name="circumflex.dup">
          550 86 callgsubr
          437 556 -94 callgsubr
          endchar
        </CharString>
        <CharString name="colon">
          306 0 9 callgsubr
          26 vhcurveto
          77 hlineto
          26 1 1 26 hvcurveto
          endchar
        </CharString>
        <CharString name="colonmonetary">
          119 callsubr
          129 100 hintmask 10101000
          74 callsubr
          -54 -39 -35 -16 -83 -1 rrcurveto
          538 vlineto
          70 -2 42 -22 41 -35 rrcurveto
          55 callgsubr
          hintmask 10111000
          -41 15 -47 13 -81 1 rrcurveto
          104 125 callgsubr
          -14 -10 -10 -14 hvcurveto
          -111 vlineto
          -191 -30 -85 -128 -204 vvcurveto
          -221 100 -113 176 -28 vhcurveto
          -111 vlineto
          -13 10 -11 14 vhcurveto
          52 91 callsubr
          104 vlineto
          78 1 41 10 63 34 rrcurveto
          27 15 1 1 10 vvcurveto
          -310 44 rmoveto
          -103 37 -26 103 114 vvcurveto
          78 10 132 119 44 vhcurveto
          endchar
        </CharString>
        <CharString name="comma">
          306 -85 133 callsubr
          27 rmoveto
          77 -52 callsubr
          -6 -16 -5 -16 -6 -16 rrcurveto
          -6 -15 -10 -30 0 13 callsubr
          12 99 callsubr
          16 10 hvcurveto
          52 83 rlineto
          9 14 0 2 17 vvcurveto
          endchar
        </CharString>
        <CharString name="copyleft">
          65 callsubr
          546 74 vstem
          -58 callgsubr
          -102 hmoveto
          121 -58 70 -131 -45 -25 -8 -7 -22 vhcurveto
          -14 -5 -1 0 -5 vvcurveto
          -2 0 -1 1 -4 vhcurveto
          8 -45 rlineto
          -7 2 2 -2 3 hhcurveto
          3 1 1 3 3 hvcurveto
          18 23 22 12 39 hhcurveto
          106 8 -90 -49 -74 -22 -65 -94 -45 -18 9 20 -28 hvcurveto
          6 -7 -1 0 -2 hhcurveto
          -5 -1 -5 -4 -1 hvcurveto
          -8 -3 -26 -7 vvcurveto
          -5 1 0 13 -8 vhcurveto
          -18 34 21 -5 43 hhcurveto
          120 70 57 133 hvcurveto
          endchar
        </CharString>
        <CharString name="copyright">
          65 callsubr
          546 74 vstem
          -58 callgsubr
          -142 -153 rmoveto
          6 -2 27 -1 7 vhcurveto
          4 -1 5 -5 -3 -1 0 -6 -6 vhcurveto
          -20 -29 -18 -8 -45 hhcurveto
          -93 -22 64 74 49 7 90 106 40 22 -12 -18 22 hvcurveto
          -3 3 2 -1 2 hhcurveto
          3 3 1 8 1 hvcurveto
          8 45 rlineto
          1 4 0 1 2 vvcurveto
          4 0 1 -15 5 vhcurveto
          7 -21 -26 7 -44 hhcurveto
          -132 -58 -69 -121 -133 70 -57 120 43 21 5 18 34 hvcurveto
          14 8 0 0 6 vvcurveto
          endchar
        </CharString>
        <CharString name="copyright.alt">
          733 -137 74 426 90 -21 90 0 74 hstemhm
          0 74 585 74 hintmask 11011100
          733 229 rmoveto
          225 -142 142 -225 -224 -142 -142 -225 -225 142 -141 224 225 142 141 225 vhcurveto
          -74 hmoveto
          -179 -113 -113 -180 -179 -113 113 179 180 113 113 179 180 113 -113 -180 vhcurveto
          -114 -197 rmoveto
          8 -3 35 -1 9 vhcurveto
          5 -2 7 -6 -3 -1 0 -8 -9 vhcurveto
          -26 -36 -23 -11 -58 hhcurveto
          -120 -28 83 95 62 10 116 136 50 28 -16 -23 29 hvcurveto
          -4 3 2 -1 4 hhcurveto
          4 3 2 10 2 hvcurveto
          hintmask 00100000
          10 57 rlineto
          1 6 0 1 2 vvcurveto
          hintmask 01000000
          6 0 0 -19 6 vhcurveto
          10 -28 -32 10 -57 hhcurveto
          -168 -75 -90 -154 -170 90 -74 154 55 27 7 23 43 hvcurveto
          17 10 1 1 6 vvcurveto
          endchar
        </CharString>
        <CharString name="currency">
          856 -5 84 342 84 hstem
          173 84 342 84 vstem
          687 -9 rmoveto
          30 30 -30 30 -7 7 -44 44 rcurveline
          29 42 18 51 55 vvcurveto
          55 -18 52 -30 41 vhcurveto
          44 44 7 7 30 30 -29 30 rlinecurve
          -30 30 -30 -31 -8 -7 -43 -43 rcurveline
          30 -42 -51 17 -55 hhcurveto
          -55 -51 -17 -30 -42 hvcurveto
          -44 44 -8 7 -30 31 -30 -30 rlinecurve
          -29 -30 30 -30 7 -7 44 -45 rcurveline
          -30 -41 -17 -52 -55 vvcurveto
          -55 17 -51 30 -42 vhcurveto
          -44 -44 -7 -7 -30 -30 29 -30 rlinecurve
          30 -30 30 31 8 7 43 43 rcurveline
          -29 42 51 -18 56 hhcurveto
          55 51 18 30 42 hvcurveto
          44 -44 7 -7 31 -31 29 30 rlinecurve
          -88 259 rmoveto
          -95 -77 -76 -94 -95 -76 76 95 95 76 76 95 94 77 -76 -95 vhcurveto
          endchar
        </CharString>
        <CharString name="cwm">
          0 endchar
        </CharString>
        <CharString name="cwmascender">
          0 endchar
        </CharString>
        <CharString name="cwmcapital">
          0 endchar
        </CharString>
        <CharString name="d">
          147 callgsubr
          53 callsubr
          hintmask 11110100
          -17 callsubr
          hintmask 11011000
          -29 callgsubr
          endchar
        </CharString>
        <CharString name="dagger">
          511 388 111 203 -20 hstemhm
          200 111 -32 111 hintmask 10010000
          447 443 rmoveto
          149 callsubr
          -33 -16 -9 -2 -13 -3 3 28 7 23 9 27 rrcurveto
          hintmask 11100000
          11 36 11 37 33 vvcurveto
          49 -37 10 -18 -22 -34 -13 -46 -33 11 -36 10 -32 vhcurveto
          10 -33 7 -23 3 -27 -10 2 -11 3 -19 9 rrcurveto
          12 -24 -29 14 -27 105 callgsubr
          33 16 9 2 13 3 -3 -27 -10 -28 -7 -20 rrcurveto
          -21 -64 0 -15 -43 vvcurveto
          -129 10 -130 16 -128 vhcurveto
          2 -16 4 -28 3 -4 rrcurveto
          -7 3 8 0 9 hhcurveto
          hintmask 00010000
          11 10 0 11 3 hvcurveto
          hintmask 00100000
          2 12 30 208 211 vvcurveto
          46 0 12 -23 70 vhcurveto
          -7 21 -8 25 -3 23 10 -2 11 -3 19 -9 rrcurveto
          hintmask 10010000
          -12 24 29 -14 27 hhcurveto
          41 16 30 25 hvcurveto
          endchar
        </CharString>
        <CharString name="daggerdbl">
          511 -32 111 323 111 -92 110 171 -20 hstemhm
          200 111 hintmask 00100000
          447 476 rmoveto
          28 -19 27 -37 vhcurveto
          hintmask 01011000
          -18 -23 -6 -12 -24 hvcurveto
          -32 -15 -6 -2 -17 -4 3 18 1 8 13 33 rrcurveto
          13 34 10 31 28 vvcurveto
          44 -34 14 -21 -26 -30 -16 -42 -31 14 -36 10 -27 vhcurveto
          12 -33 1 -6 3 -19 -15 4 -6 1 -19 9 rrcurveto
          hintmask 00101000
          12 -24 -28 13 -28 hhcurveto
          -37 -19 -27 -28 -13 6 -42 51 13 16 0 24 49 hvcurveto
          20 10 5 1 16 4 -3 -18 -1 -8 -13 -33 rrcurveto
          -13 -34 -10 -31 -28 vvcurveto
          -44 34 -14 21 26 30 16 42 vhcurveto
          hintmask 01001000
          31 -14 36 -10 27 vhcurveto
          -12 33 -1 6 -3 19 15 -4 6 -1 19 -9 rrcurveto
          hintmask 10101000
          -21 42 17 -4 20 hhcurveto
          51 6 42 13 hvcurveto
          -453 vmoveto
          149 callsubr
          -28 -13 -12 -4 -14 -4 3 20 1 6 16 44 rrcurveto
          14 36 6 25 21 vvcurveto
          44 -34 14 -21 -26 -30 -16 -42 -28 11 -31 11 -30 vhcurveto
          14 -37 1 -7 3 -19 -13 3 -11 4 -15 8 rrcurveto
          12 -26 -28 13 -26 105 callgsubr
          22 10 16 7 16 4 -3 -20 -1 -6 -16 -44 rrcurveto
          -14 -36 -6 -25 -21 vvcurveto
          -44 34 -14 21 26 30 16 42 28 -11 31 -11 30 vhcurveto
          -14 37 -1 7 -3 19 18 -5 15 -7 23 -10 rrcurveto
          -9 18 24 -9 21 hhcurveto
          41 16 30 25 hvcurveto
          endchar
        </CharString>
        <CharString name="dblbracketleft">
          443 -249 84 832 84 hstem
          109 84 54 84 vstem
          418 -207 rmoveto
          25 -12 17 -35 vhcurveto
          -40 832 40 hlineto
          35 12 17 25 25 -12 17 -35 hvcurveto
          -215 hlineto
          -36 -12 -19 -26 hvcurveto
          -8 1 -8 -7 vvcurveto
          -887 vlineto
          -32 16 -13 31 vhcurveto
          215 hlineto
          35 12 17 25 hvcurveto
          -171 42 rmoveto
          -54 832 54 hlineto
          endchar
        </CharString>
        <CharString name="dblbracketright">
          443 -249 84 832 84 hstem
          111 84 54 84 vstem
          333 -202 rmoveto
          908 vlineto
          32 -16 13 -31 vhcurveto
          -214 143 callsubr
          39 -832 -39 143 callsubr
          214 hlineto
          38 9 20 27 hvcurveto
          -84 37 rmoveto
          -54 832 54 hlineto
          endchar
        </CharString>
        <CharString name="dblgrave.ts1">
          550 547 176 1 -20 hstemhm
          hintmask 01000000
          249 561 rmoveto
          45 -14 48 -5 44 vhcurveto
          14 callgsubr
          183 hmoveto
          45 -14 48 -5 44 vhcurveto
          hintmask 01000000
          14 callgsubr
          endchar
        </CharString>
        <CharString name="dblverticalbar">
          571 750 -20 hstem
          129 61 191 61 vstem
          190 -206 rmoveto
          27 callgsubr
          252 hmoveto
          27 callgsubr
          endchar
        </CharString>
        <CharString name="dcaron">
          109 callgsubr
          33 -21 95 118 53 callsubr
          hintmask 11011010
          -17 callsubr
          hintmask 11111100
          -29 callgsubr
          295 234 -103 callgsubr
        </CharString>
        <CharString name="dcroat">
          109 callgsubr
          57 100 68 -20 53 callsubr
          hintmask 11111010
          590 562 rmoveto
          28 vlineto
          20 -16 16 -20 vhcurveto
          -55 20 35 callgsubr
          -37 hlineto
          -77 callsubr
          -20 -106 vlineto
          -19 -17 -16 -20 hvcurveto
          -28 vlineto
          -19 17 -17 19 vhcurveto
          106 -107 hlineto
          43 -45 -50 7 -31 hhcurveto
          -203 0 -192 -49 -46 0 -193 198 hvcurveto
          hintmask 11101100
          42 43 12 46 43 hvcurveto
          -37 14 -10 34 vhcurveto
          -49 callsubr
          478 55 vlineto
          20 16 17 19 hvcurveto
          -227 -437 rmoveto
          -17 0 -9 -29 -20 vhcurveto
          -16 -25 -23 -2 -12 hhcurveto
          -101 0 92 75 75 0 94 112 29 27 -10 -21 22 hvcurveto
          endchar
        </CharString>
        <CharString name="ddotbelow">
          147 callgsubr
          hstemhm
          37 136 34 147 9 136 -133 133 hintmask 11110010
          -17 callsubr
          hintmask 11010100
          -29 callgsubr
          hintmask 00001000
          -9 -518 rmoveto
          -105 callsubr
          endchar
        </CharString>
        <CharString name="degree">
          413 389 84 137 84 hstem
          53 84 138 84 vstem
          359 542 rmoveto
          84 -68 68 -85 -84 -69 -68 -84 -85 69 -68 84 85 68 68 85 vhcurveto
          -84 hmoveto
          -38 -31 -31 -38 -38 -31 31 38 38 31 30 38 38 31 -30 -38 vhcurveto
          endchar
        </CharString>
        <CharString name="diameter">
          856 -95 84 522 84 hstem
          83 84 522 84 vstem
          794 575 rmoveto
          23 -19 19 -23 -12 -10 -5 -7 -8 vhcurveto
          -82 -83 rlineto
          46 -59 -73 27 -80 hhcurveto
          -191 -154 -154 -191 -80 27 -74 46 -58 hvcurveto
          -83 -83 rlineto
          -7 -8 -5 -10 -12 vvcurveto
          -23 19 -19 23 12 10 5 7 8 vhcurveto
          82 83 rlineto
          -46 59 74 -27 80 hhcurveto
          191 154 154 191 80 -27 74 -47 59 hvcurveto
          83 82 rlineto
          7 8 5 10 12 vvcurveto
          -105 -325 rmoveto
          -144 -117 -117 -144 -57 -53 18 31 -43 vhcurveto
          365 365 rlineto
          31 -43 18 -53 -57 vvcurveto
          -109 212 rmoveto
          -364 -364 rlineto
          -31 43 -18 52 57 vvcurveto
          144 117 117 144 57 52 -18 -31 43 vhcurveto
          endchar
        </CharString>
        <CharString name="died">
          550 -4 -21 358 104 -97 90 201 -20 hstemhm
          206 137 hintmask 01000000
          524 385 rmoveto
          21 -1 31 -36 -13 -14 -2 -1 -13 vhcurveto
          hintmask 00111000
          -3 -34 -35 -1 -35 hhcurveto
          153 vlineto
          25 -6 23 -38 vhcurveto
          -43 hlineto
          -26 -25 -6 -42 hvcurveto
          -9 1 -9 -8 vvcurveto
          -127 vlineto
          -35 -35 1 3 -34 hvcurveto
          hintmask 01000000
          1 -13 -14 2 -13 hhcurveto
          -34 -3 -29 -22 hvcurveto
          -6 vlineto
          -18 4 -29 32 13 15 2 1 13 vhcurveto
          hintmask 10101000
          3 34 35 1 35 hhcurveto
          -315 vlineto
          -28 9 -22 36 vhcurveto
          44 hlineto
          22 26 2 44 hvcurveto
          319 vlineto
          35 35 -1 -3 34 hvcurveto
          hintmask 01000000
          -1 13 15 -2 13 hhcurveto
          35 1 32 20 hvcurveto
          endchar
        </CharString>
        <CharString name="dieresis">
          550 564 103 hstem
          88 28 callsubr
          vstem
          -54 callsubr
          endchar
        </CharString>
        <CharString name="dieresis.cap">
          550 510 103 hstem
          66 54 callsubr
          vstem
          -19 callgsubr
          endchar
        </CharString>
        <CharString name="dieresis.dup">
          550 564 103 hstem
          88 28 callsubr
          vstem
          -54 callsubr
          endchar
        </CharString>
        <CharString name="dieresis.ts1">
          550 588 135 1 -20 hstemhm
          100 136 77 136 hintmask 01010000
          449 625 rmoveto
          58 vlineto
          38 -27 3 -22 vhcurveto
          -43 hlineto
          hintmask 10110000
          -5 -5 0 -1 -4 hvcurveto
          -28 -2 -33 -17 hvcurveto
          -38 vlineto
          -40 23 -7 26 vhcurveto
          43 hlineto
          22 22 8 29 hvcurveto
          -213 14 rmoveto
          38 vlineto
          hintmask 01000000
          40 -23 7 -26 vhcurveto
          -42 hlineto
          hintmask 10100000
          130 callgsubr
          -28 -2 -31 -18 hvcurveto
          -45 vlineto
          -39 28 -2 21 vhcurveto
          42 hlineto
          42 3 26 25 hvcurveto
          endchar
        </CharString>
        <CharString name="discount">
          550 22 -21 36 144 391 142 36 142 callsubr
          138 144 -16 145 -144 144 hintmask 00001000
          488 705 rmoveto
          3 vlineto
          23 -19 20 -23 vhcurveto
          hintmask 11010001
          0 -4 -1 -3 vhcurveto
          -22 -3 -7 -18 -10 -17 -55 -107 rcurveline
          -267 -518 -6 -12 -9 -12 -2 -14 rlinecurve
          -5 vlineto
          -23 19 -20 23 vhcurveto
          3 hlineto
          24 2 8 17 10 18 324 629 rcurveline
          6 12 9 12 1 14 rrcurveto
          -77 -610 rmoveto
          -30 -5 -28 -51 vhcurveto
          -32 hlineto
          -27 -29 7 44 hvcurveto
          14 vlineto
          hintmask 01100010
          8 -1 8 8 vvcurveto
          27 9 21 32 7 vhcurveto
          48 hlineto
          30 26 -9 -46 hvcurveto
          -129 505 rmoveto
          -30 -5 -29 -47 vhcurveto
          -38 hlineto
          hintmask 00100100
          -29 -25 10 44 hvcurveto
          30 vlineto
          22 4 36 32 vhcurveto
          1 5 5 0 6 hhcurveto
          37 hlineto
          29 26 -10 -44 hvcurveto
          endchar
        </CharString>
        <CharString name="divide">
          856 -33 131 110 84 109 131 hstem
          362 131 vstem
          794 250 22 callgsubr
          -301 178 -13 callsubr
          -434 vmoveto
          50 callgsubr
        </CharString>
        <CharString name="divorced">
          550 -101 -21 144 104 250 104 144 -20 hstem
          -235 104 337 137 337 104 cntrmask 00001110
          205 251 rmoveto
          61 -13 62 -43 46 vhcurveto
          48 -46 -67 12 -63 hhcurveto
          -13 hlineto
          -51 -5 -50 -13 -37 -38 rrcurveto
          -43 -45 -14 -63 -61 vvcurveto
          -64 11 -67 47 -47 vhcurveto
          -41 41 59 -14 57 hhcurveto
          112 113 51 178 hvcurveto
          579 4 rmoveto
          61 -14 62 -42 45 vhcurveto
          45 -43 -64 12 -59 hhcurveto
          -13 hlineto
          -54 -6 -54 -12 -39 -40 rrcurveto
          -45 -46 -13 -64 -62 vvcurveto
          -62 14 -64 45 -45 vhcurveto
          -42 43 62 -15 59 hhcurveto
          111 106 52 181 hvcurveto
          -441 -332 rmoveto
          655 vlineto
          42 -25 4 -24 vhcurveto
          -43 hlineto
          130 callgsubr
          -22 -4 -8 -20 -20 vvcurveto
          -655 vlineto
          -42 25 -4 24 vhcurveto
          43 hlineto
          33 12 19 26 hvcurveto
          337 328 rmoveto
          -65 -17 -60 -93 -27 -32 6 21 -18 vhcurveto
          -21 25 1 33 -3 31 rrcurveto
          6 vlineto
          52 2 76 97 27 32 -4 -19 21 vhcurveto
          28 -27 3 -39 -36 vvcurveto
          -602 -10 rmoveto
          -52 -3 0 -63 -96 hhcurveto
          -63 -47 23 102 57 10 68 101 82 14 -54 -55 2 hvcurveto
          endchar
        </CharString>
        <CharString name="dlinebelow">
          561 -184 85 88 72 336 72 225 -20 53 callsubr
          hintmask 01111010
          -17 callsubr
          hintmask 01101100
          -29 callgsubr
          hintmask 10000000
          117 -523 rmoveto
          -91 callgsubr
        </CharString>
        <CharString name="dollar">
          550 -35 -21 49 100 509 100 48 -20 hstemhm
          61 116 -72 72 62 72 61 116 hintmask 00010110
          488 207 rmoveto
          115 -76 86 -101 20 vhcurveto
          175 vlineto
          61 -7 35 -27 25 -20 rrcurveto
          -5 6 2 0 3 hhcurveto
          11 2 9 13 2 hvcurveto
          10 57 rlineto
          1 3 1 7 3 vvcurveto
          16 -65 28 0 vhcurveto
          -37 17 -42 6 -15 1 rrcurveto
          9 0 37 -36 -36 0 -37 -10 vhcurveto
          -65 -6 -40 -21 -29 -33 rrcurveto
          hintmask 11101011
          -33 -38 -11 -56 -48 vvcurveto
          -106 75 -83 103 -18 vhcurveto
          -203 vlineto
          -60 8 -51 27 -40 36 rrcurveto
          3 -3 -4 2 -5 118 callsubr
          -6 -1 hvcurveto
          -2 -14 -12 -57 -10 vvcurveto
          -7 1 -1 24 -16 vhcurveto
          32 -21 56 -28 77 -7 rrcurveto
          -10 0 -37 36 36 0 36 11 vhcurveto
          124 15 53 78 123 vvcurveto
          -249 238 rmoveto
          -37 13 -25 27 39 vvcurveto
          39 18 30 44 9 vhcurveto
          133 -418 rmoveto
          -64 -32 -20 -29 -7 vhcurveto
          183 vlineto
          37 -15 24 -34 -43 vvcurveto
          endchar
        </CharString>
        <CharString name="dollar.oldstyle">
          672 -10 102 -101 21 -20 100 -98 -21 39 102 77 100 238 102 -11 102 -91 102 -101 102 -100 100 -21 21 17 -20 hstemhm
          452 115 -72 72 -72 115 cntrmask 0000000000000111
          hintmask 0000000100000111
          610 217 rmoveto
          10 vlineto
          -6 73 -44 60 -63 37 rrcurveto
          -23 15 -22 8 0 vvcurveto
          200 vlineto
          35 -11 33 -15 32 -18 rrcurveto
          -2 5 5 -3 5 hhcurveto
          14 3 11 74 14 vvcurveto
          15 -26 7 -11 5 vhcurveto
          hintmask 0000000000010111
          -20 9 -21 9 -22 6 rrcurveto
          -18 6 -22 5 0 vvcurveto
          hintmask 0000000000001111
          20 -4 -20 7 -10 hhcurveto
          hintmask 0000000010000111
          -23 -6 -8 -10 -9 hvcurveto
          hintmask 0000000000100111
          -10 -21 1 -20 hhcurveto
          hintmask 0000000010000111
          -38 -1 rlineto
          hintmask 0000000100001111
          11 -11 -5 7 -20 hhcurveto
          -17 -15 -11 -18 -4 hvcurveto
          hintmask 0001101000000111
          -92 -12 -66 -87 -94 vvcurveto
          -87 60 -70 85 -34 vhcurveto
          13 -6 rlineto
          -226 vlineto
          -42 11 -43 19 -36 24 -6 4 -5 5 -7 2 rrcurveto
          -3 hlineto
          -19 -8 -85 -9 -18 24 -5 14 -8 hvcurveto
          28 -14 31 -11 30 -9 12 -3 14 -2 16 -4 4 -9 5 -19 24 -2 rrcurveto
          3 hlineto
          hintmask 0010000000000111
          24 2 6 13 10 hvcurveto
          hintmask 1000000000000111
          11 26 -2 5 hhcurveto
          hintmask 0100000000000111
          47 1 rlineto
          hintmask 0001000010000111
          -10 9 9 -8 18 hhcurveto
          17 16 12 18 3 hvcurveto
          102 13 56 107 94 vvcurveto
          -230 222 rmoveto
          -89 22 rlineto
          170 vlineto
          hintmask 0000000000100111
          0 27 3 9 vhcurveto
          hintmask 0000110001000111
          25 28 -2 0 hvcurveto
          -161 -147 rmoveto
          -24 13 -19 21 28 vvcurveto
          29 18 23 25 15 vhcurveto
          276 -423 rmoveto
          -31 -17 -30 -26 -16 vhcurveto
          150 vlineto
          23 -17 20 -23 -33 vvcurveto
          -115 -99 rmoveto
          hintmask 0010010000000111
          -89 222 hlineto
          89 -23 rlineto
          endchar
        </CharString>
        <CharString name="dong">
          561 -100 100 -76 100 hstemhm
          hintmask 01000000
          560 569 rmoveto
          26 vlineto
          19 -15 15 -19 vhcurveto
          -52 19 hlineto
          31 -7 15 -39 vhcurveto
          -35 hlineto
          -36 -9 -12 -34 hvcurveto
          -19 -101 vlineto
          -18 -16 -15 -19 hvcurveto
          -26 vlineto
          -18 16 -17 18 vhcurveto
          101 -101 hlineto
          41 -43 -48 6 -29 hhcurveto
          -193 0 -182 -47 -43 0 -184 188 40 41 12 43 41 hvcurveto
          -35 13 -9 32 vhcurveto
          38 hlineto
          37 9 12 33 hvcurveto
          454 52 vlineto
          19 15 17 18 hvcurveto
          -645 vmoveto
          52 vlineto
          hintmask 10000000
          13 -10 11 -14 vhcurveto
          -477 hlineto
          138 callsubr
          hintmask 01000000
          -52 vlineto
          hintmask 10000000
          98 callsubr
          478 hlineto
          hintmask 01000000
          13 10 11 13 hvcurveto
          -215 229 rmoveto
          -16 0 -8 -28 -19 vhcurveto
          -15 -23 -22 -2 -12 hhcurveto
          -96 0 87 71 72 0 89 107 27 26 -10 -20 21 hvcurveto
          endchar
        </CharString>
        <CharString name="dotaccent">
          306 558 108 callgsubr
          606 rmoveto
          -105 callsubr
          endchar
        </CharString>
        <CharString name="dotaccent.alt">
          306 519 108 callgsubr
          567 rmoveto
          -105 callsubr
          endchar
        </CharString>
        <CharString name="dotaccent.cap">
          306 510 108 callgsubr
          558 rmoveto
          -105 callsubr
          endchar
        </CharString>
        <CharString name="dotlessi">
          34 callgsubr
          hstem
          61 133 vstem
          -75 callsubr
          endchar
        </CharString>
        <CharString name="dotlessj">
          57 callsubr
          hstemhm
          -42 99 callgsubr
          hintmask 11010000
          -32 callgsubr
          hintmask 10100000
          -12 callsubr
          hintmask 00010000
          110 39 74 99 hvcurveto
          endchar
        </CharString>
        <CharString name="e">
          -23 callgsubr
          -5 callgsubr
          hintmask 00101000
          -43 callsubr
          hintmask 10010000
          -160 -79 -90 -152 -164 95 -80 157 38 57 5 33 66 hvcurveto
          22 11 7 3 12 vvcurveto
          7 -3 29 -1 8 vhcurveto
          31 -4 -1 1 -9 hhcurveto
          -4 -2 0 -10 -11 hvcurveto
          -51 -59 -60 -7 -32 hhcurveto
          hintmask 01001100
          -65 callsubr
          hintmask 01010000
          -208 hlineto
          hintmask 01101100
          -42 callgsubr
          endchar
        </CharString>
        <CharString name="eacute">
          -23 callgsubr
          83 -21 157 -83 callsubr
          44 414 -96 callsubr
        </CharString>
        <CharString name="ebreve">
          -23 callgsubr
          70 93 49 -83 callsubr
          77 382 -92 callgsubr
        </CharString>
        <CharString name="ecaron">
          -23 callgsubr
          81 -21 162 -94 callsubr
          hintmask 00011010
          50 411 -90 callgsubr
        </CharString>
        <CharString name="ecircumflex">
          -23 callgsubr
          81 -21 162 -83 callsubr
          50 289 -94 callgsubr
          endchar
        </CharString>
        <CharString name="ecircumflexacute">
          -23 callgsubr
          81 -21 306 -83 callsubr
          60 290 -106 callsubr
          -25 261 -98 callsubr
        </CharString>
        <CharString name="ecircumflexdotbelow">
          -23 callgsubr
          81 -21 162 -20 31 callsubr
          -88 147 39 111 hintmask 0010001000000000
          -43 callsubr
          hintmask 1000010000000000
          -160 -79 -90 -152 -164 95 -80 157 38 57 5 33 66 hvcurveto
          22 11 7 3 12 vvcurveto
          7 -3 29 -1 8 vhcurveto
          31 -4 -1 1 -9 hhcurveto
          -4 -2 0 -10 -11 hvcurveto
          -51 -59 -60 -7 -32 hhcurveto
          hintmask 0100001010000000
          -65 callsubr
          hintmask 0100010000000000
          -208 hlineto
          hintmask 0111101010000000
          -42 callgsubr
          50 289 -94 callgsubr
          hintmask 0000000100000000
          -89 -708 rmoveto
          -105 callsubr
          endchar
        </CharString>
        <CharString name="ecircumflexgrave">
          -23 callgsubr
          81 -21 127 -83 callsubr
          60 290 -106 callsubr
          -23 175 -51 callgsubr
        </CharString>
        <CharString name="ecircumflexhookabove">
          -23 callgsubr
          81 -21 363 -83 callsubr
          60 290 -106 callsubr
          42 267 rmoveto
          -107 callgsubr
        </CharString>
        <CharString name="ecircumflextilde">
          -23 callgsubr
          81 -21 197 72 -13 72 -5 callgsubr
          hintmask 0010000100000000
          -43 callsubr
          hintmask 1000001000000000
          -160 -79 -90 -152 -164 95 -80 157 38 57 5 33 66 hvcurveto
          22 11 7 3 12 vvcurveto
          7 -3 29 -1 8 vhcurveto
          31 -4 -1 1 -9 hhcurveto
          -4 -2 0 -10 -11 hvcurveto
          -51 -59 -60 -7 -32 hhcurveto
          hintmask 0100000110000000
          -65 callsubr
          hintmask 0100001000000000
          -208 hlineto
          hintmask 0110000110000000
          -42 callgsubr
          hintmask 0001010000000000
          60 290 -26 callgsubr
          hintmask 0000100000000000
          -39 -4 -24 -5 -10 hhcurveto
          -16 -16 11 11 -15 hvcurveto
          hintmask 0000010000000000
          15 -22 -31 22 -45 hhcurveto
          -71 -39 -65 -49 hvcurveto
          hintmask 0000100000000000
          -17 8 0 19 vhcurveto
          18 hlineto
          20 5 0 15 2 hvcurveto
          hintmask 0000010000000000
          39 4 24 5 10 hhcurveto
          16 16 -11 -11 15 hvcurveto
          hintmask 0000100000000000
          -15 22 31 -22 45 hhcurveto
          71 39 65 49 hvcurveto
          endchar
        </CharString>
        <CharString name="edblgrave">
          -23 callgsubr
          83 -21 157 -83 callsubr
          46 284 -101 callgsubr
        </CharString>
        <CharString name="edieresis">
          -23 callgsubr
          89 103 117 callsubr
          -91 132 -42 111 41 132 -75 111 hintmask 0010001000000000
          -43 callsubr
          hintmask 1000100000000000
          -160 -79 -90 -152 -164 95 -80 157 38 57 5 33 66 hvcurveto
          22 11 7 3 12 vvcurveto
          7 -3 29 -1 8 vhcurveto
          31 -4 -1 1 -9 hhcurveto
          -4 -2 0 -10 -11 hvcurveto
          -51 -59 -60 -7 -32 hhcurveto
          hintmask 0100001010000000
          -65 callsubr
          hintmask 0100100000000000
          -208 hlineto
          hintmask 0110001010000000
          -42 callgsubr
          hintmask 0001010100000000
          -167 340 -69 callgsubr
        </CharString>
        <CharString name="edotaccent">
          -23 callgsubr
          83 115 31 callsubr
          -88 147 39 111 hintmask 00100100
          -43 callsubr
          hintmask 10001000
          -160 -79 -90 -152 -164 95 -80 157 38 57 5 33 66 hvcurveto
          22 11 7 3 12 vvcurveto
          7 -3 29 -1 8 vhcurveto
          31 -4 -1 1 -9 hhcurveto
          -4 -2 0 -10 -11 hvcurveto
          -51 -59 -60 -7 -32 hhcurveto
          hintmask 01000101
          -65 callsubr
          hintmask 01001000
          -208 hlineto
          hintmask 01100101
          -42 callgsubr
          hintmask 00010010
          -39 339 rmoveto
          -105 callsubr
          endchar
        </CharString>
        <CharString name="edotbelow">
          -23 callgsubr
          31 callsubr
          -88 147 39 111 hintmask 00101000
          -43 callsubr
          hintmask 10010000
          -160 -79 -90 -152 -164 95 -80 157 38 57 5 33 66 hvcurveto
          22 11 7 3 12 vvcurveto
          7 -3 29 -1 8 vhcurveto
          31 -4 -1 1 -9 hhcurveto
          -4 -2 0 -10 -11 hvcurveto
          -51 -59 -60 -7 -32 hhcurveto
          hintmask 01001010
          -65 callsubr
          hintmask 01010000
          -208 hlineto
          hintmask 01101010
          -42 callgsubr
          hintmask 00000100
          -39 -419 rmoveto
          -105 callsubr
          endchar
        </CharString>
        <CharString name="egrave">
          -23 callgsubr
          83 -21 157 -94 callsubr
          hintmask 00011010
          -34 283 rmoveto
          -74 callgsubr
        </CharString>
        <CharString name="ehookabove">
          -23 callgsubr
          59 -21 206 -94 callsubr
          hintmask 00011010
          -5 378 rmoveto
          -107 callgsubr
        </CharString>
        <CharString name="eight">
          550 89 callgsubr
          hstem
          46 139 179 139 vstem
          503 -4 callgsubr
        </CharString>
        <CharString name="eight.oldstyle">
          619 89 callgsubr
          hstemhm
          81 100 callgsubr
          538 -11 callsubr
        </CharString>
        <CharString name="eight.prop">
          619 89 callgsubr
          hstem
          81 139 179 139 vstem
          538 -4 callgsubr
        </CharString>
        <CharString name="eight.taboldstyle">
          550 89 callgsubr
          hstemhm
          46 100 callgsubr
          503 -11 callsubr
        </CharString>
        <CharString name="ellipsis">
          768 0 131 hstem
          88 131 100 131 100 131 cntrmask 01110000
          219 27 -13 callsubr
          231 hmoveto
          -47 callgsubr
          231 hmoveto
          50 callgsubr
        </CharString>
        <CharString name="emacron">
          -23 callgsubr
          98 85 -5 callgsubr
          hintmask 00100100
          -43 callsubr
          hintmask 10001000
          -160 -79 -90 -152 -164 95 -80 157 38 57 5 33 66 hvcurveto
          22 11 7 3 12 vvcurveto
          7 -3 29 -1 8 vhcurveto
          31 -4 -1 1 -9 hhcurveto
          -4 -2 0 -10 -11 hvcurveto
          -51 -59 -60 -7 -32 hhcurveto
          hintmask 01000110
          -65 callsubr
          hintmask 01001000
          -208 hlineto
          hintmask 01100110
          -42 callgsubr
          hintmask 00010000
          87 333 rmoveto
          -91 callgsubr
        </CharString>
        <CharString name="emdash">
          1100 247 72 hstem
          0 1099 vstem
          1099 283 rmoveto
          36 -36 0 -12 vhcurveto
          -1003 hlineto
          -12 -36 0 -36 -36 36 0 12 hvcurveto
          1003 hlineto
          48 callgsubr
        </CharString>
        <CharString name="emdash.alt">
          733 248 72 hstem
          732 284 rmoveto
          22 -17 14 -28 vhcurveto
          -646 hlineto
          -4 -4 0 -1 -3 hvcurveto
          -19 -3 -11 -17 -16 vvcurveto
          -26 23 -9 23 vhcurveto
          641 hlineto
          23 22 10 26 hvcurveto
          endchar
        </CharString>
        <CharString name="endash">
          550 247 72 hstem
          0 549 vstem
          549 283 rmoveto
          36 -36 0 -12 vhcurveto
          -453 hlineto
          -12 -36 0 -36 -36 36 0 12 hvcurveto
          453 hlineto
          48 callgsubr
        </CharString>
        <CharString name="eng">
          561 21 116 callgsubr
          hintmask 01001000
          13 callgsubr
          hintmask 10111000
          83 callsubr
          -105 -45 -76 -27 -13 vhcurveto
          -1 50 35 callgsubr
          -34 -51 callsubr
          -368 vlineto
          -21 callgsubr
          -45 0 -50 -16 -28 vhcurveto
          -39 -69 rlineto
          -9 vlineto
          -26 22 -20 23 7 vhcurveto
          90 26 56 104 110 vvcurveto
          endchar
        </CharString>
        <CharString name="eogonek">
          102 callgsubr
          87 callgsubr
          hintmask 0000101000000000
          -43 callsubr
          hintmask 0100010001000000
          115 callgsubr
          hintmask 1000000010000000
          45 callsubr
          hintmask 1000000001000000
          -5 -22 -21 -7 -21 hhcurveto
          hintmask 0010000010000000
          29 callsubr
          hintmask 0101000100100000
          -51 -59 -60 -7 -32 hhcurveto
          -65 callsubr
          -208 hlineto
          hintmask 0001101000100000
          -42 callgsubr
          endchar
        </CharString>
        <CharString name="eogonekacute">
          102 callgsubr
          83 -21 157 -20 87 callgsubr
          hintmask 0000100010000000
          -43 callsubr
          hintmask 0100000100010000
          115 callgsubr
          hintmask 1000000000100000
          45 callsubr
          hintmask 1000000000010000
          -5 -22 -21 -7 -21 hhcurveto
          hintmask 0010000000100000
          29 callsubr
          hintmask 0101000001001000
          -51 -59 -60 -7 -32 hhcurveto
          -65 callsubr
          -208 hlineto
          hintmask 0001100010001000
          -42 callgsubr
          hintmask 0000011000000000
          44 414 -96 callsubr
        </CharString>
        <CharString name="equal">
          856 93 84 146 84 hstem
          61 733 vstem
          794 365 22 callgsubr
          -230 vmoveto
          42 -43 0 -11 vhcurveto
          -625 hlineto
          -12 -42 0 -42 -42 43 0 10 hvcurveto
          627 hlineto
          153 callgsubr
        </CharString>
        <CharString name="ereversed">
          -23 callgsubr
          hstemhm
          31 111 98 111 -1 129 hintmask 11111000
          479 233 rmoveto
          152 -79 90 -160 -149 -60 -86 -129 -45 25 -1 23 vhcurveto
          272 hlineto
          -64 -3 -12 -89 -113 hhcurveto
          -32 -60 7 51 -59 hvcurveto
          10 -11 -2 0 -4 hhcurveto
          -9 -1 -1 -31 -4 hvcurveto
          -1 -8 -3 -29 -7 vvcurveto
          -12 7 -3 22 -11 vhcurveto
          -33 66 57 -5 38 hhcurveto
          hintmask 01010100
          157 95 80 164 hvcurveto
          -129 34 rmoveto
          -208 hlineto
          hintmask 00101000
          78 3 15 58 80 hhcurveto
          hintmask 01000100
          87 20 -75 -61 3 hvcurveto
          endchar
        </CharString>
        <CharString name="estimated">
          758 -10 64 -64 72 -12 64 212 64 250 72 hstemhm
          31 139 426 130 hintmask 01001100
          726 373 rmoveto
          171 -68 168 -265 -97 -103 -21 -71 -71 vhcurveto
          -68 -69 -23 -103 -93 vvcurveto
          -102 23 -114 87 -70 vhcurveto
          69 -56 88 -20 87 -3 rrcurveto
          18 hlineto
          92 93 12 27 89 hvcurveto
          hintmask 00100000
          13 3 26 5 4 13 rrcurveto
          hintmask 10000000
          4 vlineto
          24 -2 50 -16 2 vhcurveto
          hintmask 00100000
          -11 -15 -11 -5 -13 hvcurveto
          hintmask 01011110
          -34 -78 -87 -18 -85 hhcurveto
          -92 -95 30 112 -37 hvcurveto
          -13 40 -4 40 -3 42 rrcurveto
          509 hlineto
          41 7 21 26 hvcurveto
          -130 17 rmoveto
          -426 hlineto
          113 53 137 167 112 94 -55 -195 vhcurveto
          endchar
        </CharString>
        <CharString name="eth">
          -24 callgsubr
          hstem
          61 callsubr
          vstem
          518 254 rmoveto
          148 -65 139 -108 90 vhcurveto
          49 22 rlineto
          15 7 7 12 13 vvcurveto
          19 -15 19 -21 -5 -5 -1 -3 -6 vhcurveto
          -90 -40 -24 14 -27 11 -27 9 rlinecurve
          6 -17 -14 3 -5 hhcurveto
          -5 -15 -12 -8 -9 hvcurveto
          -24 -21 rlineto
          -19 -16 -1 -1 -5 vvcurveto
          0 0 -9 9 -3 vhcurveto
          20 -5 20 -7 19 -9 -51 -23 rcurveline
          -15 -7 -7 -12 -13 vvcurveto
          -19 15 -19 21 5 5 1 3 6 vhcurveto
          97 43 38 -29 33 -37 25 -42 rlinecurve
          -26 3 -26 0 0 vvcurveto
          -156 -88 -80 -170 -160 85 -76 158 244 0 176 89 hvcurveto
          -136 -22 rmoveto
          -71 -2 -94 -105 -108 0 94 76 73 0 93 107 106 2 -99 -72 vhcurveto
          endchar
        </CharString>
        <CharString name="etilde">
          -23 callgsubr
          75 72 -13 72 -97 callgsubr
          hintmask 00001000
          71 397 -87 callsubr
        </CharString>
        <CharString name="eturned">
          -18 callsubr
        </CharString>
        <CharString name="exclam">
          367 0 131 86 -21 498 -20 hstem
          118 131 vstem
          249 673 rmoveto
          21 -5 0 -22 vhcurveto
          -77 hlineto
          -22 -5 0 -21 -89 6 -91 2 -89 hvcurveto
          -24 4 -169 2 -5 vhcurveto
          -10 3 6 0 18 hhcurveto
          49 hlineto
          26 1 1 27 1 hvcurveto
          7 224 rlineto
          1 74 5 77 74 vvcurveto
          -625 vmoveto
          50 callsubr
        </CharString>
</ttFont>
